<svg width="101" height="100" viewBox="0 0 101 100" fill="none" xmlns="http://www.w3.org/2000/svg">
<path fill-rule="evenodd" clip-rule="evenodd" d="M21.7742 93.0319C23.6789 94.9341 25.7565 95.668 28.1466 95.668H82.2188V50.668V38.4539V38.4485C82.2188 34.7444 80.7554 31.1911 78.1464 28.5583L78.1453 28.5571L59.5974 9.83897L59.5916 9.83315L59.5908 9.83231C56.95 7.16725 53.3536 5.66797 49.6018 5.66797H49.5884L28.1466 5.66797C25.7565 5.66797 23.4643 6.61618 21.7742 8.30401C20.0841 9.99184 19.1346 12.281 19.1346 14.668L19.1346 86.668C19.1346 89.0549 19.8695 91.1298 21.7742 93.0319ZM73.2061 95.6679C75.5963 95.6679 77.6739 94.934 79.5786 93.0318C81.4833 91.1297 82.2181 89.0548 82.2181 86.6679V95.6679H73.2061Z" fill="#B7E8E3"/>
<path d="M76.1258 36.042C77.1281 36.042 77.63 34.8302 76.9213 34.1215L55.4498 12.65C54.7411 11.9413 53.5293 12.4432 53.5293 13.4455V34.917C53.5293 35.5383 54.033 36.042 54.6543 36.042H76.1258Z" fill="#218F8C"/>
</svg>
