<svg width="375" height="500" viewBox="0 0 375 500" fill="none" xmlns="http://www.w3.org/2000/svg">
<rect width="375" height="500" fill="#FF3838"/>
<path d="M292.883 139.837C297.64 135.08 297.64 127.369 292.883 122.612C288.127 117.856 280.415 117.856 275.659 122.612C270.903 127.369 270.903 135.08 275.659 139.837C280.415 144.593 288.127 144.593 292.883 139.837Z" fill="#FFBDA7"/>
<path d="M350.054 262.467C350.054 258.482 345.685 255.712 340.734 255.247C334.908 254.702 330.771 257.303 330.637 261.887C326.821 260.323 322.809 261.324 323.104 265.515C322.112 264.371 318.404 264.407 317.072 264.728C316.348 264.931 315.677 265.288 315.105 265.776C314.532 266.263 314.072 266.869 313.757 267.552C313.438 268.219 313.317 268.963 313.409 269.697C311.184 268.973 306.135 268.526 304.875 270.59C302.623 274.218 311.613 274.334 313.418 273.271C313.802 276.095 323.462 276.559 325.803 273.95C327.59 275.791 330.271 276.202 333.085 276.372C337.866 276.649 340.797 275.031 344.523 273.128C348.571 276.568 355.586 276.631 359.24 272.699C360.134 273.592 362.734 273.852 364.789 273.36C366.139 273.038 366.451 272.467 366.451 272.467C367.249 272.809 368.082 273.061 368.936 273.217C371.616 273.771 376.513 273.217 374.44 270.796C373.743 269.982 371.161 269.473 370.07 269.723C368.909 267.445 364.271 265.255 361.608 267.212C361.51 264.46 358.99 262.307 355.443 261.762C354.263 261.502 351.413 261.351 350.054 262.467Z" fill="#F0F0F0"/>
<path d="M41.88 135.603C41.88 131.93 37.8589 129.348 33.3106 128.954C27.9491 128.454 24.1515 130.84 24.0264 135.066C20.5146 133.619 16.8241 134.548 17.1011 138.4C16.2076 137.345 12.7762 137.381 11.552 137.676C10.8841 137.864 10.2653 138.196 9.73894 138.648C9.2126 139.1 8.79145 139.662 8.50495 140.294C8.21022 140.904 8.0985 141.587 8.18327 142.26C6.13698 141.59 1.49039 141.187 0.328742 143.055C-1.73542 146.397 6.53015 146.495 8.1922 145.495C8.54963 148.086 17.4318 148.515 19.5763 146.12C21.2563 147.809 23.6689 148.184 26.2782 148.336C30.6656 148.595 33.3642 147.112 36.7955 145.36C40.5217 148.524 46.9644 148.577 50.3243 144.967C51.2178 145.772 53.5411 146.022 55.4355 145.575C56.6687 145.271 56.9635 144.744 56.9635 144.744C57.694 145.06 58.4586 145.291 59.2421 145.432C61.6727 145.941 66.212 145.432 64.3087 143.207C63.6564 142.456 61.2884 141.983 60.2787 142.215C59.2153 140.124 54.9172 138.149 52.5046 139.91C52.4152 137.381 50.0919 135.442 46.8393 134.897C45.767 134.709 43.0863 134.566 41.88 135.603Z" fill="#F0F0F0"/>
<path d="M123.093 357.613C122.36 357.343 121.587 357.198 120.805 357.184C120.064 357.131 119.831 356.979 119.688 356.827C118.977 355.805 117.94 355.056 116.746 354.702C115.552 354.348 114.274 354.41 113.121 354.879C112.796 353.877 112.108 353.033 111.191 352.515C110.274 351.997 109.196 351.843 108.17 352.082C108.251 349.777 105.311 347.301 102.666 346.721C100.021 346.14 97.9121 346.408 96.4645 348.07C94.9096 345.05 88.8333 344.192 85.545 345.791C83.6506 346.685 82.0511 347.659 81.2648 349.366C80.745 350.439 80.4994 351.624 80.5499 352.815C79.7552 352.246 78.8344 351.878 77.8665 351.743C76.8985 351.607 75.9122 351.708 74.9919 352.037C73.1422 352.752 73.0081 354.146 72.9188 355.558C71.8207 355.243 70.659 355.221 69.55 355.496C68.3883 355.844 67.7628 356.755 67.879 357.497C66.9854 357.444 64.7694 358.185 65.0196 359.159C65.2698 360.133 67.8075 360.142 68.7458 360.106C69.6245 360.034 70.4966 359.897 71.355 359.695C71.7931 359.857 72.2552 359.945 72.7222 359.954C74.3127 359.954 74.9919 359.257 75.2421 358.668C76.0195 360.303 78.8164 361.554 80.7465 362.054C84.437 362.948 89.6822 362.421 91.9162 359.669C92.1835 360.186 92.5582 360.64 93.0153 361C93.9932 361.785 95.18 362.267 96.4287 362.385C97.9389 362.528 101.996 362.716 103.148 360.312C103.953 361.911 107.616 362.644 110.297 362.251C111.36 362.104 112.395 361.803 113.371 361.357C113.988 361.04 114.585 360.685 115.158 360.294C115.377 360.143 115.634 360.054 115.9 360.036C116.165 360.019 116.431 360.074 116.668 360.196C118.612 360.879 120.73 360.879 122.673 360.196C124.219 359.552 124.541 358.266 123.093 357.613Z" fill="#F0F0F0"/>
<path d="M223.861 136.572C218.965 134.686 213.558 138.708 210.011 144.185C206.866 140.236 199.109 135.643 194.945 139.476C200.548 137.689 206.195 141.12 209.43 145.579C209.654 145.856 210.324 146.196 210.645 145.651C214.032 139.539 219.295 136.375 223.861 136.572Z" fill="#455A64"/>
<path d="M243.492 146C239.534 145.018 235.843 149.834 234.816 153.712C232.01 150.969 227.506 147.993 223.789 150.468C228.364 149.351 231.581 151.719 234.512 154.838C234.709 155.035 235.343 155.258 235.459 154.784C236.523 150.299 239.954 146.277 243.492 146Z" fill="#455A64"/>
<path d="M157.84 26.24C156.016 26.24 154.632 25.816 153.688 24.968C152.744 24.12 152.272 22.928 152.272 21.392V20.12C152.272 19.608 152.376 19.136 152.584 18.704C152.808 18.272 153.056 17.88 153.328 17.528C153.616 17.16 153.864 16.824 154.072 16.52C154.296 16.2 154.408 15.904 154.408 15.632C154.408 15.376 154.352 15.208 154.24 15.128C154.128 15.048 153.928 15.008 153.64 15.008H151.984L152.2 13.04H155.224C156.44 13.04 157.048 13.624 157.048 14.792C157.048 15.336 156.936 15.824 156.712 16.256C156.504 16.688 156.248 17.104 155.944 17.504C155.656 17.904 155.4 18.32 155.176 18.752C154.968 19.168 154.864 19.632 154.864 20.144V21.608C154.864 22.488 155.128 23.136 155.656 23.552C156.184 23.952 156.912 24.152 157.84 24.152C158.784 24.152 159.512 23.944 160.024 23.528C160.536 23.112 160.792 22.448 160.792 21.536V13.04H163.408V21.368C163.408 22.904 162.912 24.104 161.92 24.968C160.944 25.816 159.584 26.24 157.84 26.24ZM171.305 26.24C170.281 26.24 169.313 26.144 168.401 25.952C167.505 25.76 166.753 25.536 166.145 25.28V18.608H171.281L171.401 20.6H168.665V23.744C169.033 23.872 169.449 23.976 169.913 24.056C170.393 24.12 170.857 24.152 171.305 24.152C172.729 24.152 173.729 23.816 174.305 23.144C174.897 22.456 175.193 21.264 175.193 19.568C175.193 18.384 175.049 17.456 174.761 16.784C174.473 16.096 173.993 15.616 173.321 15.344C172.665 15.056 171.769 14.912 170.633 14.912C169.945 14.912 169.225 14.96 168.473 15.056C167.721 15.152 167.009 15.312 166.337 15.536V13.52C167.009 13.296 167.777 13.12 168.641 12.992C169.521 12.864 170.401 12.8 171.281 12.8C173.553 12.8 175.193 13.376 176.201 14.528C177.209 15.664 177.713 17.344 177.713 19.568C177.713 21.744 177.209 23.4 176.201 24.536C175.193 25.672 173.561 26.24 171.305 26.24ZM186.19 26.24C184.334 26.24 182.878 25.8 181.822 24.92C180.782 24.04 180.262 22.72 180.262 20.96V13.04H182.878V21.056C182.878 22.128 183.158 22.912 183.718 23.408C184.294 23.904 185.118 24.152 186.19 24.152C187.278 24.152 188.102 23.904 188.662 23.408C189.238 22.912 189.526 22.128 189.526 21.056V13.04H192.118V20.96C192.118 22.72 191.598 24.04 190.558 24.92C189.518 25.8 188.062 26.24 186.19 26.24ZM201.096 26.24C199.24 26.24 197.784 25.8 196.728 24.92C195.688 24.04 195.168 22.72 195.168 20.96V13.04H197.784V21.056C197.784 22.128 198.064 22.912 198.624 23.408C199.2 23.904 200.024 24.152 201.096 24.152C202.184 24.152 203.008 23.904 203.568 23.408C204.144 22.912 204.432 22.128 204.432 21.056V13.04H207.024V20.96C207.024 22.72 206.504 24.04 205.464 24.92C204.424 25.8 202.968 26.24 201.096 26.24ZM214.491 26.24C213.099 26.24 212.011 25.832 211.227 25.016C210.459 24.2 210.075 23.04 210.075 21.536V13.04H212.691V21.416C212.691 22.392 212.907 23.096 213.339 23.528C213.771 23.944 214.443 24.152 215.355 24.152C216.059 24.152 216.731 24.008 217.371 23.72C218.011 23.416 218.539 23.04 218.955 22.592V13.04H221.547V26H219.171L219.051 24.584C218.459 25.08 217.787 25.48 217.035 25.784C216.299 26.088 215.451 26.24 214.491 26.24Z" fill="white"/>
<path d="M153.84 490.24C152.016 490.24 150.632 489.816 149.688 488.968C148.744 488.12 148.272 486.928 148.272 485.392V484.12C148.272 483.608 148.376 483.136 148.584 482.704C148.808 482.272 149.056 481.88 149.328 481.528C149.616 481.16 149.864 480.824 150.072 480.52C150.296 480.2 150.408 479.904 150.408 479.632C150.408 479.376 150.352 479.208 150.24 479.128C150.128 479.048 149.928 479.008 149.64 479.008H147.984L148.2 477.04H151.224C152.44 477.04 153.048 477.624 153.048 478.792C153.048 479.336 152.936 479.824 152.712 480.256C152.504 480.688 152.248 481.104 151.944 481.504C151.656 481.904 151.4 482.32 151.176 482.752C150.968 483.168 150.864 483.632 150.864 484.144V485.608C150.864 486.488 151.128 487.136 151.656 487.552C152.184 487.952 152.912 488.152 153.84 488.152C154.784 488.152 155.512 487.944 156.024 487.528C156.536 487.112 156.792 486.448 156.792 485.536V477.04H159.408V485.368C159.408 486.904 158.912 488.104 157.92 488.968C156.944 489.816 155.584 490.24 153.84 490.24ZM167.305 490.24C166.281 490.24 165.313 490.144 164.401 489.952C163.505 489.76 162.753 489.536 162.145 489.28V482.608H167.281L167.401 484.6H164.665V487.744C165.033 487.872 165.449 487.976 165.913 488.056C166.393 488.12 166.857 488.152 167.305 488.152C168.729 488.152 169.729 487.816 170.305 487.144C170.897 486.456 171.193 485.264 171.193 483.568C171.193 482.384 171.049 481.456 170.761 480.784C170.473 480.096 169.993 479.616 169.321 479.344C168.665 479.056 167.769 478.912 166.633 478.912C165.945 478.912 165.225 478.96 164.473 479.056C163.721 479.152 163.009 479.312 162.337 479.536V477.52C163.009 477.296 163.777 477.12 164.641 476.992C165.521 476.864 166.401 476.8 167.281 476.8C169.553 476.8 171.193 477.376 172.201 478.528C173.209 479.664 173.713 481.344 173.713 483.568C173.713 485.744 173.209 487.4 172.201 488.536C171.193 489.672 169.561 490.24 167.305 490.24ZM182.19 490.24C180.334 490.24 178.878 489.8 177.822 488.92C176.782 488.04 176.262 486.72 176.262 484.96V477.04H178.878V485.056C178.878 486.128 179.158 486.912 179.718 487.408C180.294 487.904 181.118 488.152 182.19 488.152C183.278 488.152 184.102 487.904 184.662 487.408C185.238 486.912 185.526 486.128 185.526 485.056V477.04H188.118V484.96C188.118 486.72 187.598 488.04 186.558 488.92C185.518 489.8 184.062 490.24 182.19 490.24ZM195.176 490.24C194.36 490.24 193.616 490.112 192.944 489.856C192.288 489.584 191.76 489.16 191.36 488.584C190.96 487.992 190.76 487.224 190.76 486.28C190.76 485.016 191.184 484.032 192.032 483.328C192.896 482.624 194.152 482.272 195.8 482.272H199.76V481.456C199.76 480.512 199.52 479.856 199.04 479.488C198.576 479.104 197.704 478.912 196.424 478.912C195.672 478.912 194.944 478.96 194.24 479.056C193.552 479.152 192.872 479.312 192.2 479.536V477.52C192.824 477.312 193.544 477.144 194.36 477.016C195.192 476.872 196.024 476.8 196.856 476.8C198.744 476.8 200.136 477.2 201.032 478C201.928 478.784 202.376 480.016 202.376 481.696V490H199.76V484.288H195.968C195.072 484.288 194.392 484.44 193.928 484.744C193.48 485.032 193.256 485.544 193.256 486.28C193.256 486.984 193.456 487.472 193.856 487.744C194.272 488.016 194.944 488.152 195.872 488.152C196.512 488.152 197.064 488.088 197.528 487.96V489.952C197.224 490.032 196.872 490.096 196.472 490.144C196.072 490.208 195.64 490.24 195.176 490.24ZM199.754 475.048V471.112H202.37V475.048H199.754ZM210.314 490V481.84C210.314 481.184 210.242 480.64 210.098 480.208C209.954 479.776 209.682 479.456 209.282 479.248C208.882 479.024 208.29 478.912 207.506 478.912C206.994 478.912 206.434 478.968 205.826 479.08C205.234 479.192 204.698 479.344 204.218 479.536V477.52C204.698 477.312 205.274 477.144 205.946 477.016C206.634 476.872 207.322 476.8 208.01 476.8C209.738 476.8 210.986 477.176 211.754 477.928C212.538 478.68 212.93 479.872 212.93 481.504V490H210.314ZM221.077 490.24C220.709 490.24 220.301 490.216 219.853 490.168C219.405 490.12 219.013 490.04 218.677 489.928L215.029 481.048H217.573L220.525 488.248C221.901 488.312 222.901 487.92 223.525 487.072C224.149 486.208 224.461 484.888 224.461 483.112C224.461 482.072 224.365 481.256 224.173 480.664C223.981 480.056 223.653 479.632 223.189 479.392C222.741 479.136 222.117 479.008 221.317 479.008H220.405V477.04H221.653C223.509 477.04 224.861 477.536 225.709 478.528C226.557 479.52 226.981 481.04 226.981 483.088C226.981 484.784 226.725 486.16 226.213 487.216C225.701 488.256 224.997 489.024 224.101 489.52C223.221 490 222.213 490.24 221.077 490.24Z" fill="white"/>
<path d="M6.84 258.24C5.016 258.24 3.632 257.816 2.688 256.968C1.744 256.12 1.272 254.928 1.272 253.392V252.12C1.272 251.608 1.376 251.136 1.584 250.704C1.808 250.272 2.056 249.88 2.328 249.528C2.616 249.16 2.864 248.824 3.072 248.52C3.296 248.2 3.408 247.904 3.408 247.632C3.408 247.376 3.352 247.208 3.24 247.128C3.128 247.048 2.928 247.008 2.64 247.008H0.984L1.2 245.04H4.224C5.44 245.04 6.048 245.624 6.048 246.792C6.048 247.336 5.936 247.824 5.712 248.256C5.504 248.688 5.248 249.104 4.944 249.504C4.656 249.904 4.4 250.32 4.176 250.752C3.968 251.168 3.864 251.632 3.864 252.144V253.608C3.864 254.488 4.128 255.136 4.656 255.552C5.184 255.952 5.912 256.152 6.84 256.152C7.784 256.152 8.512 255.944 9.024 255.528C9.536 255.112 9.792 254.448 9.792 253.536V245.04H12.408V253.368C12.408 254.904 11.912 256.104 10.92 256.968C9.944 257.816 8.584 258.24 6.84 258.24ZM20.3053 258.24C19.2813 258.24 18.3133 258.144 17.4013 257.952C16.5053 257.76 15.7533 257.536 15.1453 257.28V250.608H20.2813L20.4013 252.6H17.6653V255.744C18.0333 255.872 18.4493 255.976 18.9133 256.056C19.3933 256.12 19.8573 256.152 20.3053 256.152C21.7293 256.152 22.7293 255.816 23.3053 255.144C23.8973 254.456 24.1933 253.264 24.1933 251.568C24.1933 250.384 24.0493 249.456 23.7613 248.784C23.4733 248.096 22.9933 247.616 22.3213 247.344C21.6653 247.056 20.7693 246.912 19.6333 246.912C18.9453 246.912 18.2253 246.96 17.4733 247.056C16.7213 247.152 16.0093 247.312 15.3373 247.536V245.52C16.0093 245.296 16.7773 245.12 17.6413 244.992C18.5213 244.864 19.4013 244.8 20.2813 244.8C22.5533 244.8 24.1933 245.376 25.2013 246.528C26.2093 247.664 26.7133 249.344 26.7133 251.568C26.7133 253.744 26.2093 255.4 25.2013 256.536C24.1933 257.672 22.5613 258.24 20.3053 258.24ZM35.19 258.24C33.334 258.24 31.878 257.8 30.822 256.92C29.782 256.04 29.262 254.72 29.262 252.96V245.04H31.878V253.056C31.878 254.128 32.158 254.912 32.718 255.408C33.294 255.904 34.118 256.152 35.19 256.152C36.278 256.152 37.102 255.904 37.662 255.408C38.238 254.912 38.526 254.128 38.526 253.056V245.04H41.118V252.96C41.118 254.72 40.598 256.04 39.558 256.92C38.518 257.8 37.062 258.24 35.19 258.24ZM49.4963 258.24C47.6883 258.24 46.3123 257.832 45.3683 257.016C44.4243 256.2 43.9523 255.048 43.9523 253.56V252.6C43.9523 252.088 44.0883 251.584 44.3603 251.088C44.6483 250.592 44.9683 250.128 45.3203 249.696C45.6883 249.248 46.0083 248.84 46.2803 248.472C46.5683 248.088 46.7123 247.76 46.7123 247.488C46.7123 247.136 46.5523 246.96 46.2323 246.96C45.9443 246.96 45.6803 247.08 45.4403 247.32V248.28H43.6643V245.04H45.4883V245.712C45.7123 245.536 45.9603 245.384 46.2323 245.256C46.5203 245.112 46.8803 245.04 47.3123 245.04C48.5283 245.04 49.1363 245.656 49.1363 246.888C49.1363 247.432 49.0083 247.944 48.7523 248.424C48.4963 248.888 48.1923 249.344 47.8403 249.792C47.5043 250.24 47.2083 250.696 46.9523 251.16C46.6963 251.608 46.5683 252.088 46.5683 252.6V253.608C46.5683 254.488 46.8243 255.136 47.3363 255.552C47.8483 255.952 48.5683 256.152 49.4963 256.152C50.4403 256.152 51.1763 255.944 51.7043 255.528C52.2323 255.112 52.4963 254.448 52.4963 253.536V251.952C52.4963 251.2 52.3683 250.68 52.1123 250.392C51.8723 250.088 51.4243 249.936 50.7683 249.936H50.0963L50.2163 248.04H50.6963C51.3683 248.04 51.8323 247.88 52.0883 247.56C52.3603 247.224 52.4963 246.712 52.4963 246.024V244.8H55.0883V245.976C55.0883 246.728 54.9763 247.352 54.7523 247.848C54.5283 248.328 54.0723 248.704 53.3843 248.976C54.1043 249.28 54.5683 249.68 54.7762 250.176C54.9843 250.672 55.0883 251.288 55.0883 252.024V253.368C55.0883 254.904 54.5923 256.104 53.6003 256.968C52.6243 257.816 51.2563 258.24 49.4963 258.24ZM49.593 243.072V240.864H47.697V239.064H51.393V241.248H56.577L56.481 243.072H49.593ZM63.033 258V249.84C63.033 249.184 62.961 248.64 62.817 248.208C62.673 247.776 62.401 247.456 62.001 247.248C61.601 247.024 61.009 246.912 60.225 246.912C59.713 246.912 59.153 246.968 58.545 247.08C57.953 247.192 57.417 247.344 56.937 247.536V245.52C57.417 245.312 57.993 245.144 58.665 245.016C59.353 244.872 60.041 244.8 60.729 244.8C62.457 244.8 63.705 245.176 64.473 245.928C65.257 246.68 65.649 247.872 65.649 249.504V258H63.033ZM74.1313 258.24C72.9793 258.24 71.9553 258.104 71.0593 257.832C70.1633 257.56 69.4513 257.128 68.9233 256.536C68.4113 255.944 68.1553 255.16 68.1553 254.184C68.1553 253.528 68.3073 252.952 68.6113 252.456C68.9153 251.944 69.3633 251.544 69.9553 251.256C69.4593 251.064 69.0433 250.736 68.7073 250.272C68.3873 249.808 68.2273 249.232 68.2273 248.544C68.2273 247.312 68.6033 246.384 69.3553 245.76C70.1233 245.12 71.0993 244.8 72.2833 244.8C72.7473 244.8 73.1473 244.832 73.4833 244.896C73.8193 244.944 74.1233 245.016 74.3953 245.112V247.104C73.9313 246.976 73.3873 246.912 72.7633 246.912C72.1233 246.912 71.6273 247.04 71.2753 247.296C70.9233 247.552 70.7473 247.968 70.7473 248.544C70.7473 249.152 70.9473 249.592 71.3473 249.864C71.7473 250.12 72.2993 250.248 73.0033 250.248H74.3713L74.4913 252.192H72.9553C71.4353 252.192 70.6753 252.856 70.6753 254.184C70.6753 254.84 70.9473 255.336 71.4913 255.672C72.0353 255.992 72.8753 256.152 74.0113 256.152C76.2673 256.152 77.3953 255.232 77.3953 253.392V245.04H79.9873V253.08C79.9873 254.824 79.4993 256.12 78.5233 256.968C77.5473 257.816 76.0833 258.24 74.1313 258.24Z" fill="white"/>
<path d="M301.84 258.24C300.016 258.24 298.632 257.816 297.688 256.968C296.744 256.12 296.272 254.928 296.272 253.392V252.12C296.272 251.608 296.376 251.136 296.584 250.704C296.808 250.272 297.056 249.88 297.328 249.528C297.616 249.16 297.864 248.824 298.072 248.52C298.296 248.2 298.408 247.904 298.408 247.632C298.408 247.376 298.352 247.208 298.24 247.128C298.128 247.048 297.928 247.008 297.64 247.008H295.984L296.2 245.04H299.224C300.44 245.04 301.048 245.624 301.048 246.792C301.048 247.336 300.936 247.824 300.712 248.256C300.504 248.688 300.248 249.104 299.944 249.504C299.656 249.904 299.4 250.32 299.176 250.752C298.968 251.168 298.864 251.632 298.864 252.144V253.608C298.864 254.488 299.128 255.136 299.656 255.552C300.184 255.952 300.912 256.152 301.84 256.152C302.784 256.152 303.512 255.944 304.024 255.528C304.536 255.112 304.792 254.448 304.792 253.536V245.04H307.408V253.368C307.408 254.904 306.912 256.104 305.92 256.968C304.944 257.816 303.584 258.24 301.84 258.24ZM315.305 258.24C314.281 258.24 313.313 258.144 312.401 257.952C311.505 257.76 310.753 257.536 310.145 257.28V250.608H315.281L315.401 252.6H312.665V255.744C313.033 255.872 313.449 255.976 313.913 256.056C314.393 256.12 314.857 256.152 315.305 256.152C316.729 256.152 317.729 255.816 318.305 255.144C318.897 254.456 319.193 253.264 319.193 251.568C319.193 250.384 319.049 249.456 318.761 248.784C318.473 248.096 317.993 247.616 317.321 247.344C316.665 247.056 315.769 246.912 314.633 246.912C313.945 246.912 313.225 246.96 312.473 247.056C311.721 247.152 311.009 247.312 310.337 247.536V245.52C311.009 245.296 311.777 245.12 312.641 244.992C313.521 244.864 314.401 244.8 315.281 244.8C317.553 244.8 319.193 245.376 320.201 246.528C321.209 247.664 321.713 249.344 321.713 251.568C321.713 253.744 321.209 255.4 320.201 256.536C319.193 257.672 317.561 258.24 315.305 258.24ZM330.19 258.24C328.334 258.24 326.878 257.8 325.822 256.92C324.782 256.04 324.262 254.72 324.262 252.96V245.04H326.878V253.056C326.878 254.128 327.158 254.912 327.718 255.408C328.294 255.904 329.118 256.152 330.19 256.152C331.278 256.152 332.102 255.904 332.662 255.408C333.238 254.912 333.526 254.128 333.526 253.056V245.04H336.118V252.96C336.118 254.72 335.598 256.04 334.558 256.92C333.518 257.8 332.062 258.24 330.19 258.24ZM344.496 258.24C342.672 258.24 341.288 257.816 340.344 256.968C339.4 256.12 338.928 254.928 338.928 253.392V252.12C338.928 251.608 339.032 251.136 339.24 250.704C339.464 250.272 339.712 249.88 339.984 249.528C340.272 249.16 340.52 248.824 340.728 248.52C340.952 248.2 341.064 247.904 341.064 247.632C341.064 247.376 341.008 247.208 340.896 247.128C340.784 247.048 340.584 247.008 340.296 247.008H338.64L338.856 245.04H341.88C343.096 245.04 343.704 245.624 343.704 246.792C343.704 247.336 343.592 247.824 343.368 248.256C343.16 248.688 342.904 249.104 342.6 249.504C342.312 249.904 342.056 250.32 341.832 250.752C341.624 251.168 341.52 251.632 341.52 252.144V253.608C341.52 254.488 341.784 255.136 342.312 255.552C342.84 255.952 343.568 256.152 344.496 256.152C345.44 256.152 346.168 255.944 346.68 255.528C347.192 255.112 347.448 254.448 347.448 253.536V245.04H350.064V253.368C350.064 254.904 349.568 256.104 348.576 256.968C347.6 257.816 346.24 258.24 344.496 258.24ZM356.33 258.24C354.842 258.24 353.546 258 352.442 257.52V255.456C352.922 255.664 353.442 255.832 354.002 255.96C354.578 256.088 355.146 256.152 355.706 256.152C356.794 256.152 357.658 256 358.298 255.696C358.938 255.392 359.394 254.904 359.666 254.232C359.954 253.544 360.098 252.64 360.098 251.52C360.098 249.856 359.754 248.672 359.066 247.968C358.394 247.264 357.266 246.912 355.682 246.912C355.106 246.912 354.546 246.976 354.002 247.104C353.458 247.216 352.938 247.384 352.442 247.608V245.52C352.986 245.296 353.57 245.12 354.194 244.992C354.834 244.864 355.522 244.8 356.258 244.8C358.402 244.8 359.994 245.376 361.034 246.528C362.09 247.664 362.618 249.328 362.618 251.52C362.618 253.696 362.114 255.36 361.106 256.512C360.114 257.664 358.522 258.24 356.33 258.24ZM369.939 258V249.84C369.939 249.184 369.867 248.64 369.723 248.208C369.579 247.776 369.307 247.456 368.907 247.248C368.507 247.024 367.915 246.912 367.131 246.912C366.619 246.912 366.059 246.968 365.451 247.08C364.859 247.192 364.323 247.344 363.843 247.536V245.52C364.323 245.312 364.899 245.144 365.571 245.016C366.259 244.872 366.947 244.8 367.635 244.8C369.363 244.8 370.611 245.176 371.379 245.928C372.163 246.68 372.555 247.872 372.555 249.504V258H369.939Z" fill="white"/>
</svg>
