<svg width="375" height="500" viewBox="0 0 375 500" fill="none" xmlns="http://www.w3.org/2000/svg">
<rect width="375" height="500" fill="white"/>
<path d="M292.883 139.837C297.64 135.08 297.64 127.369 292.883 122.612C288.127 117.856 280.415 117.856 275.659 122.612C270.903 127.369 270.903 135.08 275.659 139.837C280.415 144.593 288.127 144.593 292.883 139.837Z" fill="#FFBDA7"/>
<path d="M350.054 262.467C350.054 258.482 345.685 255.712 340.734 255.247C334.908 254.702 330.771 257.303 330.637 261.887C326.821 260.323 322.809 261.324 323.104 265.515C322.112 264.371 318.404 264.407 317.072 264.728C316.348 264.931 315.677 265.288 315.105 265.776C314.532 266.263 314.072 266.869 313.757 267.552C313.438 268.219 313.317 268.963 313.409 269.697C311.184 268.973 306.135 268.526 304.875 270.59C302.623 274.218 311.613 274.334 313.418 273.271C313.802 276.095 323.462 276.559 325.803 273.95C327.59 275.791 330.271 276.202 333.085 276.372C337.866 276.649 340.797 275.031 344.523 273.128C348.571 276.568 355.586 276.631 359.24 272.699C360.134 273.592 362.734 273.852 364.789 273.36C366.139 273.038 366.451 272.467 366.451 272.467C367.249 272.809 368.082 273.061 368.936 273.217C371.616 273.771 376.513 273.217 374.44 270.796C373.743 269.982 371.161 269.473 370.07 269.723C368.909 267.445 364.271 265.255 361.608 267.212C361.51 264.46 358.99 262.307 355.443 261.762C354.263 261.502 351.413 261.351 350.054 262.467Z" fill="#F0F0F0"/>
<path d="M41.88 135.603C41.88 131.93 37.8589 129.348 33.3106 128.954C27.9491 128.454 24.1515 130.84 24.0264 135.066C20.5146 133.619 16.8241 134.548 17.1011 138.4C16.2076 137.345 12.7762 137.381 11.552 137.676C10.8841 137.864 10.2653 138.196 9.73894 138.648C9.2126 139.1 8.79145 139.662 8.50495 140.294C8.21022 140.904 8.0985 141.587 8.18327 142.26C6.13698 141.59 1.49039 141.187 0.328742 143.055C-1.73542 146.397 6.53015 146.495 8.1922 145.495C8.54963 148.086 17.4318 148.515 19.5763 146.12C21.2563 147.809 23.6689 148.184 26.2782 148.336C30.6656 148.595 33.3642 147.112 36.7955 145.36C40.5217 148.524 46.9644 148.577 50.3243 144.967C51.2178 145.772 53.5411 146.022 55.4355 145.575C56.6687 145.271 56.9635 144.744 56.9635 144.744C57.694 145.06 58.4586 145.291 59.2421 145.432C61.6727 145.941 66.212 145.432 64.3087 143.207C63.6564 142.456 61.2884 141.983 60.2787 142.215C59.2153 140.124 54.9172 138.149 52.5046 139.91C52.4152 137.381 50.0919 135.442 46.8393 134.897C45.767 134.709 43.0863 134.566 41.88 135.603Z" fill="#F0F0F0"/>
<path d="M123.093 357.613C122.36 357.343 121.587 357.198 120.805 357.184C120.064 357.131 119.831 356.979 119.688 356.827C118.977 355.805 117.94 355.056 116.746 354.702C115.552 354.348 114.274 354.41 113.121 354.879C112.796 353.877 112.108 353.033 111.191 352.515C110.274 351.997 109.196 351.843 108.17 352.082C108.251 349.777 105.311 347.301 102.666 346.721C100.021 346.14 97.9121 346.408 96.4645 348.07C94.9096 345.05 88.8333 344.192 85.545 345.791C83.6506 346.685 82.0511 347.659 81.2648 349.366C80.745 350.439 80.4994 351.624 80.5499 352.815C79.7552 352.246 78.8344 351.878 77.8665 351.743C76.8985 351.607 75.9122 351.708 74.9919 352.037C73.1422 352.752 73.0081 354.146 72.9188 355.558C71.8207 355.243 70.659 355.221 69.55 355.496C68.3883 355.844 67.7628 356.755 67.879 357.497C66.9854 357.444 64.7694 358.185 65.0196 359.159C65.2698 360.133 67.8075 360.142 68.7458 360.106C69.6245 360.034 70.4966 359.897 71.355 359.695C71.7931 359.857 72.2552 359.945 72.7222 359.954C74.3127 359.954 74.9919 359.257 75.2421 358.668C76.0195 360.303 78.8164 361.554 80.7465 362.054C84.437 362.948 89.6822 362.421 91.9162 359.669C92.1835 360.186 92.5582 360.64 93.0153 361C93.9932 361.785 95.18 362.267 96.4287 362.385C97.9389 362.528 101.996 362.716 103.148 360.312C103.953 361.911 107.616 362.644 110.297 362.251C111.36 362.104 112.395 361.803 113.371 361.357C113.988 361.04 114.585 360.685 115.158 360.294C115.377 360.143 115.634 360.054 115.9 360.036C116.165 360.019 116.431 360.074 116.668 360.196C118.612 360.879 120.73 360.879 122.673 360.196C124.219 359.552 124.541 358.266 123.093 357.613Z" fill="#F0F0F0"/>
<path d="M223.861 136.572C218.965 134.686 213.558 138.708 210.011 144.185C206.866 140.236 199.109 135.643 194.945 139.476C200.548 137.689 206.195 141.12 209.43 145.579C209.654 145.856 210.324 146.196 210.645 145.651C214.032 139.539 219.295 136.375 223.861 136.572Z" fill="#455A64"/>
<path d="M243.492 146C239.534 145.018 235.843 149.834 234.816 153.712C232.01 150.969 227.506 147.993 223.789 150.468C228.364 149.351 231.581 151.719 234.512 154.838C234.709 155.035 235.343 155.258 235.459 154.784C236.523 150.299 239.954 146.277 243.492 146Z" fill="#455A64"/>
</svg>
