<svg width="1920" height="1000" viewBox="0 0 1920 1000" fill="none" xmlns="http://www.w3.org/2000/svg">
<path d="M1436.99 176.063C1457.44 155.617 1457.44 122.467 1436.99 102.021C1416.55 81.5752 1383.4 81.5752 1362.95 102.021C1342.5 122.467 1342.5 155.617 1362.95 176.063C1383.4 196.509 1416.55 196.509 1436.99 176.063Z" fill="#FFBDA7"/>
<path d="M1682.76 273.345C1682.76 256.213 1663.97 244.305 1642.69 242.308C1617.65 239.965 1599.86 251.143 1599.29 270.848C1582.89 264.126 1565.64 268.428 1566.91 286.443C1562.64 281.526 1546.7 281.68 1540.98 283.063C1537.87 283.933 1534.98 285.47 1532.52 287.565C1530.06 289.661 1528.08 292.266 1526.73 295.201C1525.35 298.066 1524.83 301.267 1525.23 304.42C1515.66 301.308 1493.96 299.388 1488.55 308.261C1478.87 323.856 1517.51 324.356 1525.27 319.785C1526.92 331.923 1568.44 333.92 1578.51 322.704C1586.19 330.617 1597.71 332.384 1609.81 333.113C1630.36 334.304 1642.96 327.352 1658.98 319.17C1676.38 333.958 1706.53 334.227 1722.24 317.326C1726.08 321.167 1737.26 322.281 1746.1 320.169C1751.9 318.786 1753.24 316.327 1753.24 316.327C1756.67 317.8 1760.25 318.883 1763.92 319.554C1775.44 321.936 1796.49 319.554 1787.58 309.144C1784.59 305.649 1773.48 303.459 1768.8 304.535C1763.8 294.74 1743.87 285.329 1732.42 293.741C1732 281.91 1721.17 272.653 1705.92 270.31C1700.85 269.196 1688.59 268.543 1682.76 273.345Z" fill="#F0F0F0"/>
<path d="M358.028 157.861C358.028 142.074 340.743 130.973 321.191 129.283C298.144 127.132 281.819 137.388 281.281 155.556C266.185 149.334 250.321 153.329 251.512 169.884C247.671 165.351 232.921 165.505 227.658 166.773C224.787 167.581 222.127 169.007 219.864 170.951C217.602 172.895 215.792 175.31 214.56 178.027C213.293 180.652 212.813 183.587 213.177 186.478C204.381 183.597 184.407 181.868 179.413 189.897C170.54 204.263 206.071 204.685 213.216 200.383C214.752 211.522 252.933 213.366 262.152 203.072C269.374 210.332 279.745 211.945 290.961 212.598C309.821 213.712 321.422 207.336 336.172 199.807C352.189 213.405 379.884 213.635 394.327 198.117C398.168 201.574 408.156 202.649 416.299 200.729C421.6 199.423 422.867 197.156 422.867 197.156C426.007 198.517 429.294 199.509 432.662 200.114C443.11 202.304 462.623 200.114 454.442 190.55C451.638 187.323 441.459 185.287 437.118 186.286C432.547 177.297 414.071 168.808 403.7 176.376C403.316 165.505 393.329 157.17 379.347 154.827C374.737 154.02 363.214 153.405 358.028 157.861Z" fill="#F0F0F0"/>
<path d="M634.722 462.22C631.572 461.057 628.247 460.434 624.889 460.377C621.701 460.146 620.702 459.493 620.088 458.84C617.03 454.448 612.569 451.227 607.439 449.706C602.308 448.184 596.813 448.452 591.855 450.466C590.461 446.159 587.5 442.533 583.559 440.306C579.617 438.079 574.983 437.415 570.575 438.444C570.92 428.533 558.283 417.893 546.913 415.396C535.543 412.9 526.478 414.052 520.255 421.197C513.572 408.213 487.452 404.526 473.316 411.402C465.173 415.243 458.297 419.43 454.917 426.766C452.683 431.379 451.627 436.473 451.844 441.593C448.428 439.148 444.47 437.566 440.309 436.984C436.148 436.402 431.908 436.837 427.952 438.251C420 441.324 419.424 447.317 419.04 453.386C414.32 452.029 409.326 451.937 404.559 453.117C399.565 454.615 396.877 458.533 397.376 461.721C393.535 461.491 384.009 464.679 385.084 468.866C386.16 473.053 397.069 473.091 401.102 472.937C404.879 472.626 408.628 472.035 412.318 471.17C414.201 471.867 416.188 472.244 418.195 472.284C425.032 472.284 427.952 469.288 429.027 466.753C432.369 473.782 444.392 479.16 452.689 481.311C468.553 485.152 491.101 482.886 500.704 471.055C501.853 473.278 503.464 475.229 505.428 476.779C509.632 480.155 514.734 482.225 520.102 482.732C526.593 483.347 544.032 484.154 548.987 473.821C552.444 480.697 568.193 483.846 579.717 482.156C584.284 481.524 588.736 480.23 592.93 478.315C595.583 476.951 598.149 475.424 600.613 473.744C601.556 473.094 602.657 472.711 603.8 472.636C604.943 472.562 606.085 472.799 607.104 473.321C615.458 476.259 624.564 476.259 632.917 473.321C639.562 470.556 640.945 465.025 634.722 462.22Z" fill="#F0F0F0"/>
<path d="M1140.3 162.026C1119.25 153.921 1096.01 171.207 1080.76 194.753C1067.24 177.775 1033.9 158.031 1016 174.51C1040.08 166.828 1064.36 181.578 1078.27 200.745C1079.23 201.936 1082.11 203.396 1083.49 201.053C1098.05 174.779 1120.67 161.181 1140.3 162.026Z" fill="#455A64"/>
<path d="M1224.7 202.556C1207.68 198.331 1191.82 219.035 1187.4 235.706C1175.34 223.913 1155.98 211.122 1140 221.762C1159.67 216.961 1173.5 227.14 1186.09 240.545C1186.94 241.391 1189.67 242.351 1190.17 240.315C1194.74 221.032 1209.49 203.747 1224.7 202.556Z" fill="#455A64"/>
</svg>
