<svg width="144" height="229" viewBox="0 0 144 229" fill="none" xmlns="http://www.w3.org/2000/svg">
<g clip-path="url(#clip0_2851_24660)">
<path d="M93.4876 155.36C94.5938 158.156 101.544 172.829 110.79 165.795C121.935 157.342 135.961 119.043 135.961 119.043L125.671 114.264L105.906 146.301L93.4876 155.339" fill="#F28F8F"/>
<path d="M94.1552 93.6019C99.0808 110.153 109.016 147.033 109.016 147.033C109.016 147.033 104.841 169.511 97.6616 161.789C95.1987 159.159 93.9465 156.738 91.4001 150.456C89.1043 144.8 82.3002 121.716 82.3002 121.716C82.3002 121.716 83.7821 88.5301 78.5851 84.1471C75.7957 81.671 72.5677 79.7385 69.0677 78.4492C77.3328 79.0754 89.6261 78.4284 94.1552 93.6019Z" fill="#F28F8F"/>
<path d="M68.2947 75.4854C78.2087 75.5897 89.1662 79.2005 92.8604 86.9646C96.5547 94.7288 105.133 128.582 105.133 128.582C102.263 131.233 98.8682 133.252 95.1684 134.506C91.4686 135.761 87.5464 136.225 83.6561 135.866L68.2947 75.4854Z" fill="#155852"/>
<path fill-rule="evenodd" clip-rule="evenodd" d="M26.1972 166.756C26.1972 172.777 25.1706 196.765 24.7842 217.875L59.0967 221.063C59.7227 213.578 60.3011 207.122 60.3011 207.122L63.5967 221.438L97.3217 224.25C94.4345 197.735 90.3977 166.673 90.3977 166.673L26.1972 166.756Z" fill="#37474F"/>
<path d="M46.8373 76.1111H46.6494C40.7771 77.6025 35.5728 81.0164 31.8659 85.8088C28.159 90.6013 26.1628 96.4966 26.1954 102.555V166.756C35.8172 177.192 69.3158 182.075 90.3125 166.756V99.9672C90.3125 89.281 84.385 76.4659 68.0009 75.5059L46.8373 76.1111Z" fill="#1B766E"/>
<path d="M42.2203 21.4699C41.1192 21.3354 40.0019 21.4534 38.9531 21.8151C37.9044 22.1767 36.9518 22.7724 36.1676 23.5571C33.5796 26.2077 34.0805 31.1125 36.1676 42.3414L44.2031 43.2597L42.2203 21.4699Z" fill="#263238"/>
<path d="M89.0022 18.1929C90.7245 18.2001 92.4297 17.8519 94.0114 17.1702C96.4742 15.7718 97.1212 18.5686 95.7645 20.9897C94.8864 22.7489 93.5673 24.2504 91.9358 25.3478C90.3044 26.4452 88.4163 27.1009 86.4559 27.2511C86.4559 26.9172 84.16 20.9897 84.16 20.9897L89.0022 18.1929Z" fill="#263238"/>
<path d="M45.9853 43.3843C44.7957 44.0939 43.1051 41.798 41.6232 40.2536C41.0459 39.594 40.3101 39.0925 39.4851 38.7965C38.6601 38.5005 37.7733 38.4197 36.9084 38.5617C36.0435 38.7038 35.2291 39.064 34.5421 39.6084C33.8552 40.1528 33.3184 40.8633 32.9824 41.6728C30.5405 46.8072 35.0696 53.5904 38.8682 54.7801C45.3592 56.8672 46.3401 52.6929 46.3401 52.6929L46.8411 76.1733C48.2747 79.3237 50.4693 82.0681 53.2274 84.1594C55.9854 86.2508 59.2203 87.6233 62.6408 88.1535C74.1618 89.7189 71.7824 80.2015 68.0047 75.6307V68.4926C70.902 68.9581 73.8415 69.105 76.7707 68.9309C81.5503 68.2004 84.5766 64.4227 86.0168 59.2465C88.3544 50.898 89.2309 44.2191 87.269 27.9394C85.1819 10.0108 64.3105 9.82298 52.9773 16.9193C41.6441 24.0156 45.9853 43.3843 45.9853 43.3843Z" fill="#FFA8A7"/>
<path d="M45.9853 43.3843C44.7957 44.0939 43.1051 41.798 41.6232 40.2536C41.0459 39.594 40.3101 39.0925 39.4851 38.7965C38.6601 38.5005 37.7733 38.4197 36.9084 38.5617C36.0435 38.7038 35.2291 39.064 34.5421 39.6084C33.8552 40.1528 33.3184 40.8633 32.9824 41.6728C30.5405 46.8072 35.0696 53.5904 38.8682 54.7801C45.3592 56.8672 46.3401 52.6929 46.3401 52.6929L46.8411 76.1733C48.2747 79.3237 50.4693 82.0681 53.2274 84.1594C55.9854 86.2508 59.2203 87.6233 62.6408 88.1535C74.1618 89.7189 71.7824 80.2015 68.0047 75.6307V68.4926C70.902 68.9581 73.8415 69.105 76.7707 68.9309C81.5503 68.2004 84.5766 64.4227 86.0168 59.2465C88.3544 50.898 89.2309 44.2191 87.269 27.9394C85.1819 10.0108 64.3105 9.82298 52.9773 16.9193C41.6441 24.0156 45.9853 43.3843 45.9853 43.3843Z" fill="#FFA8A7"/>
<path d="M45.9853 45.3879C45.3801 45.3879 43.1051 41.6102 41.6232 40.2536C39.5361 38.396 42.2285 21.4693 42.2285 21.4693C42.2285 21.4693 40.1414 15.0409 44.2113 10.7831C48.2812 6.52536 56.1289 7.25584 61.8894 7.04713C68.9549 7.06938 75.9505 5.64895 82.4477 2.87284C90.6293 -0.675305 91.2346 -1.09272 92.2573 2.49717C93.28 6.08706 93.6348 14.2895 88.7718 19.7996L84.7019 21.3023C84.7019 21.3023 82.5104 23.2434 74.8923 24.1617C67.862 24.7004 60.7964 24.5676 53.7913 23.7651C51.5789 23.4729 51.0989 25.6018 49.9092 31.4458C48.8656 36.6428 48.0099 45.3462 45.9853 45.3879Z" fill="#263238"/>
<path d="M42.2297 22.7842L35.0291 18.923C35.2596 18.4364 35.5864 18.0015 35.9896 17.6447C36.3929 17.2878 36.8642 17.0164 37.3752 16.8467C37.8863 16.677 38.4264 16.6126 38.963 16.6574C39.4996 16.7021 40.0216 16.8551 40.4974 17.1072C41.4605 17.6494 42.1777 18.5417 42.5003 19.5988C42.8229 20.6559 42.726 21.7966 42.2297 22.7842Z" fill="#263238"/>
<path d="M67.9374 68.3474C67.9374 68.3474 57.2512 66.2602 53.5361 64.1731C51.3358 63.0278 49.532 61.2457 48.36 59.0596C48.9301 61.2459 49.9306 63.2965 51.3029 65.0914C54.037 68.5769 68 71.1442 68 71.1442L67.9374 68.3474Z" fill="#F28F8F"/>
<path d="M65.4168 40.7137C65.3883 41.1191 65.2422 41.5073 64.9962 41.8308C64.7503 42.1543 64.4153 42.399 64.0323 42.5348C63.6493 42.6706 63.235 42.6916 62.8402 42.5953C62.4454 42.4991 62.0873 42.2896 61.8099 41.9927C61.5324 41.6958 61.3477 41.3244 61.2783 40.9241C61.2089 40.5237 61.2578 40.1117 61.4192 39.7388C61.5806 39.3659 61.8473 39.0481 62.1867 38.8246C62.526 38.6011 62.9233 38.4815 63.3296 38.4805C63.6164 38.4798 63.9004 38.5382 64.1636 38.6521C64.4268 38.766 64.6638 38.933 64.8596 39.1425C65.0555 39.3521 65.206 39.5997 65.3019 39.8701C65.3977 40.1404 65.4368 40.4276 65.4168 40.7137Z" fill="#263238"/>
<path d="M63.1406 32.6148L58.5698 35.1612C58.2451 34.5362 58.1701 33.8112 58.36 33.133C58.5499 32.4548 58.9905 31.8742 59.5925 31.5087C59.8948 31.3337 60.2301 31.2233 60.5772 31.1846C60.9244 31.1458 61.2758 31.1794 61.6092 31.2834C61.9427 31.3874 62.2509 31.5594 62.5145 31.7885C62.7781 32.0177 62.9913 32.2991 63.1406 32.6148Z" fill="#263238"/>
<path d="M67.0244 55.4908C67.349 54.9376 67.5552 54.4282 67.9115 54.1876C70.1055 52.7057 71.6414 53.4809 72.0365 55.8748C72.1059 56.2951 72.1043 56.7163 71.9083 57.3275C71.8031 57.6558 71.6322 57.9593 71.4062 58.2197C71.1802 58.48 70.9036 58.6917 70.5933 58.842C70.283 58.9923 69.9454 59.078 69.601 59.0939C69.2566 59.1098 68.9126 59.0556 68.5897 58.9346C67.9319 58.6773 67.4003 58.1735 67.108 57.5305C66.8157 56.8874 66.7857 56.1556 67.0244 55.4908Z" fill="#F28F8F"/>
<path d="M84.4911 34.4091L80.3168 31.1949C80.5117 30.9112 80.7625 30.6704 81.0538 30.4872C81.3452 30.304 81.6709 30.1822 82.011 30.1295C82.3511 30.0767 82.6984 30.094 83.0316 30.1803C83.3647 30.2666 83.6767 30.4201 83.9484 30.6314C84.5091 31.0692 84.8787 31.7069 84.9798 32.411C85.081 33.1152 84.9058 33.8311 84.4911 34.4091Z" fill="#263238"/>
<path d="M83.215 40.0854C83.215 40.639 82.9951 41.1698 82.6037 41.5613C82.2122 41.9527 81.6814 42.1726 81.1278 42.1726C80.5743 42.1726 80.0434 41.9527 79.652 41.5613C79.2606 41.1698 79.0407 40.639 79.0407 40.0854C79.0236 39.801 79.0649 39.516 79.1621 39.2482C79.2593 38.9803 79.4104 38.7352 79.6059 38.528C79.8014 38.3207 80.0373 38.1557 80.2991 38.043C80.5608 37.9304 80.8429 37.8725 81.1278 37.8731C81.4128 37.8725 81.6948 37.9304 81.9566 38.043C82.2183 38.1557 82.4542 38.3207 82.6498 38.528C82.8453 38.7352 82.9963 38.9803 83.0935 39.2482C83.1907 39.516 83.2321 39.801 83.215 40.0854Z" fill="#263238"/>
<path d="M72.3041 38.0615L73.0138 50.9392L79.7344 48.6434L72.3041 38.0615Z" fill="#F28F8F"/>
<path d="M1.0018 157.175C0.146069 153.001 9.35038 112.177 12.982 99.2363L28.9904 118.021L19.1391 158.365C20.9803 169.647 23.6663 180.775 27.1746 191.655C27.8221 193.342 29.0608 194.737 30.6601 195.579C34.8344 197.854 36.7337 200.358 40.0314 203.385C42.6195 205.743 44.7066 206.223 44.4561 207.058C44.0357 207.961 43.2939 208.675 42.3756 209.061C41.4572 209.447 40.428 209.477 39.4887 209.145C37.3849 208.463 35.3677 207.539 33.4778 206.39C35.1428 209.994 37.3767 213.306 40.094 216.2C46.3555 222.837 46.8564 227.136 35.2936 228.013C28.0303 228.577 21.9567 224.486 15.424 208.874C13.5247 204.387 11.2497 197.833 9.39212 191.926C5.17609 177.901 2.96371 166.693 1.0018 157.175Z" fill="#FFA8A7"/>
<path d="M42.5 77.5713C34.3601 80.2428 18.2056 81.6204 12.9878 99.2358C7.76993 116.851 5.161 128.31 5.161 128.31C8.2291 132.484 20.4598 137.138 26.1994 135.385L42.5 77.5713Z" fill="#1B766E"/>
<path d="M26.1955 135.386L31.7891 115.6L26.1955 143.442V135.386Z" fill="#37474F"/>
<path fill-rule="evenodd" clip-rule="evenodd" d="M79.3984 196.184C73.9058 201.177 67.3879 204.91 60.3011 207.12L63.3112 220.125L66.1005 220.5L64.7884 209.479C75.7042 203.071 79.3984 196.184 79.3984 196.184Z" fill="#263238"/>
<path d="M63.3112 220.125L66.1005 220.5L66.2382 221.657L63.613 221.429L63.3112 220.125Z" fill="#263238"/>
<path d="M117.337 95.9809C120.071 90.8882 120.76 90.6586 122.388 89.5524C124.016 88.4462 133.992 86.9435 138.125 86.5887C143.009 86.1713 144.72 87.0687 143.364 91.2639C140.483 100.239 131.676 119.273 129.714 121.903C128.42 123.615 128.148 125.222 122.68 125.764C117.567 126.265 111.138 126.537 109.26 126.641C107.381 126.745 104.752 127.225 106.442 121.674C108.601 115.385 111.103 109.218 113.935 103.202C115.939 98.6315 117.337 95.9809 117.337 95.9809Z" fill="#263238"/>
<path d="M135.955 119.169C138.042 110.173 143.97 101.867 140.589 98.8193L138.773 102.806C138.773 102.806 127.586 105.477 122.076 105.06C116.566 104.642 112.245 103.369 110.763 104.413C107.633 106.625 106.714 116.059 115.71 119.482C123.453 122.279 135.955 119.169 135.955 119.169Z" fill="#F28F8F"/>
</g>
<path d="M1.00961 157.175C0.153882 153.001 9.3582 112.177 12.9898 99.2363L28.9982 118.021L19.1469 158.365C20.9881 169.647 23.6741 180.775 27.1824 191.655C27.8299 193.342 29.0687 194.737 30.6679 195.579C34.8422 197.854 36.7415 200.358 40.0392 203.385C42.6273 205.743 44.7144 206.223 44.464 207.058C44.0435 207.961 43.3017 208.675 42.3834 209.061C41.465 209.447 40.4358 209.477 39.4965 209.145C37.3927 208.463 35.3755 207.539 33.4856 206.39C35.1506 209.994 37.3845 213.306 40.1018 216.2C46.3633 222.837 46.8642 227.136 35.3014 228.013C28.0381 228.577 21.9645 224.486 15.4318 208.874C13.5325 204.387 11.2575 197.833 9.39994 191.926C5.18391 177.901 2.97153 166.693 1.00961 157.175Z" fill="#FFA8A7"/>
<path d="M42.5 77.5713C34.3601 80.2428 18.2056 81.6204 12.9878 99.2358C7.76993 116.851 5.161 128.31 5.161 128.31C8.2291 132.484 20.4598 137.138 26.1994 135.385L42.5 77.5713Z" fill="#1B766E"/>
<defs>
<clipPath id="clip0_2851_24660">
<rect width="142.5" height="224.25" fill="white" transform="matrix(-1 0 0 1 143.656 0)"/>
</clipPath>
</defs>
</svg>
