<svg width="1920" height="708" viewBox="0 0 1920 708" fill="none" xmlns="http://www.w3.org/2000/svg">
<g clip-path="url(#clip0_68_18758)">
<g style="mix-blend-mode:soft-light" opacity="0.5">
<path d="M1920 1080V334.456L1865.67 306.191L1756.96 362.685V509.702L1684.53 472.015V254.759L1630.2 226.53V146.094L1521.5 89.5997L1430.93 136.709V475.303L1358.5 437.616V338.632L1304.13 310.403V65.9528L1177.33 0L1068.66 56.531V357.845L978.097 404.917V216.591L887.53 169.519L815.06 207.169V363.682L742.631 326.143V162.905L670.162 125.255L597.692 162.905V74.8943L525.263 37.2439L362.226 122.003V408.686L307.894 436.914V512.252L253.521 540.48V345.061L144.858 288.567L0 363.904V1080H1920Z" fill="#F0F0F0" fill-opacity="0.5"/>
<path d="M656.086 718.276L640.698 710.258V698.176L656.086 706.194V718.276Z" fill="white"/>
<path d="M656.086 695.996L640.698 687.979V675.896L656.086 683.914V695.996Z" fill="white"/>
<path d="M656.086 672.164L640.698 664.147V652.064L656.086 660.082V672.164Z" fill="white"/>
<path d="M656.086 583.045L640.698 575.027V562.945L656.086 570.963V583.045Z" fill="white"/>
<path d="M656.086 560.765L640.698 552.747V540.665L656.086 548.683V560.765Z" fill="white"/>
<path d="M656.086 605.324L640.698 597.307V585.224L656.086 593.242V605.324Z" fill="white"/>
<path d="M656.086 649.885L640.698 641.867V629.785L656.086 637.803V649.885Z" fill="white"/>
<path d="M656.086 627.605L640.698 619.587V607.505L656.086 615.523V627.605Z" fill="white"/>
<path d="M656.086 538.485L640.698 530.467V518.385L656.086 526.403V538.485Z" fill="white"/>
<path d="M656.086 263.183L640.698 255.202V243.12L656.086 251.101V263.183Z" fill="white"/>
<path d="M656.086 240.904L640.698 232.923V220.841L656.086 228.822V240.904Z" fill="white"/>
<path d="M656.086 218.623L640.698 210.642V198.56L656.086 206.541V218.623Z" fill="white"/>
<path d="M656.086 330.022L640.698 322.041V309.959L656.086 317.94V330.022Z" fill="white"/>
<path d="M656.086 446.152L640.698 438.171V426.089L656.086 434.07V446.152Z" fill="white"/>
<path d="M656.086 422.357L640.698 414.339V402.257L656.086 410.238V422.357Z" fill="white"/>
<path d="M656.086 471.646L640.698 463.628V451.546L656.086 459.564V471.646Z" fill="white"/>
<path d="M656.086 396.863L640.698 388.882V376.8L656.086 384.781V396.863Z" fill="white"/>
<path d="M656.086 493.925L640.698 485.907V473.825L656.086 481.843V493.925Z" fill="white"/>
<path d="M656.086 516.204L640.698 508.187V496.104L656.086 504.122V516.204Z" fill="white"/>
<path d="M656.086 285.463L640.698 277.483V265.4L656.086 273.381V285.463Z" fill="white"/>
<path d="M656.086 307.742L640.698 299.761V287.679L656.086 295.66V307.742Z" fill="white"/>
<path d="M656.086 374.583L640.698 366.602V354.52L656.086 362.501V374.583Z" fill="white"/>
<path d="M656.086 352.303L640.698 344.322V332.24L656.086 340.221V352.303Z" fill="white"/>
<path d="M388.161 278.147L372.772 270.166V258.084L388.161 266.065V278.147Z" fill="white"/>
<path d="M388.161 684.394L372.772 676.413V664.331L388.161 672.312V684.394Z" fill="white"/>
<path d="M388.161 662.115L372.772 654.134V642.052L388.161 650.033V662.115Z" fill="white"/>
<path d="M388.161 639.834L372.772 631.854V619.771L388.161 627.752V639.834Z" fill="white"/>
<path d="M388.161 706.674L372.772 698.693V686.611L388.161 694.592V706.674Z" fill="white"/>
<path d="M388.161 502.978L372.772 494.96V482.878L388.161 490.896V502.978Z" fill="white"/>
<path d="M388.161 550.715L372.772 542.697V530.652L388.161 538.633V550.715Z" fill="white"/>
<path d="M388.161 617.554L372.772 609.573V597.491L388.161 605.472V617.554Z" fill="white"/>
<path d="M388.161 528.436L372.772 520.455V508.373L388.161 516.354V528.436Z" fill="white"/>
<path d="M388.161 572.995L372.772 565.014V552.932L388.161 560.912V572.995Z" fill="white"/>
<path d="M388.161 595.275L372.772 587.257V575.212L388.161 583.193V595.275Z" fill="white"/>
<path d="M388.161 300.427L372.772 292.447V280.364L388.161 288.345V300.427Z" fill="white"/>
<path d="M388.161 166.748L372.772 158.767V146.685L388.161 154.666V166.748Z" fill="white"/>
<path d="M388.161 480.698L372.772 472.68V460.598L388.161 468.616V480.698Z" fill="white"/>
<path d="M388.161 189.028L372.772 181.047V168.965L388.161 176.946V189.028Z" fill="white"/>
<path d="M388.161 233.588L372.772 225.607V213.525L388.161 221.505V233.588Z" fill="white"/>
<path d="M388.161 211.308L372.772 203.327V191.245L388.161 199.226V211.308Z" fill="white"/>
<path d="M388.161 413.415L372.772 405.434V393.352L388.161 401.332V413.415Z" fill="white"/>
<path d="M388.161 391.135L372.772 383.118V371.072L388.161 379.053V391.135Z" fill="white"/>
<path d="M388.161 457.975L372.772 449.994V437.912L388.161 445.893V457.975Z" fill="white"/>
<path d="M388.161 435.695L372.772 427.714V415.632L388.161 423.613V435.695Z" fill="white"/>
<path d="M388.161 255.868L372.772 247.887V235.805L388.161 243.786V255.868Z" fill="white"/>
<path d="M388.161 367.266L372.772 359.285V347.203L388.161 355.184V367.266Z" fill="white"/>
<path d="M388.161 322.707L372.772 314.726V302.644L388.161 310.625V322.707Z" fill="white"/>
<path d="M388.161 344.987L372.772 337.006V324.924L388.161 332.905V344.987Z" fill="white"/>
<path d="M1187.75 210.199L1172.36 202.218V190.099L1187.75 198.117V210.199Z" fill="white"/>
<path d="M1187.75 523.891L1172.36 515.91V503.828L1187.75 511.809V523.891Z" fill="white"/>
<path d="M1187.75 568.451L1172.36 560.47V548.388L1187.75 556.369V568.451Z" fill="white"/>
<path d="M1187.75 635.29L1172.36 627.309V615.227L1187.75 623.208V635.29Z" fill="white"/>
<path d="M1187.75 590.73L1172.36 582.749V570.667L1187.75 578.648V590.73Z" fill="white"/>
<path d="M1187.75 613.01L1172.36 605.029V592.947L1187.75 600.928V613.01Z" fill="white"/>
<path d="M1187.75 546.171L1172.36 538.19V526.108L1187.75 534.089V546.171Z" fill="white"/>
<path d="M1187.75 388.438L1172.36 380.42V368.338L1187.75 376.356V388.438Z" fill="white"/>
<path d="M1187.75 410.718L1172.36 402.737V390.618L1187.75 398.636V410.718Z" fill="white"/>
<path d="M1187.75 432.997L1172.36 425.017V412.935L1187.75 420.915V432.997Z" fill="white"/>
<path d="M1187.75 457.051L1172.36 449.07V436.988L1187.75 444.969V457.051Z" fill="white"/>
<path d="M1187.75 479.332L1172.36 471.351V459.269L1187.75 467.249V479.332Z" fill="white"/>
<path d="M1187.75 501.611L1172.36 493.63V481.548L1187.75 489.529V501.611Z" fill="white"/>
<path d="M1187.75 725.961L1172.36 717.981V705.898L1187.75 713.879V725.961Z" fill="white"/>
<path d="M1187.75 703.681L1172.36 695.7V683.618L1187.75 691.599V703.681Z" fill="white"/>
<path d="M1187.75 681.401L1172.36 673.42V661.338L1187.75 669.319V681.401Z" fill="white"/>
<path d="M1187.75 657.57L1172.36 649.589V637.507L1187.75 645.488V657.57Z" fill="white"/>
<path d="M1187.75 366.158L1172.36 358.14V346.058L1187.75 354.075V366.158Z" fill="white"/>
<path d="M1187.75 143.36L1172.36 135.379V123.26L1187.75 131.277V143.36Z" fill="white"/>
<path d="M1187.75 299.319L1172.36 291.301V279.219L1187.75 287.237V299.319Z" fill="white"/>
<path d="M1187.75 277.039L1172.36 269.021V256.939L1187.75 264.957V277.039Z" fill="white"/>
<path d="M1187.75 343.878L1172.36 335.861V323.778L1187.75 331.796V343.878Z" fill="white"/>
<path d="M1187.75 321.598L1172.36 313.58V301.498L1187.75 309.516V321.598Z" fill="white"/>
<path d="M1187.75 254.758L1172.36 246.777V234.658L1187.75 242.676V254.758Z" fill="white"/>
<path d="M1187.75 187.92L1172.36 179.939V167.82L1187.75 175.838V187.92Z" fill="white"/>
<path d="M1187.75 232.479L1172.36 224.498V212.379L1187.75 220.397V232.479Z" fill="white"/>
<path d="M1187.75 165.639L1172.36 157.621V145.539L1187.75 153.557V165.639Z" fill="white"/>
<path d="M624.201 566.418L608.813 558.438V546.355L624.201 554.336V566.418Z" fill="white"/>
<path d="M624.201 588.698L608.813 580.717V568.635L624.201 576.616V588.698Z" fill="white"/>
<path d="M624.201 633.258L608.813 625.277V613.195L624.201 621.176V633.258Z" fill="white"/>
<path d="M624.201 655.538L608.813 647.557V635.475L624.201 643.455V655.538Z" fill="white"/>
<path d="M624.201 679.37L608.813 671.389V659.307L624.201 667.287V679.37Z" fill="white"/>
<path d="M624.201 499.58L608.813 491.599V479.517L624.201 487.497V499.58Z" fill="white"/>
<path d="M624.201 477.298L608.813 469.317V457.235L624.201 465.216V477.298Z" fill="white"/>
<path d="M624.201 455.019L608.813 447.038V434.956L624.201 442.937V455.019Z" fill="white"/>
<path d="M624.201 521.859L608.813 513.878V501.796L624.201 509.777V521.859Z" fill="white"/>
<path d="M624.201 544.138L608.813 536.157V524.075L624.201 532.056V544.138Z" fill="white"/>
<path d="M624.201 701.65L608.813 693.669V681.587L624.201 689.568V701.65Z" fill="white"/>
<path d="M624.201 723.929L608.813 715.948V703.866L624.201 711.847V723.929Z" fill="white"/>
<path d="M624.201 610.978L608.813 602.997V590.915L624.201 598.896V610.978Z" fill="white"/>
<path d="M624.201 429.562L608.813 421.544V409.499L624.201 417.48V429.562Z" fill="white"/>
<path d="M624.201 335.712L608.813 327.695V315.612L624.201 323.63V335.712Z" fill="white"/>
<path d="M624.201 357.992L608.813 349.975V337.893L624.201 345.91V357.992Z" fill="white"/>
<path d="M624.201 380.272L608.813 372.254V360.172L624.201 368.19V380.272Z" fill="white"/>
<path d="M624.201 405.73L608.813 397.749V385.667L624.201 393.648V405.73Z" fill="white"/>
<path d="M624.201 313.433L608.813 305.415V293.333L624.201 301.351V313.433Z" fill="white"/>
<path d="M624.201 224.314L608.813 216.296V204.214L624.201 212.231V224.314Z" fill="white"/>
<path d="M624.201 246.593L608.813 238.575V226.493L624.201 234.511V246.593Z" fill="white"/>
<path d="M624.201 202.034L608.813 194.016V181.934L624.201 189.952V202.034Z" fill="white"/>
<path d="M624.201 291.153L608.813 283.135V271.053L624.201 279.071V291.153Z" fill="white"/>
<path d="M624.201 268.873L608.813 260.855V248.773L624.201 256.791V268.873Z" fill="white"/>
<path d="M61.39 710.295L46.0015 702.315V690.232L61.39 698.213V710.295Z" fill="white"/>
<path d="M61.39 440.609L46.0015 432.628V420.546L61.39 428.527V440.609Z" fill="white"/>
<path d="M61.39 462.889L46.0015 454.908V442.826L61.39 450.807V462.889Z" fill="white"/>
<path d="M61.39 418.255L46.0015 410.238V398.192L61.39 406.173V418.255Z" fill="white"/>
<path d="M61.39 619.624L46.0015 611.643V599.561L61.39 607.541V619.624Z" fill="white"/>
<path d="M61.39 485.945L46.0015 477.964V465.882L61.39 473.863V485.945Z" fill="white"/>
<path d="M61.39 641.904L46.0015 633.923V621.841L61.39 629.822V641.904Z" fill="white"/>
<path d="M61.39 686.463L46.0015 678.482V666.4L61.39 674.381V686.463Z" fill="white"/>
<path d="M61.39 664.183L46.0015 656.202V644.12L61.39 652.101V664.183Z" fill="white"/>
<path d="M61.39 597.344L46.0015 589.363V577.281L61.39 585.262V597.344Z" fill="white"/>
<path d="M61.39 508.224L46.0015 500.243V488.161L61.39 496.142V508.224Z" fill="white"/>
<path d="M61.39 530.504L46.0015 522.523V510.441L61.39 518.422V530.504Z" fill="white"/>
<path d="M61.39 552.785L46.0015 544.804V532.722L61.39 540.703V552.785Z" fill="white"/>
<path d="M61.39 575.064L46.0015 567.083V555.001L61.39 562.982V575.064Z" fill="white"/>
<path d="M93.275 502.571L77.8865 494.554V482.472L93.275 490.452V502.571Z" fill="white"/>
<path d="M93.275 479.516L77.8865 471.498V459.416L93.275 467.434V479.516Z" fill="white"/>
<path d="M93.275 547.131L77.8865 539.113V527.031L93.275 535.049V547.131Z" fill="white"/>
<path d="M93.275 569.411L77.8865 561.394V549.311L93.275 557.329V569.411Z" fill="white"/>
<path d="M93.275 434.845L77.8865 426.865V414.782L93.275 422.763V434.845Z" fill="white"/>
<path d="M93.275 591.655L77.8865 583.674V571.592L93.275 579.61V591.655Z" fill="white"/>
<path d="M93.275 457.236L77.8865 449.218V437.136L93.275 445.154V457.236Z" fill="white"/>
<path d="M93.275 524.852L77.8865 516.834V504.752L93.275 512.733V524.852Z" fill="white"/>
<path d="M93.275 726.884L77.8865 718.903V706.821L93.275 714.802V726.884Z" fill="white"/>
<path d="M93.275 703.053L77.8865 695.072V682.99L93.275 691.008V703.053Z" fill="white"/>
<path d="M93.275 636.213L77.8865 628.233V616.15L93.275 624.168V636.213Z" fill="white"/>
<path d="M93.275 658.493L77.8865 650.512V638.43L93.275 646.447V658.493Z" fill="white"/>
<path d="M93.275 680.773L77.8865 672.792V660.71L93.275 668.728V680.773Z" fill="white"/>
<path d="M93.275 613.934L77.8865 605.953V593.871L93.275 601.889V613.934Z" fill="white"/>
<path d="M420.046 678.704L404.658 670.723V658.641L420.046 666.621V678.704Z" fill="white"/>
<path d="M420.046 656.425L404.658 648.444V636.362L420.046 644.343V656.425Z" fill="white"/>
<path d="M420.046 700.984L404.658 693.003V680.921L420.046 688.902V700.984Z" fill="white"/>
<path d="M420.046 723.263L404.658 715.283V703.2L420.046 711.181V723.263Z" fill="white"/>
<path d="M420.046 497.288L404.658 489.307V477.225L420.046 485.205V497.288Z" fill="white"/>
<path d="M420.046 611.864L404.658 603.883V591.801L420.046 599.782V611.864Z" fill="white"/>
<path d="M420.046 545.025L404.658 537.044V524.962L420.046 532.943V545.025Z" fill="white"/>
<path d="M420.046 519.568L404.658 511.587V499.505L420.046 507.486V519.568Z" fill="white"/>
<path d="M420.046 567.305L404.658 559.324V547.242L420.046 555.223V567.305Z" fill="white"/>
<path d="M420.046 589.584L404.658 581.604V569.521L420.046 577.502V589.584Z" fill="white"/>
<path d="M420.046 634.145L404.658 626.164V614.082L420.046 622.063V634.145Z" fill="white"/>
<path d="M420.046 205.618L404.658 197.637V185.555L420.046 193.536V205.618Z" fill="white"/>
<path d="M420.046 227.898L404.658 219.917V207.835L420.046 215.815V227.898Z" fill="white"/>
<path d="M420.046 474.565L404.658 466.584V454.502L420.046 462.483V474.565Z" fill="white"/>
<path d="M420.046 407.725L404.658 399.744V387.662L420.046 395.643V407.725Z" fill="white"/>
<path d="M420.046 383.893L404.658 375.875V363.793L420.046 371.774V383.893Z" fill="white"/>
<path d="M420.046 430.005L404.658 422.025V409.942L420.046 417.923V430.005Z" fill="white"/>
<path d="M420.046 361.613L404.658 353.596V341.513L420.046 349.494V361.613Z" fill="white"/>
<path d="M420.046 452.285L404.658 444.304V432.222L420.046 440.203V452.285Z" fill="white"/>
<path d="M420.046 272.457L404.658 264.476V252.394L420.046 260.375V272.457Z" fill="white"/>
<path d="M420.046 250.178L404.658 242.197V230.115L420.046 238.096V250.178Z" fill="white"/>
<path d="M420.046 294.737L404.658 286.756V274.674L420.046 282.655V294.737Z" fill="white"/>
<path d="M420.046 317.053L404.658 309.035V296.953L420.046 304.934V317.053Z" fill="white"/>
<path d="M420.046 339.333L404.658 331.316V319.233L420.046 327.214V339.333Z" fill="white"/>
<path d="M420.046 183.338L404.658 175.357V163.275L420.046 171.256V183.338Z" fill="white"/>
<path d="M29.4641 625.314L14.1166 617.296V605.214L29.4641 613.232V625.314Z" fill="white"/>
<path d="M29.4641 647.594L14.1166 639.576V627.494L29.4641 635.512V647.594Z" fill="white"/>
<path d="M29.4641 715.985L14.1166 707.968V695.886L29.4641 703.903V715.985Z" fill="white"/>
<path d="M29.4641 669.873L14.1166 661.856V649.774L29.4641 657.791V669.873Z" fill="white"/>
<path d="M29.4641 693.705L14.1166 685.688V673.605L29.4641 681.623V693.705Z" fill="white"/>
<path d="M29.4641 603.034L14.1166 595.017V582.935L29.4641 590.952V603.034Z" fill="white"/>
<path d="M29.4641 536.195L14.1166 528.177V516.095L29.4641 524.112V536.195Z" fill="white"/>
<path d="M29.4641 513.914L14.1166 505.897V493.815L29.4641 501.832V513.914Z" fill="white"/>
<path d="M29.4641 491.635L14.1166 483.617V471.535L29.4641 479.553V491.635Z" fill="white"/>
<path d="M29.4641 558.475L14.1166 550.457V538.375L29.4641 546.393V558.475Z" fill="white"/>
<path d="M29.4641 580.754L14.1166 572.736V560.654L29.4641 568.672V580.754Z" fill="white"/>
<path d="M29.4641 401.666L14.1166 393.648V381.566L29.4641 389.547V401.666Z" fill="white"/>
<path d="M29.4641 469.355L14.1166 461.337V449.255L29.4641 457.273V469.355Z" fill="white"/>
<path d="M29.4641 424.019L14.1166 416.001V403.956L29.4641 411.937V424.019Z" fill="white"/>
<path d="M29.4641 446.299L14.1166 438.281V426.236L29.4641 434.217V446.299Z" fill="white"/>
<path d="M1458.47 273.233L1443.08 265.252V253.17L1458.47 261.151V273.233Z" fill="white"/>
<path d="M1458.47 295.513L1443.08 287.532V275.45L1458.47 283.431V295.513Z" fill="white"/>
<path d="M1458.47 250.953L1443.08 242.972V230.89L1458.47 238.871V250.953Z" fill="white"/>
<path d="M1458.47 317.793L1443.08 309.813V297.73L1458.47 305.711V317.793Z" fill="white"/>
<path d="M1458.47 340.073L1443.08 332.092V320.01L1458.47 327.991V340.073Z" fill="white"/>
<path d="M1458.47 362.353L1443.08 354.372V342.29L1458.47 350.271V362.353Z" fill="white"/>
<path d="M1458.47 206.394L1443.08 198.413V186.331L1458.47 194.312V206.394Z" fill="white"/>
<path d="M1458.47 228.673L1443.08 220.692V208.61L1458.47 216.591V228.673Z" fill="white"/>
<path d="M1458.47 540.591L1443.08 532.61V520.528L1458.47 528.509V540.591Z" fill="white"/>
<path d="M1458.47 384.632L1443.08 376.651V364.569L1458.47 372.55V384.632Z" fill="white"/>
<path d="M1458.47 562.871L1443.08 554.89V542.808L1458.47 550.788V562.871Z" fill="white"/>
<path d="M1458.47 585.152L1443.08 577.171V565.089L1458.47 573.07V585.152Z" fill="white"/>
<path d="M1458.47 496.032L1443.08 488.051V475.969L1458.47 483.95V496.032Z" fill="white"/>
<path d="M1458.47 518.311L1443.08 510.33V498.248L1458.47 506.229V518.311Z" fill="white"/>
<path d="M1458.47 406.913L1443.08 398.932V386.85L1458.47 394.83V406.913Z" fill="white"/>
<path d="M1458.47 429.192L1443.08 421.211V409.129L1458.47 417.11V429.192Z" fill="white"/>
<path d="M1458.47 473.751L1443.08 465.771V453.688L1458.47 461.669V473.751Z" fill="white"/>
<path d="M1458.47 451.471L1443.08 443.49V431.408L1458.47 439.389V451.471Z" fill="white"/>
<path d="M1905.19 655.649L1889.8 663.666V651.584L1905.19 643.567V655.649Z" fill="white"/>
<path d="M1905.19 611.088L1889.8 619.106V607.024L1905.19 599.006V611.088Z" fill="white"/>
<path d="M1905.19 633.368L1889.8 641.386V629.304L1905.19 621.286V633.368Z" fill="white"/>
<path d="M1458.47 608.982L1443.08 601.001V588.919L1458.47 596.9V608.982Z" fill="white"/>
<path d="M1905.19 679.481L1889.8 687.498V675.416L1905.19 667.398V679.481Z" fill="white"/>
<path d="M1905.19 566.528L1889.8 574.546V562.464L1905.19 554.446V566.528Z" fill="white"/>
<path d="M1905.19 521.97L1889.8 529.988V517.905L1905.19 509.888V521.97Z" fill="white"/>
<path d="M1905.19 588.809L1889.8 596.827V584.744L1905.19 576.727V588.809Z" fill="white"/>
<path d="M1905.19 544.249L1889.8 552.267V540.185L1905.19 532.167V544.249Z" fill="white"/>
<path d="M1905.19 701.76L1889.8 709.778V697.696L1905.19 689.678V701.76Z" fill="white"/>
<path d="M1905.19 499.689L1889.8 507.707V495.625L1905.19 487.607V499.689Z" fill="white"/>
<path d="M1490.39 423.539L1475 415.522V403.439L1490.39 411.457V423.539Z" fill="white"/>
<path d="M1490.39 401.259L1475 393.241V381.159L1490.39 389.177V401.259Z" fill="white"/>
<path d="M1490.39 445.819L1475 437.801V425.719L1490.39 433.737V445.819Z" fill="white"/>
<path d="M1490.39 468.099L1475 460.081V447.999L1490.39 456.017V468.099Z" fill="white"/>
<path d="M1490.39 490.379L1475 482.361V470.279L1490.39 478.297V490.379Z" fill="white"/>
<path d="M1490.39 289.86L1475 281.842V269.76L1490.39 277.777V289.86Z" fill="white"/>
<path d="M1458.47 631.262L1443.08 623.281V611.199L1458.47 619.18V631.262Z" fill="white"/>
<path d="M1490.39 378.979L1475 370.961V358.879L1490.39 366.897V378.979Z" fill="white"/>
<path d="M1490.39 512.658L1475 504.641V492.559L1490.39 500.576V512.658Z" fill="white"/>
<path d="M1490.39 356.699L1475 348.682V336.6L1490.39 344.617V356.699Z" fill="white"/>
<path d="M1490.39 334.419L1475 326.402V314.319L1490.39 322.337V334.419Z" fill="white"/>
<path d="M1490.39 692.449L1475 684.431V672.349L1490.39 680.367V692.449Z" fill="white"/>
<path d="M1490.39 647.889L1475 639.871V627.789L1490.39 635.807V647.889Z" fill="white"/>
<path d="M1490.39 670.169L1475 662.151V650.069L1490.39 658.087V670.169Z" fill="white"/>
<path d="M1490.39 267.579L1475 259.562V247.48L1490.39 255.497V267.579Z" fill="white"/>
<path d="M1490.39 714.73L1475 706.712V694.63L1490.39 702.648V714.73Z" fill="white"/>
<path d="M1490.39 557.218L1475 549.2V537.118L1490.39 545.136V557.218Z" fill="white"/>
<path d="M1490.39 534.939L1475 526.921V514.839L1490.39 522.856V534.939Z" fill="white"/>
<path d="M1490.39 579.498L1475 571.481V559.398L1490.39 567.416V579.498Z" fill="white"/>
<path d="M1490.39 625.61L1475 617.592V605.51L1490.39 613.528V625.61Z" fill="white"/>
<path d="M1490.39 601.777L1475 593.759V581.677L1490.39 589.695V601.777Z" fill="white"/>
<path d="M1490.39 312.14L1475 304.122V292.04L1490.39 300.058V312.14Z" fill="white"/>
<path d="M1490.39 245.3L1475 237.282V225.2L1490.39 233.218V245.3Z" fill="white"/>
<path d="M1458.47 675.823L1443.08 667.842V655.76L1458.47 663.741V675.823Z" fill="white"/>
<path d="M1458.47 653.542L1443.08 645.561V633.479L1458.47 641.46V653.542Z" fill="white"/>
<path d="M1458.47 698.102L1443.08 690.121V678.039L1458.47 686.02V698.102Z" fill="white"/>
<path d="M1458.47 720.382L1443.08 712.401V700.319L1458.47 708.3V720.382Z" fill="white"/>
<path d="M1490.39 223.02L1475 215.002V202.92L1490.39 210.938V223.02Z" fill="white"/>
<path d="M1841.37 712.696L1825.99 720.677V708.595L1841.37 700.614V712.696Z" fill="white"/>
<path d="M1841.37 688.865L1825.99 696.883V684.801L1841.37 676.783V688.865Z" fill="white"/>
<path d="M1841.37 666.585L1825.99 674.566V662.484L1841.37 654.503V666.585Z" fill="white"/>
<path d="M1841.37 419.732L1825.99 427.713V415.631L1841.37 407.65V419.732Z" fill="white"/>
<path d="M1841.37 397.454L1825.99 405.435V393.353L1841.37 385.372V397.454Z" fill="white"/>
<path d="M1841.37 577.466L1825.99 585.447V573.365L1841.37 565.384V577.466Z" fill="white"/>
<path d="M1841.37 599.745L1825.99 607.726V595.644L1841.37 587.663V599.745Z" fill="white"/>
<path d="M1841.37 555.187L1825.99 563.167V551.085L1841.37 543.104V555.187Z" fill="white"/>
<path d="M1841.37 622.025L1825.99 630.006V617.924L1841.37 609.943V622.025Z" fill="white"/>
<path d="M1841.37 644.305L1825.99 652.286V640.203L1841.37 632.223V644.305Z" fill="white"/>
<path d="M1841.37 510.626L1825.99 518.607V506.525L1841.37 498.544V510.626Z" fill="white"/>
<path d="M1841.37 464.292L1825.99 472.273V460.191L1841.37 452.21V464.292Z" fill="white"/>
<path d="M1841.37 488.346L1825.99 496.327V484.245L1841.37 476.264V488.346Z" fill="white"/>
<path d="M1841.37 442.013L1825.99 449.994V437.911L1841.37 429.931V442.013Z" fill="white"/>
<path d="M1841.37 532.905L1825.99 540.886V528.804L1841.37 520.823V532.905Z" fill="white"/>
<path d="M1873.26 718.387L1857.91 726.368V714.286L1873.26 706.268V718.387Z" fill="white"/>
<path d="M1905.19 408.797L1889.8 416.778V404.696L1905.19 396.715V408.797Z" fill="white"/>
<path d="M1905.19 386.517L1889.8 394.497V382.415L1905.19 374.435V386.517Z" fill="white"/>
<path d="M1905.19 431.076L1889.8 439.057V426.975L1905.19 418.994V431.076Z" fill="white"/>
<path d="M1905.19 455.129L1889.8 463.147V451.065L1905.19 443.047V455.129Z" fill="white"/>
<path d="M1905.19 364.237L1889.8 372.218V360.136L1905.19 352.155V364.237Z" fill="white"/>
<path d="M1873.26 516.316L1857.91 524.297V512.215L1873.26 504.234V516.316Z" fill="white"/>
<path d="M1873.26 494.036L1857.91 502.017V489.935L1873.26 481.917V494.036Z" fill="white"/>
<path d="M1873.26 538.596L1857.91 546.577V534.494L1873.26 526.514V538.596Z" fill="white"/>
<path d="M1873.26 560.876L1857.91 568.857V556.775L1873.26 548.794V560.876Z" fill="white"/>
<path d="M1873.26 471.757L1857.91 479.737V467.655L1873.26 459.637V471.757Z" fill="white"/>
<path d="M1873.26 583.156L1857.91 591.137V579.055L1873.26 571.074V583.156Z" fill="white"/>
<path d="M1873.26 447.666L1857.91 455.684V443.602L1873.26 435.584V447.666Z" fill="white"/>
<path d="M1873.26 380.826L1857.91 388.844V376.762L1873.26 368.744V380.826Z" fill="white"/>
<path d="M1873.26 425.386L1857.91 433.404V421.322L1873.26 413.304V425.386Z" fill="white"/>
<path d="M1873.26 403.107L1857.91 411.125V399.042L1873.26 391.025V403.107Z" fill="white"/>
<path d="M1905.19 477.41L1889.8 485.428V473.346L1905.19 465.328V477.41Z" fill="white"/>
<path d="M1873.26 605.436L1857.91 613.416V601.334L1873.26 593.354V605.436Z" fill="white"/>
<path d="M1873.26 627.716L1857.91 635.697V623.615L1873.26 615.634V627.716Z" fill="white"/>
<path d="M1873.26 696.106L1857.91 704.087V692.005L1873.26 683.987V696.106Z" fill="white"/>
<path d="M1873.26 649.995L1857.91 657.976V645.894L1873.26 637.913V649.995Z" fill="white"/>
<path d="M1873.26 672.275L1857.91 680.256V668.174L1873.26 660.193V672.275Z" fill="white"/>
<path d="M1123.94 535.271L1108.55 527.253V515.171L1123.94 523.152V535.271Z" fill="white"/>
<path d="M1123.94 557.55L1108.55 549.532V537.45L1123.94 545.431V557.55Z" fill="white"/>
<path d="M1123.94 579.83L1108.55 571.813V559.73L1123.94 567.711V579.83Z" fill="white"/>
<path d="M1123.94 624.391L1108.55 616.373V604.291L1123.94 612.309V624.391Z" fill="white"/>
<path d="M1123.94 602.111L1108.55 594.093V582.011L1123.94 589.992V602.111Z" fill="white"/>
<path d="M1123.94 446.152L1108.55 438.134V426.052L1123.94 434.033V446.152Z" fill="white"/>
<path d="M1123.94 648.185L1108.55 640.204V628.122L1123.94 636.103V648.185Z" fill="white"/>
<path d="M1123.94 423.834L1108.55 415.854V403.771L1123.94 411.752V423.834Z" fill="white"/>
<path d="M1123.94 490.711L1108.55 482.693V470.611L1123.94 478.592V490.711Z" fill="white"/>
<path d="M1123.94 468.431L1108.55 460.413V448.331L1123.94 456.312V468.431Z" fill="white"/>
<path d="M1123.94 512.992L1108.55 504.974V492.892L1123.94 500.872V512.992Z" fill="white"/>
<path d="M1123.94 670.465L1108.55 662.484V650.402L1123.94 658.383V670.465Z" fill="white"/>
<path d="M1123.94 399.781L1108.55 391.8V379.718L1123.94 387.699V399.781Z" fill="white"/>
<path d="M1123.94 715.061L1108.55 707.043V694.961L1123.94 702.942V715.061Z" fill="white"/>
<path d="M1123.94 692.782L1108.55 684.764V672.682L1123.94 680.663V692.782Z" fill="white"/>
<path d="M1123.94 110.143L1108.55 102.162V90.0803L1123.94 98.0611V110.143Z" fill="white"/>
<path d="M1123.94 132.423L1108.55 124.442V112.36L1123.94 120.341V132.423Z" fill="white"/>
<path d="M1123.94 377.501L1108.55 369.521V357.438L1123.94 365.419V377.501Z" fill="white"/>
<path d="M1123.94 154.703L1108.55 146.722V134.64L1123.94 142.621V154.703Z" fill="white"/>
<path d="M1123.94 266.102L1108.55 258.121V246.039L1123.94 254.02V266.102Z" fill="white"/>
<path d="M1123.94 288.381L1108.55 280.401V268.319L1123.94 276.299V288.381Z" fill="white"/>
<path d="M1123.94 355.221L1108.55 347.241V335.158L1123.94 343.139V355.221Z" fill="white"/>
<path d="M1123.94 332.941L1108.55 324.96V312.878L1123.94 320.859V332.941Z" fill="white"/>
<path d="M1123.94 310.662L1108.55 302.681V290.599L1123.94 298.579V310.662Z" fill="white"/>
<path d="M1123.94 199.262L1108.55 191.282V179.199L1123.94 187.18V199.262Z" fill="white"/>
<path d="M1123.94 243.822L1108.55 235.841V223.759L1123.94 231.74V243.822Z" fill="white"/>
<path d="M1123.94 176.983L1108.55 169.002V156.92L1123.94 164.901V176.983Z" fill="white"/>
<path d="M1123.94 221.542L1108.55 213.562V201.48L1123.94 209.46V221.542Z" fill="white"/>
<path d="M1155.87 551.86L1140.48 543.842V531.797L1155.87 539.778V551.86Z" fill="white"/>
<path d="M1155.87 529.581L1140.48 521.563V509.518L1155.87 517.498V529.581Z" fill="white"/>
<path d="M1155.87 596.42L1140.48 588.403V576.357L1155.87 584.338V596.42Z" fill="white"/>
<path d="M1155.87 507.3L1140.48 499.282V487.2L1155.87 495.218V507.3Z" fill="white"/>
<path d="M1155.87 440.461L1140.48 432.444V420.361L1155.87 428.379V440.461Z" fill="white"/>
<path d="M1155.87 462.741L1140.48 454.723V442.641L1155.87 450.658V462.741Z" fill="white"/>
<path d="M1155.87 485.021L1140.48 477.04V464.921L1155.87 472.938V485.021Z" fill="white"/>
<path d="M1155.87 640.98L1140.48 632.962V620.917L1155.87 628.898V640.98Z" fill="white"/>
<path d="M1155.87 618.7L1140.48 610.682V598.637L1155.87 606.618V618.7Z" fill="white"/>
<path d="M1155.87 687.091L1140.48 679.073V666.991L1155.87 675.009V687.091Z" fill="white"/>
<path d="M1155.87 709.371L1140.48 701.353V689.271L1155.87 697.289V709.371Z" fill="white"/>
<path d="M1155.87 664.812L1140.48 656.794V644.712L1155.87 652.73V664.812Z" fill="white"/>
<path d="M1155.87 574.14L1140.48 566.122V554.077L1155.87 562.058V574.14Z" fill="white"/>
<path d="M1155.87 149.05L1140.48 141.032V128.95L1155.87 136.931V149.05Z" fill="white"/>
<path d="M1155.87 126.769L1140.48 118.752V106.669L1155.87 114.687V126.769Z" fill="white"/>
<path d="M1155.87 282.729L1140.48 274.711V262.629L1155.87 270.647V282.729Z" fill="white"/>
<path d="M1155.87 305.009L1140.48 296.991V284.909L1155.87 292.927V305.009Z" fill="white"/>
<path d="M1155.87 327.288L1140.48 319.27V307.188L1155.87 315.206V327.288Z" fill="white"/>
<path d="M1155.87 394.128L1140.48 386.11V374.028L1155.87 382.046V394.128Z" fill="white"/>
<path d="M1155.87 371.848L1140.48 363.83V351.748L1155.87 359.766V371.848Z" fill="white"/>
<path d="M1155.87 349.569L1140.48 341.551V329.469L1155.87 337.487V349.569Z" fill="white"/>
<path d="M1155.87 260.413L1140.48 252.432V240.35L1155.87 248.331V260.413Z" fill="white"/>
<path d="M1155.87 193.609L1140.48 185.592V173.509L1155.87 181.49V193.609Z" fill="white"/>
<path d="M1155.87 215.889L1140.48 207.871V195.789L1155.87 203.77V215.889Z" fill="white"/>
<path d="M1155.87 171.329L1140.48 163.311V151.229L1155.87 159.21V171.329Z" fill="white"/>
<path d="M1155.87 238.132L1140.48 230.151V218.069L1155.87 226.05V238.132Z" fill="white"/>
<path d="M1155.87 416.408L1140.48 408.39V396.308L1155.87 404.326V416.408Z" fill="white"/>
<path d="M1522.28 529.248L1506.89 521.267V509.185L1522.28 517.166V529.248Z" fill="white"/>
<path d="M1522.28 551.528L1506.89 543.547V531.465L1522.28 539.446V551.528Z" fill="white"/>
<path d="M1522.28 573.808L1506.89 565.827V553.745L1522.28 561.726V573.808Z" fill="white"/>
<path d="M1522.28 596.087L1506.89 588.107V576.024L1522.28 584.005V596.087Z" fill="white"/>
<path d="M1522.28 618.368L1506.89 610.387V598.305L1522.28 606.286V618.368Z" fill="white"/>
<path d="M1522.28 417.848L1506.89 409.867V397.785L1522.28 405.766V417.848Z" fill="white"/>
<path d="M1522.28 440.129L1506.89 432.148V420.066L1522.28 428.047V440.129Z" fill="white"/>
<path d="M1522.28 642.199L1506.89 634.218V622.136L1522.28 630.117V642.199Z" fill="white"/>
<path d="M1522.28 506.968L1506.89 498.987V486.905L1522.28 494.886V506.968Z" fill="white"/>
<path d="M1522.28 462.409L1506.89 454.428V442.346L1522.28 450.327V462.409Z" fill="white"/>
<path d="M1522.28 664.479L1506.89 656.498V644.416L1522.28 652.397V664.479Z" fill="white"/>
<path d="M1522.28 395.569L1506.89 387.588V375.506L1522.28 383.487V395.569Z" fill="white"/>
<path d="M1522.28 709.039L1506.89 701.059V688.977L1522.28 696.957V709.039Z" fill="white"/>
<path d="M1522.28 686.759L1506.89 678.778V666.696L1522.28 674.677V686.759Z" fill="white"/>
<path d="M1522.28 373.29L1506.89 365.309V353.227L1522.28 361.207V373.29Z" fill="white"/>
<path d="M1522.28 284.17L1506.89 276.189V264.107L1522.28 272.088V284.17Z" fill="white"/>
<path d="M1522.28 306.45L1506.89 298.469V286.387L1522.28 294.368V306.45Z" fill="white"/>
<path d="M1522.28 328.729L1506.89 320.748V308.666L1522.28 316.647V328.729Z" fill="white"/>
<path d="M1522.28 351.01L1506.89 343.029V330.947L1522.28 338.928V351.01Z" fill="white"/>
<path d="M1522.28 261.89L1506.89 253.909V241.827L1522.28 249.808V261.89Z" fill="white"/>
<path d="M1522.28 239.61L1506.89 231.629V219.547L1522.28 227.528V239.61Z" fill="white"/>
<path d="M1458.47 184.409L1443.08 176.391V164.309L1458.47 172.327V184.409Z" fill="white"/>
<path d="M1490.39 200.999L1475 193.018V180.936L1490.39 188.917V200.999Z" fill="white"/>
<path d="M1522.28 217.626L1506.89 209.608V197.526L1522.28 205.507V217.626Z" fill="white"/>
<path d="M1522.28 484.688L1506.89 476.707V464.625L1522.28 472.606V484.688Z" fill="white"/>
<path d="M1092.05 563.204L1076.67 555.223V543.141L1092.05 551.121V563.204Z" fill="white"/>
<path d="M1092.05 518.644L1076.67 510.663V498.581L1092.05 506.562V518.644Z" fill="white"/>
<path d="M1092.05 540.924L1076.67 532.943V520.861L1092.05 528.842V540.924Z" fill="white"/>
<path d="M1092.05 607.763L1076.67 599.783V587.7L1092.05 595.681V607.763Z" fill="white"/>
<path d="M1092.05 407.245L1076.67 399.264V387.182L1092.05 395.162V407.245Z" fill="white"/>
<path d="M1092.05 585.484L1076.67 577.503V565.421L1092.05 573.402V585.484Z" fill="white"/>
<path d="M1092.05 429.524L1076.67 421.543V409.461L1092.05 417.442V429.524Z" fill="white"/>
<path d="M1092.05 496.364L1076.67 488.383V476.301L1092.05 484.282V496.364Z" fill="white"/>
<path d="M1092.05 451.805L1076.67 443.824V431.742L1092.05 439.723V451.805Z" fill="white"/>
<path d="M1092.05 474.084L1076.67 466.104V454.021L1092.05 462.002V474.084Z" fill="white"/>
<path d="M1092.05 676.155L1076.67 668.174V656.092L1092.05 664.073V676.155Z" fill="white"/>
<path d="M1092.05 698.434L1076.67 690.453V678.371L1092.05 686.352V698.434Z" fill="white"/>
<path d="M1092.05 653.875L1076.67 645.894V633.812L1092.05 641.792V653.875Z" fill="white"/>
<path d="M1092.05 720.714L1076.67 712.733V700.651L1092.05 708.632V720.714Z" fill="white"/>
<path d="M1092.05 631.595L1076.67 623.614V611.532L1092.05 619.513V631.595Z" fill="white"/>
<path d="M1092.05 383.192L1076.67 375.174V363.092L1092.05 371.11V383.192Z" fill="white"/>
<path d="M1092.05 138.113L1076.67 130.095V118.013L1092.05 126.031V138.113Z" fill="white"/>
<path d="M1092.05 115.834L1076.67 107.816V95.7338L1092.05 103.752V115.834Z" fill="white"/>
<path d="M1092.05 93.5535L1076.67 85.5358V73.4536L1092.05 81.4714V93.5535Z" fill="white"/>
<path d="M1092.05 316.352L1076.67 308.334V296.252L1092.05 304.27V316.352Z" fill="white"/>
<path d="M1092.05 271.792L1076.67 263.774V251.692L1092.05 259.71V271.792Z" fill="white"/>
<path d="M1092.05 294.072L1076.67 286.054V273.972L1092.05 281.99V294.072Z" fill="white"/>
<path d="M1092.05 338.631L1076.67 330.613V318.531L1092.05 326.549V338.631Z" fill="white"/>
<path d="M1092.05 360.911L1076.67 352.894V340.811L1092.05 348.829V360.911Z" fill="white"/>
<path d="M1092.05 182.673L1076.67 174.655V162.573L1092.05 170.591V182.673Z" fill="white"/>
<path d="M1092.05 160.393L1076.67 152.376V140.294L1092.05 148.311V160.393Z" fill="white"/>
<path d="M1092.05 204.953L1076.67 196.935V184.853L1092.05 192.871V204.953Z" fill="white"/>
<path d="M1092.05 227.232L1076.67 219.214V207.132L1092.05 215.15V227.232Z" fill="white"/>
<path d="M1092.05 249.512L1076.67 241.494V229.412L1092.05 237.43V249.512Z" fill="white"/>
<path d="M535.071 315.983L519.682 323.964V311.881L535.071 303.901V315.983Z" fill="#E6E6E6"/>
<path d="M535.071 293.666L519.682 301.683V289.601L535.071 281.62V293.666Z" fill="#E6E6E6"/>
<path d="M535.071 338.262L519.682 346.243V334.161L535.071 326.18V338.262Z" fill="#E6E6E6"/>
<path d="M535.071 362.832L519.682 370.813V358.731L535.071 350.75V362.832Z" fill="#E6E6E6"/>
<path d="M535.071 385.113L519.682 393.093V381.011L535.071 373.03V385.113Z" fill="#E6E6E6"/>
<path d="M535.071 225.717L519.682 233.735V221.653L535.071 213.635V225.717Z" fill="#E6E6E6"/>
<path d="M535.071 654.243L519.682 662.261V650.179L535.071 642.161V654.243Z" fill="#E6E6E6"/>
<path d="M535.071 181.158L519.682 189.176V177.094L535.071 169.076V181.158Z" fill="#E6E6E6"/>
<path d="M535.071 203.438L519.682 211.456V199.374L535.071 191.356V203.438Z" fill="#E6E6E6"/>
<path d="M535.071 407.393L519.682 415.374V403.291L535.071 395.311V407.393Z" fill="#E6E6E6"/>
<path d="M535.071 247.997L519.682 256.015V243.933L535.071 235.915V247.997Z" fill="#E6E6E6"/>
<path d="M535.071 631.965L519.682 639.983V627.901L535.071 619.883V631.965Z" fill="#E6E6E6"/>
<path d="M503.185 693.151L487.797 701.132V689.05L503.185 681.069V693.151Z" fill="#E6E6E6"/>
<path d="M535.071 542.845L519.682 550.863V538.781L535.071 530.763V542.845Z" fill="#E6E6E6"/>
<path d="M535.071 565.125L519.682 573.143V561.061L535.071 553.043V565.125Z" fill="#E6E6E6"/>
<path d="M535.071 609.685L519.682 617.702V605.62L535.071 597.603V609.685Z" fill="#E6E6E6"/>
<path d="M535.071 429.673L519.682 437.654V425.571L535.071 417.591V429.673Z" fill="#E6E6E6"/>
<path d="M535.071 158.878L519.682 166.896V154.814L535.071 146.796V158.878Z" fill="#E6E6E6"/>
<path d="M535.071 451.952L519.682 459.933V447.851L535.071 439.87V451.952Z" fill="#E6E6E6"/>
<path d="M535.071 474.232L519.682 482.213V470.131L535.071 462.15V474.232Z" fill="#E6E6E6"/>
<path d="M535.071 498.285L519.682 506.303V494.184L535.071 486.203V498.285Z" fill="#E6E6E6"/>
<path d="M535.071 520.566L519.682 528.583V516.501L535.071 508.483V520.566Z" fill="#E6E6E6"/>
<path d="M535.071 271.2L519.682 279.181V267.099L535.071 259.081V271.2Z" fill="#E6E6E6"/>
<path d="M503.185 715.431L487.797 723.412V711.329L503.185 703.349V715.431Z" fill="#E6E6E6"/>
<path d="M535.071 136.598L519.682 144.616V132.534L535.071 124.516V136.598Z" fill="#E6E6E6"/>
<path d="M535.071 587.405L519.682 595.423V583.341L535.071 575.323V587.405Z" fill="#E6E6E6"/>
<path d="M566.956 277.076L551.567 285.094V273.012L566.956 264.994V277.076Z" fill="#E6E6E6"/>
<path d="M566.956 299.356L551.567 307.374V295.292L566.956 287.274V299.356Z" fill="#E6E6E6"/>
<path d="M566.956 321.635L551.567 329.653V317.571L566.956 309.553V321.635Z" fill="#E6E6E6"/>
<path d="M566.956 390.766L551.567 398.783V386.701L566.956 378.684V390.766Z" fill="#E6E6E6"/>
<path d="M566.956 346.206L551.567 354.224V342.142L566.956 334.124V346.206Z" fill="#E6E6E6"/>
<path d="M566.956 164.568L551.567 172.549V160.467L566.956 152.486V164.568Z" fill="#E6E6E6"/>
<path d="M566.956 209.128L551.567 217.109V205.027L566.956 197.046V209.128Z" fill="#E6E6E6"/>
<path d="M566.956 186.848L551.567 194.829V182.747L566.956 174.766V186.848Z" fill="#E6E6E6"/>
<path d="M566.956 231.407L551.567 239.388V227.306L566.956 219.325V231.407Z" fill="#E6E6E6"/>
<path d="M566.956 254.574L551.567 262.555V250.473L566.956 242.492V254.574Z" fill="#E6E6E6"/>
<path d="M566.956 368.486L551.567 376.504V364.422L566.956 356.404V368.486Z" fill="#E6E6E6"/>
<path d="M566.956 570.815L551.567 578.796V566.714L566.956 558.733V570.815Z" fill="#E6E6E6"/>
<path d="M566.956 526.255L551.567 534.236V522.154L566.956 514.173V526.255Z" fill="#E6E6E6"/>
<path d="M566.956 548.536L551.567 556.517V544.435L566.956 536.454V548.536Z" fill="#E6E6E6"/>
<path d="M566.956 593.095L551.567 601.076V588.993L566.956 581.013V593.095Z" fill="#E6E6E6"/>
<path d="M566.956 413.046L551.567 421.064V408.982L566.956 400.964V413.046Z" fill="#E6E6E6"/>
<path d="M566.956 615.375L551.567 623.356V611.274L566.956 603.293V615.375Z" fill="#E6E6E6"/>
<path d="M566.956 457.605L551.567 465.622V453.54L566.956 445.522V457.605Z" fill="#E6E6E6"/>
<path d="M566.956 435.325L551.567 443.343V431.261L566.956 423.243V435.325Z" fill="#E6E6E6"/>
<path d="M566.956 503.976L551.567 511.957V499.874L566.956 491.894V503.976Z" fill="#E6E6E6"/>
<path d="M566.956 481.696L551.567 489.676V477.594L566.956 469.613V481.696Z" fill="#E6E6E6"/>
<path d="M535.071 698.805L519.682 706.823V694.74L535.071 686.723V698.805Z" fill="#E6E6E6"/>
<path d="M566.956 120.008L551.567 127.989V115.907L566.956 107.926V120.008Z" fill="#E6E6E6"/>
<path d="M535.071 676.523L519.682 684.541V672.459L535.071 664.441V676.523Z" fill="#E6E6E6"/>
<path d="M566.956 142.288L551.567 150.269V138.187L566.956 130.206V142.288Z" fill="#E6E6E6"/>
<path d="M471.259 371.442L455.912 379.46V367.378L471.259 359.36V371.442Z" fill="#E6E6E6"/>
<path d="M471.259 396.049L455.912 404.03V391.948L471.259 383.967V396.049Z" fill="#E6E6E6"/>
<path d="M471.259 418.329L455.912 426.31V414.228L471.259 406.247V418.329Z" fill="#E6E6E6"/>
<path d="M471.259 440.608L455.912 448.589V436.507L471.259 428.526V440.608Z" fill="#E6E6E6"/>
<path d="M471.259 349.161L455.912 357.179V345.097L471.259 337.079V349.161Z" fill="#E6E6E6"/>
<path d="M471.259 281.214L455.912 289.195V277.113L471.259 269.132V281.214Z" fill="#E6E6E6"/>
<path d="M471.259 326.882L455.912 334.9V322.818L471.259 314.8V326.882Z" fill="#E6E6E6"/>
<path d="M471.259 462.889L455.912 470.869V458.787L471.259 450.807V462.889Z" fill="#E6E6E6"/>
<path d="M471.259 258.934L455.912 266.915V254.833L471.259 246.852V258.934Z" fill="#E6E6E6"/>
<path d="M471.259 304.381L455.912 312.399V300.317L471.259 292.299V304.381Z" fill="#E6E6E6"/>
<path d="M471.259 236.655L455.912 244.636V232.554L471.259 224.573V236.655Z" fill="#E6E6E6"/>
<path d="M471.259 485.169L455.912 493.15V481.068L471.259 473.087V485.169Z" fill="#E6E6E6"/>
<path d="M471.259 620.621L455.912 628.602V616.52L471.259 608.539V620.621Z" fill="#E6E6E6"/>
<path d="M471.259 687.461L455.912 695.442V683.36L471.259 675.379V687.461Z" fill="#E6E6E6"/>
<path d="M471.259 598.342L455.912 606.323V594.241L471.259 586.26V598.342Z" fill="#E6E6E6"/>
<path d="M471.259 665.182L455.912 673.163V661.08L471.259 653.1V665.182Z" fill="#E6E6E6"/>
<path d="M471.259 642.901L455.912 650.882V638.8L471.259 630.819V642.901Z" fill="#E6E6E6"/>
<path d="M471.259 576.062L455.912 584.043V571.96L471.259 563.98V576.062Z" fill="#E6E6E6"/>
<path d="M471.259 507.448L455.912 515.429V503.347L471.259 495.366V507.448Z" fill="#E6E6E6"/>
<path d="M471.259 531.502L455.912 539.483V527.401L471.259 519.42V531.502Z" fill="#E6E6E6"/>
<path d="M471.259 553.782L455.912 561.763V549.681L471.259 541.7V553.782Z" fill="#E6E6E6"/>
<path d="M471.259 214.374L455.912 222.355V210.273L471.259 202.292V214.374Z" fill="#E6E6E6"/>
<path d="M964.104 719.717L948.715 727.698V715.616L964.104 707.635V719.717Z" fill="#E6E6E6"/>
<path d="M471.259 709.74L455.912 717.721V705.639L471.259 697.658V709.74Z" fill="#E6E6E6"/>
<path d="M503.185 670.871L487.797 678.852V666.77L503.185 658.789V670.871Z" fill="#E6E6E6"/>
<path d="M471.259 169.815L455.912 177.796V165.714L471.259 157.733V169.815Z" fill="#E6E6E6"/>
<path d="M471.259 192.095L455.912 200.075V187.993L471.259 180.013V192.095Z" fill="#E6E6E6"/>
<path d="M503.185 354.852L487.797 362.833V350.75L503.185 342.77V354.852Z" fill="#E6E6E6"/>
<path d="M503.185 332.572L487.797 340.553V328.471L503.185 320.49V332.572Z" fill="#E6E6E6"/>
<path d="M503.185 401.702L487.797 409.72V397.638L503.185 389.62V401.702Z" fill="#E6E6E6"/>
<path d="M503.185 379.423L487.797 387.441V375.359L503.185 367.341V379.423Z" fill="#E6E6E6"/>
<path d="M503.185 423.982L487.797 432V419.918L503.185 411.9V423.982Z" fill="#E6E6E6"/>
<path d="M503.185 310.292L487.797 318.273V306.191L503.185 298.21V310.292Z" fill="#E6E6E6"/>
<path d="M503.185 220.064L487.797 228.045V215.963L503.185 207.982V220.064Z" fill="#E6E6E6"/>
<path d="M503.185 242.344L487.797 250.325V238.243L503.185 230.225V242.344Z" fill="#E6E6E6"/>
<path d="M503.185 287.79L487.797 295.771V283.689L503.185 275.708V287.79Z" fill="#E6E6E6"/>
<path d="M503.185 264.624L487.797 272.604V260.522L503.185 252.542V264.624Z" fill="#E6E6E6"/>
<path d="M503.185 537.155L487.797 545.172V533.09L503.185 525.109V537.155Z" fill="#E6E6E6"/>
<path d="M503.185 446.262L487.797 454.28V442.198L503.185 434.18V446.262Z" fill="#E6E6E6"/>
<path d="M503.185 581.714L487.797 589.732V577.65L503.185 569.669V581.714Z" fill="#E6E6E6"/>
<path d="M503.185 626.311L487.797 634.292V622.21L503.185 614.229V626.311Z" fill="#E6E6E6"/>
<path d="M503.185 559.435L487.797 567.453V555.371L503.185 547.39V559.435Z" fill="#E6E6E6"/>
<path d="M503.185 648.591L487.797 656.572V644.49L503.185 636.509V648.591Z" fill="#E6E6E6"/>
<path d="M503.185 603.994L487.797 612.012V599.93L503.185 591.949V603.994Z" fill="#E6E6E6"/>
<path d="M503.185 490.821L487.797 498.839V486.757L503.185 478.739V490.821Z" fill="#E6E6E6"/>
<path d="M964.104 697.437L948.715 705.417V693.335L964.104 685.354V697.437Z" fill="#E6E6E6"/>
<path d="M503.185 197.785L487.797 205.766V193.684L503.185 185.703V197.785Z" fill="#E6E6E6"/>
<path d="M503.185 468.542L487.797 476.56V464.478L503.185 456.46V468.542Z" fill="#E6E6E6"/>
<path d="M503.185 175.505L487.797 183.485V171.403L503.185 163.422V175.505Z" fill="#E6E6E6"/>
<path d="M503.185 153.188L487.797 161.206V149.124L503.185 141.143V153.188Z" fill="#E6E6E6"/>
<path d="M566.956 637.655L551.567 645.635V633.553L566.956 625.572V637.655Z" fill="#E6E6E6"/>
<path d="M503.185 514.913L487.797 522.894V510.812L503.185 502.831V514.913Z" fill="#E6E6E6"/>
<path d="M203.909 639.576L188.52 647.594V635.512L203.909 627.494V639.576Z" fill="#E6E6E6"/>
<path d="M203.909 661.856L188.52 669.873V657.791L203.909 649.774V661.856Z" fill="#E6E6E6"/>
<path d="M203.909 685.688L188.52 693.705V681.623L203.909 673.605V685.688Z" fill="#E6E6E6"/>
<path d="M203.909 707.968L188.52 715.985V703.903L203.909 695.886V707.968Z" fill="#E6E6E6"/>
<path d="M203.909 528.177L188.52 536.195V524.112L203.909 516.095V528.177Z" fill="#E6E6E6"/>
<path d="M203.909 550.457L188.52 558.475V546.393L203.909 538.375V550.457Z" fill="#E6E6E6"/>
<path d="M203.909 572.736L188.52 580.754V568.672L203.909 560.654V572.736Z" fill="#E6E6E6"/>
<path d="M203.909 595.017L188.52 603.034V590.952L203.909 582.935V595.017Z" fill="#E6E6E6"/>
<path d="M203.909 617.296L188.52 625.314V613.232L203.909 605.214V617.296Z" fill="#E6E6E6"/>
<path d="M203.909 505.897L188.52 513.914V501.832L203.909 493.815V505.897Z" fill="#E6E6E6"/>
<path d="M566.956 659.935L551.567 667.915V655.833L566.956 647.853V659.935Z" fill="#E6E6E6"/>
<path d="M203.909 413.71L188.52 421.728V409.646L203.909 401.665V413.71Z" fill="#E6E6E6"/>
<path d="M203.909 393.648L188.52 401.666V389.547L203.909 381.566V393.648Z" fill="#E6E6E6"/>
<path d="M203.909 483.617L188.52 491.635V479.553L203.909 471.535V483.617Z" fill="#E6E6E6"/>
<path d="M203.909 461.337L188.52 469.355V457.273L203.909 449.255V461.337Z" fill="#E6E6E6"/>
<path d="M203.909 435.99L188.52 444.008V431.926L203.909 423.945V435.99Z" fill="#E6E6E6"/>
<path d="M235.794 713.657L220.405 721.638V709.556L235.794 701.575V713.657Z" fill="#E6E6E6"/>
<path d="M235.794 669.098L220.405 677.079V664.997L235.794 657.016V669.098Z" fill="#E6E6E6"/>
<path d="M235.794 691.377L220.405 699.358V687.276L235.794 679.295V691.377Z" fill="#E6E6E6"/>
<path d="M235.794 645.266L220.405 653.247V641.164L235.794 633.184V645.266Z" fill="#E6E6E6"/>
<path d="M235.794 377.058L220.405 385.038V372.956L235.794 364.976V377.058Z" fill="#E6E6E6"/>
<path d="M235.794 622.986L220.405 630.967V618.885L235.794 610.904V622.986Z" fill="#E6E6E6"/>
<path d="M235.794 533.866L220.405 541.847V529.765L235.794 521.784V533.866Z" fill="#E6E6E6"/>
<path d="M235.794 556.147L220.405 564.127V552.045L235.794 544.064V556.147Z" fill="#E6E6E6"/>
<path d="M235.794 578.427L220.405 586.408V574.326L235.794 566.345V578.427Z" fill="#E6E6E6"/>
<path d="M235.794 511.587L220.405 519.568V507.486L235.794 499.505V511.587Z" fill="#E6E6E6"/>
<path d="M235.794 600.707L220.405 608.688V596.606L235.794 588.625V600.707Z" fill="#E6E6E6"/>
<path d="M235.794 467.027L220.405 475.008V462.926L235.794 454.945V467.027Z" fill="#E6E6E6"/>
<path d="M235.794 489.307L220.405 497.288V485.205L235.794 477.225V489.307Z" fill="#E6E6E6"/>
<path d="M235.794 444.747L220.405 452.728V440.646L235.794 432.665V444.747Z" fill="#E6E6E6"/>
<path d="M235.794 419.401L220.405 427.419V415.337L235.794 407.319V419.401Z" fill="#E6E6E6"/>
<path d="M235.794 397.121L220.405 405.139V393.057L235.794 385.039V397.121Z" fill="#E6E6E6"/>
<path d="M140.098 561.394L124.709 569.411V557.329L140.098 549.311V561.394Z" fill="#E6E6E6"/>
<path d="M140.098 446.928L124.709 454.946V442.863L140.098 434.846V446.928Z" fill="#E6E6E6"/>
<path d="M140.098 469.207L124.709 477.225V465.143L140.098 457.125V469.207Z" fill="#E6E6E6"/>
<path d="M140.098 516.834L124.709 524.852V512.733L140.098 504.752V516.834Z" fill="#E6E6E6"/>
<path d="M140.098 539.113L124.709 547.131V535.049L140.098 527.031V539.113Z" fill="#E6E6E6"/>
<path d="M140.098 494.554L124.709 502.571V490.452L140.098 482.472V494.554Z" fill="#E6E6E6"/>
<path d="M140.098 426.865L124.709 434.845V422.763L140.098 414.782V426.865Z" fill="#E6E6E6"/>
<path d="M140.098 718.903L124.709 726.884V714.802L140.098 706.821V718.903Z" fill="#E6E6E6"/>
<path d="M140.098 695.072L124.709 703.053V691.008L140.098 682.99V695.072Z" fill="#E6E6E6"/>
<path d="M140.098 605.953L124.709 613.934V601.889L140.098 593.871V605.953Z" fill="#E6E6E6"/>
<path d="M140.098 583.674L124.709 591.655V579.61L140.098 571.592V583.674Z" fill="#E6E6E6"/>
<path d="M140.098 628.233L124.709 636.213V624.168L140.098 616.15V628.233Z" fill="#E6E6E6"/>
<path d="M140.098 672.792L124.709 680.773V668.728L140.098 660.71V672.792Z" fill="#E6E6E6"/>
<path d="M140.098 650.512L124.709 658.493V646.447L140.098 638.43V650.512Z" fill="#E6E6E6"/>
<path d="M566.956 706.046L551.567 714.027V701.945L566.956 693.964V706.046Z" fill="#E6E6E6"/>
<path d="M566.956 682.214L551.567 690.195V678.113L566.956 670.132V682.214Z" fill="#E6E6E6"/>
<path d="M171.983 544.804L156.594 552.785V540.703L171.983 532.722V544.804Z" fill="#E6E6E6"/>
<path d="M171.983 567.083L156.594 575.064V562.982L171.983 555.001V567.083Z" fill="#E6E6E6"/>
<path d="M171.983 611.643L156.594 619.624V607.541L171.983 599.561V611.643Z" fill="#E6E6E6"/>
<path d="M171.983 522.523L156.594 530.504V518.422L171.983 510.441V522.523Z" fill="#E6E6E6"/>
<path d="M171.983 589.363L156.594 597.344V585.262L171.983 577.281V589.363Z" fill="#E6E6E6"/>
<path d="M171.983 430.337L156.594 438.318V426.236L171.983 418.255V430.337Z" fill="#E6E6E6"/>
<path d="M171.983 633.923L156.594 641.904V629.822L171.983 621.841V633.923Z" fill="#E6E6E6"/>
<path d="M171.983 452.617L156.594 460.598V448.516L171.983 440.535V452.617Z" fill="#E6E6E6"/>
<path d="M171.983 500.243L156.594 508.224V496.142L171.983 488.161V500.243Z" fill="#E6E6E6"/>
<path d="M171.983 477.964L156.594 485.945V473.863L171.983 465.882V477.964Z" fill="#E6E6E6"/>
<path d="M171.983 656.202L156.594 664.183V652.101L171.983 644.12V656.202Z" fill="#E6E6E6"/>
<path d="M171.983 678.482L156.594 686.463V674.381L171.983 666.4V678.482Z" fill="#E6E6E6"/>
<path d="M171.983 702.315L156.594 710.295V698.213L171.983 690.232V702.315Z" fill="#E6E6E6"/>
<path d="M171.983 410.238L156.594 418.255V406.173L171.983 398.192V410.238Z" fill="#E6E6E6"/>
<path d="M1604.72 215.002L1589.37 223.02V210.938L1604.72 202.92V215.002Z" fill="#E6E6E6"/>
<path d="M1604.72 237.282L1589.37 245.3V233.218L1604.72 225.2V237.282Z" fill="#E6E6E6"/>
<path d="M1604.72 415.522L1589.37 423.539V411.457L1604.72 403.439V415.522Z" fill="#E6E6E6"/>
<path d="M1604.72 393.241L1589.37 401.259V389.177L1604.72 381.159V393.241Z" fill="#E6E6E6"/>
<path d="M1604.72 437.801L1589.37 445.819V433.737L1604.72 425.719V437.801Z" fill="#E6E6E6"/>
<path d="M1604.72 370.961L1589.37 378.979V366.897L1604.72 358.879V370.961Z" fill="#E6E6E6"/>
<path d="M1604.72 460.081L1589.37 468.099V456.017L1604.72 447.999V460.081Z" fill="#E6E6E6"/>
<path d="M1604.72 348.682L1589.37 356.699V344.617L1604.72 336.6V348.682Z" fill="#E6E6E6"/>
<path d="M1604.72 281.842L1589.37 289.86V277.777L1604.72 269.76V281.842Z" fill="#E6E6E6"/>
<path d="M1604.72 259.562L1589.37 267.579V255.497L1604.72 247.48V259.562Z" fill="#E6E6E6"/>
<path d="M1604.72 304.122L1589.37 312.14V300.058L1604.72 292.04V304.122Z" fill="#E6E6E6"/>
<path d="M1604.72 326.402L1589.37 334.419V322.337L1604.72 314.319V326.402Z" fill="#E6E6E6"/>
<path d="M1572.83 521.267L1557.45 529.248V517.166L1572.83 509.185V521.267Z" fill="#E6E6E6"/>
<path d="M1572.83 543.547L1557.45 551.528V539.446L1572.83 531.465V543.547Z" fill="#E6E6E6"/>
<path d="M1572.83 565.827L1557.45 573.808V561.726L1572.83 553.745V565.827Z" fill="#E6E6E6"/>
<path d="M1604.72 482.361L1589.37 490.379V478.297L1604.72 470.279V482.361Z" fill="#E6E6E6"/>
<path d="M1572.83 588.107L1557.45 596.087V584.005L1572.83 576.024V588.107Z" fill="#E6E6E6"/>
<path d="M1572.83 634.218L1557.45 642.199V630.117L1572.83 622.136V634.218Z" fill="#E6E6E6"/>
<path d="M1572.83 498.987L1557.45 506.968V494.886L1572.83 486.905V498.987Z" fill="#E6E6E6"/>
<path d="M1572.83 432.148L1557.45 440.129V428.047L1572.83 420.066V432.148Z" fill="#E6E6E6"/>
<path d="M1572.83 454.428L1557.45 462.409V450.327L1572.83 442.346V454.428Z" fill="#E6E6E6"/>
<path d="M1572.83 476.707L1557.45 484.688V472.606L1572.83 464.625V476.707Z" fill="#E6E6E6"/>
<path d="M1572.83 610.387L1557.45 618.368V606.286L1572.83 598.305V610.387Z" fill="#E6E6E6"/>
<path d="M1572.83 656.498L1557.45 664.479V652.397L1572.83 644.416V656.498Z" fill="#E6E6E6"/>
<path d="M1572.83 701.059L1557.45 709.039V696.957L1572.83 688.977V701.059Z" fill="#E6E6E6"/>
<path d="M1572.83 678.778L1557.45 686.759V674.677L1572.83 666.696V678.778Z" fill="#E6E6E6"/>
<path d="M1224.64 421.728L1209.25 429.746V417.664L1224.64 409.646V421.728Z" fill="#E6E6E6"/>
<path d="M1224.64 176.65L1209.25 184.668V172.586L1224.64 164.568V176.65Z" fill="#E6E6E6"/>
<path d="M1224.64 154.37L1209.25 162.388V150.306L1224.64 142.288V154.37Z" fill="#E6E6E6"/>
<path d="M1224.64 198.93L1209.25 206.947V194.865L1224.64 186.847V198.93Z" fill="#E6E6E6"/>
<path d="M1224.64 243.49L1209.25 251.508V239.425L1224.64 231.408V243.49Z" fill="#E6E6E6"/>
<path d="M1224.64 221.21L1209.25 229.228V217.146L1224.64 209.128V221.21Z" fill="#E6E6E6"/>
<path d="M1224.64 132.091L1209.25 140.108V128.026L1224.64 120.009V132.091Z" fill="#E6E6E6"/>
<path d="M1224.64 399.448L1209.25 407.466V395.384L1224.64 387.366V399.448Z" fill="#E6E6E6"/>
<path d="M1572.83 409.867L1557.45 417.848V405.766L1572.83 397.785V409.867Z" fill="#E6E6E6"/>
<path d="M1224.64 468.099L1209.25 476.08V463.997L1224.64 456.017V468.099Z" fill="#E6E6E6"/>
<path d="M1604.72 504.641L1589.37 512.658V500.576L1604.72 492.559V504.641Z" fill="#E6E6E6"/>
<path d="M1224.64 265.769L1209.25 273.787V261.705L1224.64 253.687V265.769Z" fill="#E6E6E6"/>
<path d="M1224.64 445.819L1209.25 453.799V441.717L1224.64 433.736V445.819Z" fill="#E6E6E6"/>
<path d="M1224.64 354.889L1209.25 362.907V350.824L1224.64 342.807V354.889Z" fill="#E6E6E6"/>
<path d="M1224.64 310.329L1209.25 318.347V306.265L1224.64 298.247V310.329Z" fill="#E6E6E6"/>
<path d="M1224.64 288.049L1209.25 296.067V283.985L1224.64 275.967V288.049Z" fill="#E6E6E6"/>
<path d="M1224.64 332.608L1209.25 340.626V328.544L1224.64 320.526V332.608Z" fill="#E6E6E6"/>
<path d="M1224.64 377.168L1209.25 385.186V373.104L1224.64 365.086V377.168Z" fill="#E6E6E6"/>
<path d="M1604.72 617.592L1589.37 625.61V613.528L1604.72 605.51V617.592Z" fill="#E6E6E6"/>
<path d="M1604.72 662.151L1589.37 670.169V658.087L1604.72 650.069V662.151Z" fill="#E6E6E6"/>
<path d="M1604.72 639.871L1589.37 647.889V635.807L1604.72 627.789V639.871Z" fill="#E6E6E6"/>
<path d="M1604.72 684.431L1589.37 692.449V680.367L1604.72 672.349V684.431Z" fill="#E6E6E6"/>
<path d="M1604.72 706.712L1589.37 714.73V702.648L1604.72 694.63V706.712Z" fill="#E6E6E6"/>
<path d="M1604.72 593.759L1589.37 601.777V589.695L1604.72 581.677V593.759Z" fill="#E6E6E6"/>
<path d="M1604.72 526.921L1589.37 534.939V522.856L1604.72 514.839V526.921Z" fill="#E6E6E6"/>
<path d="M1604.72 549.2L1589.37 557.218V545.136L1604.72 537.118V549.2Z" fill="#E6E6E6"/>
<path d="M1604.72 571.481L1589.37 579.498V567.416L1604.72 559.398V571.481Z" fill="#E6E6E6"/>
<path d="M1775.22 707.82L1759.84 699.802V687.72L1775.22 695.737V707.82Z" fill="#E6E6E6"/>
<path d="M1775.22 414.857L1759.84 406.839V394.757L1775.22 402.775V414.857Z" fill="#E6E6E6"/>
<path d="M1775.22 437.136L1759.84 429.118V417.036L1775.22 425.054V437.136Z" fill="#E6E6E6"/>
<path d="M1775.22 392.575L1759.84 384.558V372.476L1775.22 380.493V392.575Z" fill="#E6E6E6"/>
<path d="M1775.22 528.03L1759.84 520.049V507.93L1775.22 515.947V528.03Z" fill="#E6E6E6"/>
<path d="M1775.22 617.148L1759.84 609.167V597.085L1775.22 605.066V617.148Z" fill="#E6E6E6"/>
<path d="M1775.22 594.869L1759.84 586.888V574.806L1775.22 582.787V594.869Z" fill="#E6E6E6"/>
<path d="M1775.22 661.708L1759.84 653.727V641.645L1775.22 649.626V661.708Z" fill="#E6E6E6"/>
<path d="M1775.22 572.588L1759.84 564.608V552.526L1775.22 560.506V572.588Z" fill="#E6E6E6"/>
<path d="M1775.22 639.428L1759.84 631.448V619.365L1775.22 627.346V639.428Z" fill="#E6E6E6"/>
<path d="M1775.22 483.469L1759.84 475.451V463.369L1775.22 471.387V483.469Z" fill="#E6E6E6"/>
<path d="M1775.22 505.748L1759.84 497.731V485.649L1775.22 493.666V505.748Z" fill="#E6E6E6"/>
<path d="M1775.22 459.415L1759.84 451.398V439.315L1775.22 447.333V459.415Z" fill="#E6E6E6"/>
<path d="M1775.22 683.988L1759.84 676.007V663.925L1775.22 671.906V683.988Z" fill="#E6E6E6"/>
<path d="M1775.22 550.309L1759.84 542.328V530.246L1775.22 538.227V550.309Z" fill="#E6E6E6"/>
<path d="M1807.11 633.738L1791.72 625.757V613.675L1807.11 621.656V633.738Z" fill="#E6E6E6"/>
<path d="M1224.64 490.379L1209.25 498.36V486.278L1224.64 478.297V490.379Z" fill="#E6E6E6"/>
<path d="M1572.83 365.309L1557.45 373.29V361.207L1572.83 353.227V365.309Z" fill="#E6E6E6"/>
<path d="M1572.83 320.748L1557.45 328.729V316.647L1572.83 308.666V320.748Z" fill="#E6E6E6"/>
<path d="M1572.83 343.029L1557.45 351.01V338.928L1572.83 330.947V343.029Z" fill="#E6E6E6"/>
<path d="M1572.83 276.189L1557.45 284.17V272.088L1572.83 264.107V276.189Z" fill="#E6E6E6"/>
<path d="M1572.83 298.469L1557.45 306.45V294.368L1572.83 286.387V298.469Z" fill="#E6E6E6"/>
<path d="M1572.83 253.909L1557.45 261.89V249.808L1572.83 241.827V253.909Z" fill="#E6E6E6"/>
<path d="M1572.83 231.629L1557.45 239.61V227.528L1572.83 219.547V231.629Z" fill="#E6E6E6"/>
<path d="M1604.72 193.018L1589.37 200.999V188.917L1604.72 180.936V193.018Z" fill="#E6E6E6"/>
<path d="M1572.83 209.608L1557.45 217.626V205.544L1572.83 197.526V209.608Z" fill="#E6E6E6"/>
<path d="M1807.11 476.006L1791.72 468.025V455.943L1807.11 463.923V476.006Z" fill="#E6E6E6"/>
<path d="M1807.11 500.059L1791.72 492.078V479.996L1807.11 487.977V500.059Z" fill="#E6E6E6"/>
<path d="M1807.11 522.338L1791.72 514.357V502.275L1807.11 510.256V522.338Z" fill="#E6E6E6"/>
<path d="M1807.11 566.899L1791.72 558.918V546.836L1807.11 554.817V566.899Z" fill="#E6E6E6"/>
<path d="M1807.11 544.619L1791.72 536.638V524.556L1807.11 532.537V544.619Z" fill="#E6E6E6"/>
<path d="M1807.11 589.178L1791.72 581.197V569.115L1807.11 577.096V589.178Z" fill="#E6E6E6"/>
<path d="M1807.11 409.167L1791.72 401.186V389.104L1807.11 397.084V409.167Z" fill="#E6E6E6"/>
<path d="M1807.11 453.726L1791.72 445.745V433.663L1807.11 441.644V453.726Z" fill="#E6E6E6"/>
<path d="M1807.11 431.446L1791.72 423.465V411.383L1807.11 419.364V431.446Z" fill="#E6E6E6"/>
<path d="M1807.11 700.578L1791.72 692.597V680.515L1807.11 688.496V700.578Z" fill="#E6E6E6"/>
<path d="M1807.11 724.409L1791.72 716.428V704.346L1807.11 712.327V724.409Z" fill="#E6E6E6"/>
<path d="M1807.11 611.457L1791.72 603.477V591.395L1807.11 599.375V611.457Z" fill="#E6E6E6"/>
<path d="M1572.83 387.588L1557.45 395.569V383.487L1572.83 375.506V387.588Z" fill="#E6E6E6"/>
<path d="M1807.11 656.018L1791.72 648.037V635.955L1807.11 643.936V656.018Z" fill="#E6E6E6"/>
<path d="M1807.11 678.298L1791.72 670.317V658.235L1807.11 666.216V678.298Z" fill="#E6E6E6"/>
<path d="M964.104 539.926L948.715 547.907V535.825L964.104 527.844V539.926Z" fill="#E6E6E6"/>
<path d="M932.178 265.326L916.789 273.344V261.225L932.178 253.244V265.326Z" fill="#E6E6E6"/>
<path d="M932.178 311.438L916.789 319.419V307.336L932.178 299.356V311.438Z" fill="#E6E6E6"/>
<path d="M932.178 289.157L916.789 297.138V285.056L932.178 277.075V289.157Z" fill="#E6E6E6"/>
<path d="M932.178 467.397L916.789 475.377V463.295L932.178 455.314V467.397Z" fill="#E6E6E6"/>
<path d="M932.178 489.676L916.789 497.657V485.612L932.178 477.594V489.676Z" fill="#E6E6E6"/>
<path d="M932.178 445.117L916.789 453.098V441.016L932.178 433.035V445.117Z" fill="#E6E6E6"/>
<path d="M932.178 534.237L916.789 542.217V530.172L932.178 522.154V534.237Z" fill="#E6E6E6"/>
<path d="M932.178 333.718L916.789 341.699V329.617L932.178 321.636V333.718Z" fill="#E6E6E6"/>
<path d="M1224.64 512.659L1209.25 520.639V508.557L1224.64 500.576V512.659Z" fill="#E6E6E6"/>
<path d="M932.178 355.997L916.789 363.978V351.896L932.178 343.915V355.997Z" fill="#E6E6E6"/>
<path d="M932.178 378.277L916.789 386.258V374.176L932.178 366.195V378.277Z" fill="#E6E6E6"/>
<path d="M932.178 400.557L916.789 408.538V396.455L932.178 388.475V400.557Z" fill="#E6E6E6"/>
<path d="M932.178 422.836L916.789 430.854V418.735L932.178 410.754V422.836Z" fill="#E6E6E6"/>
<path d="M1288.45 659.233L1273.07 667.213V655.131L1288.45 647.15V659.233Z" fill="#E6E6E6"/>
<path d="M1288.45 568.562L1273.07 576.542V564.46L1288.45 556.479V568.562Z" fill="#E6E6E6"/>
<path d="M1288.45 590.841L1273.07 598.822V586.74L1288.45 578.759V590.841Z" fill="#E6E6E6"/>
<path d="M1288.45 613.12L1273.07 621.101V609.019L1288.45 601.038V613.12Z" fill="#E6E6E6"/>
<path d="M1288.45 636.952L1273.07 644.933V632.851L1288.45 624.87V636.952Z" fill="#E6E6E6"/>
<path d="M1288.45 434.883L1273.07 442.864V430.782L1288.45 422.801V434.883Z" fill="#E6E6E6"/>
<path d="M1288.45 546.281L1273.07 554.262V542.18L1288.45 534.199V546.281Z" fill="#E6E6E6"/>
<path d="M1288.45 479.442L1273.07 487.423V475.34L1288.45 467.36V479.442Z" fill="#E6E6E6"/>
<path d="M1288.45 501.722L1273.07 509.703V497.621L1288.45 489.64V501.722Z" fill="#E6E6E6"/>
<path d="M1288.45 524.001L1273.07 531.982V519.9L1288.45 511.919V524.001Z" fill="#E6E6E6"/>
<path d="M1288.45 457.162L1273.07 465.143V453.061L1288.45 445.08V457.162Z" fill="#E6E6E6"/>
<path d="M1288.45 703.792L1273.07 711.773V699.691L1288.45 691.71V703.792Z" fill="#E6E6E6"/>
<path d="M1288.45 681.512L1273.07 689.493V677.41L1288.45 669.43V681.512Z" fill="#E6E6E6"/>
<path d="M932.178 556.516L916.789 564.497V552.451L932.178 544.434V556.516Z" fill="#E6E6E6"/>
<path d="M964.104 339.407L948.715 347.388V335.306L964.104 327.325V339.407Z" fill="#E6E6E6"/>
<path d="M964.104 428.527L948.715 436.508V424.426L964.104 416.445V428.527Z" fill="#E6E6E6"/>
<path d="M964.104 361.687L948.715 369.668V357.586L964.104 349.605V361.687Z" fill="#E6E6E6"/>
<path d="M964.104 406.248L948.715 414.229V402.147L964.104 394.166V406.248Z" fill="#E6E6E6"/>
<path d="M964.104 383.967L948.715 391.948V379.866L964.104 371.885V383.967Z" fill="#E6E6E6"/>
<path d="M964.104 317.128L948.715 325.109V313.027L964.104 305.046V317.128Z" fill="#E6E6E6"/>
<path d="M964.104 248.736L948.715 256.717V244.635L964.104 236.654V248.736Z" fill="#E6E6E6"/>
<path d="M964.104 272.568L948.715 280.549V268.467L964.104 260.486V272.568Z" fill="#E6E6E6"/>
<path d="M964.104 294.848L948.715 302.829V290.747L964.104 282.766V294.848Z" fill="#E6E6E6"/>
<path d="M964.104 562.206L948.715 570.187V558.105L964.104 550.124V562.206Z" fill="#E6E6E6"/>
<path d="M964.104 450.807L948.715 458.788V446.705L964.104 438.725V450.807Z" fill="#E6E6E6"/>
<path d="M964.104 606.766L948.715 614.747V602.664L964.104 594.684V606.766Z" fill="#E6E6E6"/>
<path d="M964.104 630.598L948.715 638.579V626.496L964.104 618.516V630.598Z" fill="#E6E6E6"/>
<path d="M964.104 652.877L948.715 660.858V648.776L964.104 640.795V652.877Z" fill="#E6E6E6"/>
<path d="M964.104 584.485L948.715 592.466V580.384L964.104 572.403V584.485Z" fill="#E6E6E6"/>
<path d="M964.104 675.157L948.715 683.138V671.056L964.104 663.075V675.157Z" fill="#E6E6E6"/>
<path d="M964.104 495.366L948.715 503.347V491.265L964.104 483.284V495.366Z" fill="#E6E6E6"/>
<path d="M964.104 473.087L948.715 481.068V468.986L964.104 461.005V473.087Z" fill="#E6E6E6"/>
<path d="M964.104 517.647L948.715 525.627V513.545L964.104 505.564V517.647Z" fill="#E6E6E6"/>
<path d="M932.178 714.027L916.789 722.007V709.925L932.178 701.944V714.027Z" fill="#E6E6E6"/>
<path d="M932.178 691.746L916.789 699.727V687.645L932.178 679.664V691.746Z" fill="#E6E6E6"/>
<path d="M932.178 601.076L916.789 609.057V597.012L932.178 588.994V601.076Z" fill="#E6E6E6"/>
<path d="M932.178 623.356L916.789 631.336V619.291L932.178 611.273V623.356Z" fill="#E6E6E6"/>
<path d="M932.178 647.187L916.789 655.167V643.085L932.178 635.104V647.187Z" fill="#E6E6E6"/>
<path d="M932.178 669.467L916.789 677.448V665.366L932.178 657.385V669.467Z" fill="#E6E6E6"/>
<path d="M932.178 578.796L916.789 586.777V574.732L932.178 566.714V578.796Z" fill="#E6E6E6"/>
<path d="M932.178 511.956L916.789 519.937V507.892L932.178 499.874V511.956Z" fill="#E6E6E6"/>
<path d="M1256.53 204.62L1241.14 212.6V200.518L1256.53 192.537V204.62Z" fill="#E6E6E6"/>
<path d="M1256.53 115.5L1241.14 123.481V111.399L1256.53 103.418V115.5Z" fill="#E6E6E6"/>
<path d="M1256.53 137.781L1241.14 145.761V133.679L1256.53 125.699V137.781Z" fill="#E6E6E6"/>
<path d="M1256.53 182.34L1241.14 190.321V178.239L1256.53 170.258V182.34Z" fill="#E6E6E6"/>
<path d="M1256.53 160.06L1241.14 168.041V155.959L1256.53 147.978V160.06Z" fill="#E6E6E6"/>
<path d="M1256.53 338.299L1241.14 346.28V334.198L1256.53 326.217V338.299Z" fill="#E6E6E6"/>
<path d="M1256.53 382.858L1241.14 390.839V378.757L1256.53 370.776V382.858Z" fill="#E6E6E6"/>
<path d="M1256.53 360.579L1241.14 368.56V356.478L1256.53 348.497V360.579Z" fill="#E6E6E6"/>
<path d="M1256.53 429.191L1241.14 437.209V425.127L1256.53 417.109V429.191Z" fill="#E6E6E6"/>
<path d="M1256.53 405.139L1241.14 413.12V401.038L1256.53 393.057V405.139Z" fill="#E6E6E6"/>
<path d="M1256.53 271.46L1241.14 279.44V267.358L1256.53 259.377V271.46Z" fill="#E6E6E6"/>
<path d="M1256.53 249.18L1241.14 257.161V245.079L1256.53 237.098V249.18Z" fill="#E6E6E6"/>
<path d="M1256.53 226.9L1241.14 234.881V222.799L1256.53 214.818V226.9Z" fill="#E6E6E6"/>
<path d="M1256.53 293.74L1241.14 301.72V289.638L1256.53 281.658V293.74Z" fill="#E6E6E6"/>
<path d="M1256.53 316.02L1241.14 324.001V311.918L1256.53 303.938V316.02Z" fill="#E6E6E6"/>
<path d="M1224.64 692.449L1209.25 700.43V688.348L1224.64 680.367V692.449Z" fill="#E6E6E6"/>
<path d="M1224.64 624.058L1209.25 632.039V619.956L1224.64 611.976V624.058Z" fill="#E6E6E6"/>
<path d="M1224.64 646.337L1209.25 654.318V642.236L1224.64 634.255V646.337Z" fill="#E6E6E6"/>
<path d="M1256.53 451.473L1241.14 459.491V447.408L1256.53 439.391V451.473Z" fill="#E6E6E6"/>
<path d="M1224.64 714.729L1209.25 722.709V710.627L1224.64 702.646V714.729Z" fill="#E6E6E6"/>
<path d="M1224.64 670.169L1209.25 678.15V666.068L1224.64 658.087V670.169Z" fill="#E6E6E6"/>
<path d="M1224.64 534.939L1209.25 542.919V530.837L1224.64 522.857V534.939Z" fill="#E6E6E6"/>
<path d="M1224.64 601.778L1209.25 609.759V597.677L1224.64 589.696V601.778Z" fill="#E6E6E6"/>
<path d="M1224.64 557.218L1209.25 565.199V553.117L1224.64 545.136V557.218Z" fill="#E6E6E6"/>
<path d="M1224.64 579.498L1209.25 587.479V575.397L1224.64 567.416V579.498Z" fill="#E6E6E6"/>
<path d="M1256.53 562.871L1241.14 570.889V558.807L1256.53 550.789V562.871Z" fill="#E6E6E6"/>
<path d="M1288.45 98.8738L1273.07 106.892V94.8095L1288.45 86.7917V98.8738Z" fill="#E6E6E6"/>
<path d="M1288.45 121.154L1273.07 129.171V117.089L1288.45 109.108V121.154Z" fill="#E6E6E6"/>
<path d="M1288.45 143.434L1273.07 151.451V139.369L1288.45 131.389V143.434Z" fill="#E6E6E6"/>
<path d="M1288.45 165.713L1273.07 173.731V161.649L1288.45 153.668V165.713Z" fill="#E6E6E6"/>
<path d="M1288.45 321.709L1273.07 329.69V317.608L1288.45 309.627V321.709Z" fill="#E6E6E6"/>
<path d="M1288.45 299.43L1273.07 307.41V295.328L1288.45 287.311V299.43Z" fill="#E6E6E6"/>
<path d="M1288.45 343.988L1273.07 351.969V339.887L1288.45 331.906V343.988Z" fill="#E6E6E6"/>
<path d="M1288.45 388.549L1273.07 396.53V384.447L1288.45 376.467V388.549Z" fill="#E6E6E6"/>
<path d="M1288.45 366.269L1273.07 374.249V362.167L1288.45 354.187V366.269Z" fill="#E6E6E6"/>
<path d="M1288.45 188.03L1273.07 196.011V183.929L1288.45 175.948V188.03Z" fill="#E6E6E6"/>
<path d="M1288.45 210.31L1273.07 218.29V206.208L1288.45 198.228V210.31Z" fill="#E6E6E6"/>
<path d="M1288.45 232.59L1273.07 240.571V228.488L1288.45 220.508V232.59Z" fill="#E6E6E6"/>
<path d="M1288.45 254.87L1273.07 262.851V250.769L1288.45 242.751V254.87Z" fill="#E6E6E6"/>
<path d="M1288.45 277.15L1273.07 285.131V273.049L1288.45 265.031V277.15Z" fill="#E6E6E6"/>
<path d="M1256.53 540.591L1241.14 548.609V536.527L1256.53 528.509V540.591Z" fill="#E6E6E6"/>
<path d="M1256.53 607.431L1241.14 615.448V603.366L1256.53 595.348V607.431Z" fill="#E6E6E6"/>
<path d="M1256.53 698.102L1241.14 706.119V694.037L1256.53 686.02V698.102Z" fill="#E6E6E6"/>
<path d="M1256.53 653.543L1241.14 661.561V649.479L1256.53 641.461V653.543Z" fill="#E6E6E6"/>
<path d="M1256.53 585.15L1241.14 593.168V581.086L1256.53 573.068V585.15Z" fill="#E6E6E6"/>
<path d="M1256.53 675.822L1241.14 683.84V671.758L1256.53 663.74V675.822Z" fill="#E6E6E6"/>
<path d="M1256.53 629.711L1241.14 637.729V625.647L1256.53 617.629V629.711Z" fill="#E6E6E6"/>
<path d="M1256.53 496.031L1241.14 504.049V491.967L1256.53 483.949V496.031Z" fill="#E6E6E6"/>
<path d="M1288.45 412.603L1273.07 420.583V408.501L1288.45 400.521V412.603Z" fill="#E6E6E6"/>
<path d="M1256.53 518.311L1241.14 526.328V514.246L1256.53 506.229V518.311Z" fill="#E6E6E6"/>
<path d="M1256.53 473.752L1241.14 481.77V469.688L1256.53 461.67V473.752Z" fill="#E6E6E6"/>
<path d="M1757 362.612L1865.67 306.118L1920 334.384L1811.34 390.878L1757 362.612Z" fill="#FAFAFA"/>
<path d="M1430.89 136.709L1521.54 89.6365L1630.24 146.131L1539.59 193.203L1430.89 136.709Z" fill="#FAFAFA"/>
<path d="M1630.2 226.531V282.988L1684.53 254.759L1630.2 226.531Z" fill="#FAFAFA"/>
<path d="M1068.66 56.4941L1177.33 0.000106812L1304.13 65.9529L1195.47 122.41L1068.66 56.4941Z" fill="#FAFAFA"/>
<path d="M362.226 122.003L525.263 37.244L597.692 74.9313L434.655 159.654L362.226 122.003Z" fill="#FAFAFA"/>
<path d="M0 363.904L144.817 288.567L253.604 345.097L108.787 420.472L0 363.904Z" fill="#FAFAFA"/>
<path d="M815.06 207.17L887.53 169.519L978.138 216.591L905.668 254.279L815.06 207.17Z" fill="#FAFAFA"/>
<path d="M597.692 162.906L670.162 125.219L742.632 162.906L670.162 200.556L597.692 162.906Z" fill="#FAFAFA"/>
<path d="M1304.17 310.403V366.86L1358.5 338.632L1304.17 310.403Z" fill="#FAFAFA"/>
<path d="M362.226 465.106V408.649L307.894 436.877L362.226 465.106Z" fill="#FAFAFA"/>
</g>
</g>
<defs>
<clipPath id="clip0_68_18758">
<rect width="1920" height="708" fill="white"/>
</clipPath>
</defs>
</svg>
