<svg width="24" height="24" viewBox="0 0 24 24" fill="none" xmlns="http://www.w3.org/2000/svg">
<path d="M3 20C3 20.2652 3.10536 20.5196 3.29289 20.7071C3.48043 20.8946 3.73478 21 4 21H5C5.26522 21 5.51957 20.8946 5.70711 20.7071C5.89464 20.5196 6 20.2652 6 20V19H3V20Z" fill="#1F9B90"/>
<path d="M18 19V20C18 20.2652 18.1054 20.5196 18.2929 20.7071C18.4804 20.8946 18.7348 21 19 21H20C20.2652 21 20.5196 20.8946 20.7071 20.7071C20.8946 20.5196 21 20.2652 21 20V19H18Z" fill="#1F9B90"/>
<path fill-rule="evenodd" clip-rule="evenodd" d="M6.5 6.5L5 11H19L18.5 9.5H20.1333L21 12V19H18H6H3V12L5.08 6C5.28 5.42 5.84 5 6.5 5H15V6.5H6.5ZM16.4393 15.5607C16.7206 15.842 17.1022 16 17.5 16C17.8978 16 18.2794 15.842 18.5607 15.5607C18.842 15.2794 19 14.8978 19 14.5C19 14.1022 18.842 13.7206 18.5607 13.4393C18.2794 13.158 17.8978 13 17.5 13C17.1022 13 16.7206 13.158 16.4393 13.4393C16.158 13.7206 16 14.1022 16 14.5C16 14.8978 16.158 15.2794 16.4393 15.5607ZM5.43934 15.5607C5.72064 15.842 6.10218 16 6.5 16C6.89782 16 7.27936 15.842 7.56066 15.5607C7.84196 15.2794 8 14.8978 8 14.5C8 14.1022 7.84196 13.7206 7.56066 13.4393C7.27936 13.158 6.89782 13 6.5 13C6.10218 13 5.72064 13.158 5.43934 13.4393C5.15804 13.7206 5 14.1022 5 14.5C5 14.8978 5.15804 15.2794 5.43934 15.5607Z" fill="#333333"/>
<path d="M19.0003 9.16634C18.035 8.92329 17.2381 8.3694 16.6095 7.50467C15.9809 6.63995 15.6667 5.67995 15.667 4.62467V2.08301L19.0003 0.833008L22.3337 2.08301V4.62467C22.3337 5.68023 22.0195 6.64037 21.3912 7.50509C20.7628 8.36981 19.9659 8.92356 19.0003 9.16634Z" fill="#1F9B90"/>
</svg>
