<svg width="24" height="24" viewBox="0 0 24 24" fill="none" xmlns="http://www.w3.org/2000/svg">
<path d="M6 13.75V15.25L8.84 15.26V13.75H6Z" fill="#1F9B90"/>
<path fill-rule="evenodd" clip-rule="evenodd" d="M17.42 10L13.41 6L12.59 8L14.59 10H6.5C4 10 2 12 2 14.5C2 17 4 19 6.5 19C8.72 19 10.56 17.38 10.92 15.27L13.04 14C13 14.17 13 14.33 13 14.5C13 17 15 19 17.5 19C20 19 22 17 22 14.5C22 12 20 10 17.5 10H17.42ZM8.84 15.26C8.5 16.27 7.58 17 6.47 17C5.80696 17 5.17107 16.7366 4.70223 16.2678C4.23339 15.7989 3.97 15.163 3.97 14.5C3.97 13.837 4.23339 13.2011 4.70223 12.7322C5.17107 12.2634 5.80696 12 6.47 12C7.59 12 8.5 12.74 8.84 13.75V15.26ZM17.47 17C16.807 17 16.1711 16.7366 15.7022 16.2678C15.2334 15.7989 14.97 15.163 14.97 14.5C14.97 13.837 15.2334 13.2011 15.7022 12.7322C16.1711 12.2634 16.807 12 17.47 12C18.133 12 18.7689 12.2634 19.2378 12.7322C19.7066 13.2011 19.97 13.837 19.97 14.5C19.97 15.163 19.7066 15.7989 19.2378 16.2678C18.7689 16.7366 18.133 17 17.47 17Z" fill="#333333"/>
<path d="M13.41 6H9V8H12.59L13.41 6Z" fill="#1F9B90"/>
</svg>
