<svg width="24" height="24" viewBox="0 0 24 24" fill="none" xmlns="http://www.w3.org/2000/svg">
<path d="M20.9992 17.0785L3.04307 6.99996L7.5605 3.01966L20.9992 17.0785Z" fill="#1F9B90"/>
<path d="M17.7295 11.9996L21.7095 8.03957C22.0995 7.64957 22.0995 6.99957 21.7095 6.62957L17.3695 2.28957C16.9995 1.89957 16.3495 1.89957 15.9595 2.28957L11.9995 6.26957L7.99953 2.28957C7.81217 2.10332 7.55872 1.99878 7.29453 1.99878C7.03035 1.99878 6.77689 2.10332 6.58953 2.28957L2.24953 6.62957C1.85953 6.99957 1.85953 7.64957 2.24953 8.03957L6.22953 11.9996L2.24953 15.9996C1.85953 16.3896 1.85953 16.9996 2.24953 17.4096L6.58953 21.7496C6.99953 22.1396 7.60953 22.1396 7.99953 21.7496L11.9995 17.7696L15.9595 21.7496C16.1595 21.9496 16.4095 22.0396 16.6695 22.0396C16.9295 22.0396 17.1795 21.9396 17.3795 21.7496L21.7195 17.4096C22.1095 16.9996 22.1095 16.3896 21.7195 15.9996L17.7295 11.9996ZM11.9995 8.99957C12.2647 8.99957 12.5191 9.10493 12.7066 9.29246C12.8942 9.48 12.9995 9.73435 12.9995 9.99957C12.9995 10.2648 12.8942 10.5191 12.7066 10.7067C12.5191 10.8942 12.2647 10.9996 11.9995 10.9996C11.7343 10.9996 11.48 10.8942 11.2924 10.7067C11.1049 10.5191 10.9995 10.2648 10.9995 9.99957C10.9995 9.73435 11.1049 9.48 11.2924 9.29246C11.48 9.10493 11.7343 8.99957 11.9995 8.99957ZM7.28953 10.9596L3.65953 7.33957L7.28953 3.70957L10.9095 7.32957L7.28953 10.9596ZM9.99953 12.9996C9.73431 12.9996 9.47996 12.8942 9.29242 12.7067C9.10489 12.5191 8.99953 12.2648 8.99953 11.9996C8.99953 11.7344 9.10489 11.48 9.29242 11.2925C9.47996 11.1049 9.73431 10.9996 9.99953 10.9996C10.2647 10.9996 10.5191 11.1049 10.7066 11.2925C10.8942 11.48 10.9995 11.7344 10.9995 11.9996C10.9995 12.2648 10.8942 12.5191 10.7066 12.7067C10.5191 12.8942 10.2647 12.9996 9.99953 12.9996ZM11.9995 14.9996C11.7343 14.9996 11.48 14.8942 11.2924 14.7067C11.1049 14.5191 10.9995 14.2648 10.9995 13.9996C10.9995 13.7344 11.1049 13.48 11.2924 13.2925C11.48 13.1049 11.7343 12.9996 11.9995 12.9996C12.2647 12.9996 12.5191 13.1049 12.7066 13.2925C12.8942 13.48 12.9995 13.7344 12.9995 13.9996C12.9995 14.2648 12.8942 14.5191 12.7066 14.7067C12.5191 14.8942 12.2647 14.9996 11.9995 14.9996ZM13.9995 10.9996C14.2647 10.9996 14.5191 11.1049 14.7066 11.2925C14.8942 11.48 14.9995 11.7344 14.9995 11.9996C14.9995 12.2648 14.8942 12.5191 14.7066 12.7067C14.5191 12.8942 14.2647 12.9996 13.9995 12.9996C13.7343 12.9996 13.48 12.8942 13.2924 12.7067C13.1049 12.5191 12.9995 12.2648 12.9995 11.9996C12.9995 11.7344 13.1049 11.48 13.2924 11.2925C13.48 11.1049 13.7343 10.9996 13.9995 10.9996ZM16.6595 20.3396L13.0295 16.7196L16.6595 13.0896L20.2795 16.7096L16.6595 20.3396Z" fill="#333333"/>
</svg>
