<svg width="24" height="24" viewBox="0 0 24 24" fill="none" xmlns="http://www.w3.org/2000/svg">
<path d="M3 20C3 20.2652 3.10536 20.5196 3.29289 20.7071C3.48043 20.8946 3.73478 21 4 21H5C5.26522 21 5.51957 20.8946 5.70711 20.7071C5.89464 20.5196 6 20.2652 6 20V19H3V20Z" fill="#1F9B90"/>
<path d="M18 19V20C18 20.2652 18.1054 20.5196 18.2929 20.7071C18.4804 20.8946 18.7348 21 19 21H20C20.2652 21 20.5196 20.8946 20.7071 20.7071C20.8946 20.5196 21 20.2652 21 20V19H18Z" fill="#1F9B90"/>
<path fill-rule="evenodd" clip-rule="evenodd" d="M5 11L6.5 6.5H15C15 6 15 5.5 15 5H6.5C5.84 5 5.28 5.42 5.08 6L3 12V19H6H18H21V12L20 10H19V11H5ZM17.5 16C17.1022 16 16.7206 15.842 16.4393 15.5607C16.158 15.2794 16 14.8978 16 14.5C16 14.1022 16.158 13.7206 16.4393 13.4393C16.7206 13.158 17.1022 13 17.5 13C17.8978 13 18.2794 13.158 18.5607 13.4393C18.842 13.7206 19 14.1022 19 14.5C19 14.8978 18.842 15.2794 18.5607 15.5607C18.2794 15.842 17.8978 16 17.5 16ZM6.5 16C6.10218 16 5.72064 15.842 5.43934 15.5607C5.15804 15.2794 5 14.8978 5 14.5C5 14.1022 5.15804 13.7206 5.43934 13.4393C5.72064 13.158 6.10218 13 6.5 13C6.89782 13 7.27936 13.158 7.56066 13.4393C7.84196 13.7206 8 14.1022 8 14.5C8 14.8978 7.84196 15.2794 7.56066 15.5607C7.27936 15.842 6.89782 16 6.5 16Z" fill="#333333"/>
<path d="M16.5003 0.833008C16.0378 0.833008 15.667 1.20384 15.667 1.66634V8.33301C15.667 8.55402 15.7548 8.76598 15.9111 8.92226C16.0674 9.07854 16.2793 9.16634 16.5003 9.16634H18.167V8.37051L19.0378 7.49967H16.5003V6.66634H19.8712L20.7045 5.83301H16.5003V4.99967H21.5378L22.3337 4.20384V3.33301L19.8337 0.833008H16.5003ZM19.417 1.45801L21.7087 3.74967H19.417V1.45801ZM22.3962 5.41634C22.3653 5.41567 22.3347 5.42122 22.306 5.43268C22.2774 5.44413 22.2514 5.46125 22.2295 5.48301L21.8045 5.90801L22.6753 6.77467L23.1003 6.35384C23.1878 6.26217 23.1878 6.11217 23.1003 6.02467L22.5587 5.48301C22.5374 5.46157 22.5121 5.44462 22.4842 5.43316C22.4563 5.42171 22.4263 5.41599 22.3962 5.41634ZM21.5587 6.15384L19.0003 8.71634V9.58301H19.867L22.4295 7.02051L21.5587 6.15384Z" fill="#1F9B90"/>
</svg>
