<svg width="24" height="24" viewBox="0 0 24 24" fill="none" xmlns="http://www.w3.org/2000/svg">
<path d="M4 18V20H8V18H4ZM4 14V16H14V14H4ZM10 18V20H14V18H10ZM16 14V16H20V14H16ZM16 18V20H20V18H16ZM2 22V8L7 12V8L12 12V8L17 12L18 2H21L22 12V22H2Z" fill="#333333"/>
<path d="M16 14V16L20 14H16Z" fill="#1F9B90"/>
<path fill-rule="evenodd" clip-rule="evenodd" d="M4 20V18H8L4 20Z" fill="#1F9B90"/>
<path fill-rule="evenodd" clip-rule="evenodd" d="M10 20V18H14L10 20Z" fill="#1F9B90"/>
<path fill-rule="evenodd" clip-rule="evenodd" d="M16 20V18H20L16 20Z" fill="#1F9B90"/>
</svg>
