<svg width="24" height="24" viewBox="0 0 24 24" fill="none" xmlns="http://www.w3.org/2000/svg">
<path d="M8.13 9C8.05 9.32 8 9.65 8 10C8 10.35 8.05 10.68 8.13 11H9.82C9.78 10.67 9.75 10.34 9.75 10C9.75 9.66 9.78 9.33 9.82 9H8.13Z" fill="#1F9B90"/>
<path d="M10.7 6.22C9.78 6.53 9 7.17 8.54 8H10C10.18 7.38 10.4 6.78 10.7 6.22Z" fill="#1F9B90"/>
<path d="M12 6C11.59 6.62 11.25 7.29 11.04 8H12.96C12.7452 7.28774 12.4214 6.61307 12 6Z" fill="#1F9B90"/>
<path d="M13.29 6.22C13.59 6.78 13.82 7.38 14 8H15.46C15 7.17 14.21 6.54 13.29 6.22Z" fill="#1F9B90"/>
<path d="M10.83 9C10.78 9.32 10.75 9.66 10.75 10C10.75 10.34 10.78 10.67 10.83 11H13.17C13.21 10.67 13.25 10.34 13.25 10C13.25 9.66 13.21 9.32 13.17 9H10.83Z" fill="#1F9B90"/>
<path d="M14.18 9C14.22 9.33 14.25 9.66 14.25 10C14.25 10.34 14.22 10.67 14.18 11H15.87C15.95 10.68 16 10.35 16 10C16 9.65 15.95 9.32 15.87 9H14.18Z" fill="#1F9B90"/>
<path d="M14 12C13.82 12.63 13.59 13.22 13.29 13.78C14.21 13.46 15 12.83 15.46 12H14Z" fill="#1F9B90"/>
<path d="M11.04 12C11.25 12.72 11.59 13.38 12 14C12.42 13.38 12.75 12.72 12.96 12H11.04Z" fill="#1F9B90"/>
<path fill-rule="evenodd" clip-rule="evenodd" d="M4.58579 2.58579C4.96086 2.21071 5.46957 2 6 2H18C18.5304 2 19.0391 2.21071 19.4142 2.58579C19.7893 2.96086 20 3.46957 20 4V20C20 20.5304 19.7893 21.0391 19.4142 21.4142C19.0391 21.7893 18.5304 22 18 22H6C5.46957 22 4.96086 21.7893 4.58579 21.4142C4.21071 21.0391 4 20.5304 4 20V4C4 3.46957 4.21071 2.96086 4.58579 2.58579ZM15.5355 6.46447C14.5979 5.52678 13.3261 5 12 5C10.6739 5 9.40215 5.52678 8.46447 6.46447C7.52678 7.40215 7 8.67392 7 10C7 11.3261 7.52678 12.5979 8.46447 13.5355C9.40215 14.4732 10.6739 15 12 15C13.3261 15 14.5979 14.4732 15.5355 13.5355C16.4732 12.5979 17 11.3261 17 10C17 8.67392 16.4732 7.40215 15.5355 6.46447ZM17 19V17H7V19H17Z" fill="#333333"/>
<path d="M8.54 12C9 12.83 9.78 13.46 10.7 13.78C10.4 13.22 10.18 12.63 10 12H8.54Z" fill="#1F9B90"/>
</svg>
