<svg width="24" height="24" viewBox="0 0 24 24" fill="none" xmlns="http://www.w3.org/2000/svg">
<path d="M9.92461 21.125L7.44961 16.525L2.84961 14.05L4.62461 12.3L8.24961 12.925L10.7996 10.375L2.87461 7L4.97461 4.85L14.5996 6.55L17.6996 3.45C18.0829 3.06667 18.5579 2.875 19.1246 2.875C19.6913 2.875 20.1663 3.06667 20.5496 3.45C20.9329 3.83333 21.1246 4.304 21.1246 4.862C21.1246 5.42 20.9329 5.891 20.5496 6.275L17.4246 9.4L19.1246 19L16.9996 21.125L13.5996 13.2L11.0496 15.75L11.6996 19.35L9.92461 21.125Z" fill="#333333"/>
<path fill-rule="evenodd" clip-rule="evenodd" d="M7.46133 16.5377L20.5363 3.4377C20.9197 3.82103 21.1113 4.29603 21.1113 4.8627C21.1113 5.42936 20.9197 5.90436 20.5363 6.28769L17.4363 9.3877L19.1363 19.0127L16.9863 21.1127L13.6113 13.1877L11.0613 15.7377L11.6863 19.3627L9.93633 21.1377L7.46133 16.5377Z" fill="#1F9B90"/>
</svg>
