<svg width="1920" height="650" viewBox="0 0 1920 650" fill="none" xmlns="http://www.w3.org/2000/svg">
<g clip-path="url(#clip0_3374_31247)">
<g filter="url(#filter0_d_3374_31247)">
<path d="M0 0H1920V650C1280 650 640 650 0 650V0Z" fill="#B7E8E3"/>
</g>
<g style="mix-blend-mode:soft-light" opacity="0.25">
<mask id="path-2-outside-1_3374_31247" maskUnits="userSpaceOnUse" x="342.5" y="218" width="1234.5" height="205" fill="black">
<rect fill="white" x="342.5" y="218" width="1234.5" height="205"/>
<path d="M460.352 417.56C428.608 417.56 403.392 412.867 384.704 403.48C366.272 394.093 357.056 381.123 357.056 364.568V358.936C357.056 352.451 358.976 346.989 362.816 342.552C366.912 337.944 370.88 333.933 374.72 330.52C378.816 327.107 380.864 323.949 380.864 321.048C380.864 318.659 380.096 316.952 378.56 315.928C377.024 314.904 374.208 314.392 370.112 314.392H351.68L358.208 276.76H425.792C440.384 276.76 450.752 278.979 456.896 283.416C463.04 287.683 466.112 293.827 466.112 301.848C466.112 307.139 464.576 312.003 461.504 316.44C458.432 320.707 454.848 324.803 450.752 328.728C446.656 332.483 443.072 336.237 440 339.992C436.928 343.747 435.392 347.757 435.392 352.024V360.216C435.392 365.336 437.568 369.091 441.92 371.48C446.528 373.869 452.672 375.064 460.352 375.064C469.568 375.064 476.224 373.613 480.32 370.712C484.672 367.64 486.848 363.629 486.848 358.68V276.76H565.184V363.544C565.184 380.952 555.84 394.349 537.152 403.736C518.72 412.952 493.12 417.56 460.352 417.56ZM482.705 267.544V223.768H565.265V267.544H482.705ZM662.033 415V337.944C662.033 330.435 659.601 325.059 654.737 321.816C650.129 318.573 642.065 316.952 630.545 316.952C621.329 316.952 612.369 317.635 603.665 319C595.217 320.365 587.537 321.987 580.625 323.864V283.928C588.305 281.197 598.289 278.893 610.577 277.016C622.865 275.139 635.281 274.2 647.825 274.2C680.081 274.2 703.505 279.064 718.097 288.792C732.945 298.349 740.369 312.515 740.369 331.288V415H662.033ZM844.07 417.56C828.71 417.56 814.246 416.792 800.678 415.256C787.366 413.891 774.95 411.416 763.43 407.832V363.8C772.39 366.872 782.246 369.347 792.998 371.224C803.75 372.931 813.862 373.784 823.334 373.784C840.486 373.784 853.03 371.651 860.966 367.384C868.902 363.117 872.87 355.949 872.87 345.88C872.87 335.811 868.902 328.643 860.966 324.376C853.03 320.109 840.742 317.976 824.102 317.976C814.118 317.976 803.75 318.659 792.998 320.024C782.502 321.389 772.774 323.523 763.814 326.424V283.928C775.334 280.856 788.006 278.467 801.83 276.76C815.654 275.053 829.862 274.2 844.454 274.2C881.83 274.2 909.862 279.917 928.55 291.352C947.494 302.616 956.966 320.792 956.966 345.88C956.966 371.139 947.494 389.4 928.55 400.664C909.606 411.928 881.446 417.56 844.07 417.56ZM1044.5 417.56C1031.19 417.56 1019.03 416.109 1008.02 413.208C997.265 410.307 988.561 405.699 981.905 399.384C975.505 392.899 972.305 384.28 972.305 373.528C972.305 358.509 979.345 346.989 993.425 338.968C1007.76 330.947 1028.37 326.936 1055.25 326.936H1104.02V323.608C1104.02 316.269 1090.83 312.6 1064.47 312.6C1052.95 312.6 1040.91 313.283 1028.37 314.648C1015.83 315.843 1003.92 317.635 992.657 320.024V283.672C1003.92 280.771 1017.75 278.467 1034.13 276.76C1050.77 275.053 1066.64 274.2 1081.75 274.2C1088.66 274.2 1095.31 274.456 1101.71 274.968C1108.11 275.309 1114.13 275.907 1119.76 276.76H1204.24L1200.02 315.672H1179.28C1181.07 318.061 1182.35 321.219 1183.12 325.144C1184.15 329.069 1184.66 333.165 1184.66 337.432V415H1104.02V361.24H1076.75C1069.84 361.24 1064.47 362.008 1060.62 363.544C1057.04 365.08 1055.25 368.067 1055.25 372.504C1055.25 376.429 1056.66 379.16 1059.47 380.696C1062.55 382.232 1066.9 383 1072.53 383C1075.6 383 1078.42 382.915 1080.98 382.744C1083.54 382.573 1086.23 382.232 1089.04 381.72V413.464C1083.92 414.659 1077.65 415.597 1070.23 416.28C1062.8 417.133 1054.23 417.56 1044.5 417.56ZM1289.41 415V337.944C1289.41 330.435 1286.98 325.059 1282.11 321.816C1277.5 318.573 1269.44 316.952 1257.92 316.952C1248.7 316.952 1239.74 317.635 1231.04 319C1222.59 320.365 1214.91 321.987 1208 323.864V283.928C1215.68 281.197 1225.66 278.893 1237.95 277.016C1250.24 275.139 1262.66 274.2 1275.2 274.2C1307.46 274.2 1330.88 279.064 1345.47 288.792C1360.32 298.349 1367.74 312.515 1367.74 331.288V415H1289.41ZM1474.52 417.56C1457.88 417.56 1442.13 416.707 1427.29 415C1412.44 413.464 1400.92 411.587 1392.73 409.368V370.712C1402.2 373.613 1413.08 376.003 1425.37 377.88C1437.91 379.757 1448.92 380.696 1458.39 380.696C1468.12 380.696 1474.9 380.269 1478.74 379.416C1482.84 378.392 1484.89 376.685 1484.89 374.296C1484.89 370.883 1481.17 368.237 1473.75 366.36C1466.33 364.483 1455.45 361.752 1441.11 358.168C1423.96 353.731 1411.29 348.525 1403.09 342.552C1394.9 336.408 1390.81 328.131 1390.81 317.72C1390.81 305.091 1398.61 294.68 1414.23 286.488C1429.85 278.296 1453.78 274.2 1486.04 274.2C1499.35 274.2 1512.79 274.883 1526.36 276.248C1540.18 277.443 1550.93 278.808 1558.61 280.344V318.488C1550.42 316.099 1541.08 314.307 1530.58 313.112C1520.34 311.917 1511.51 311.32 1504.09 311.32C1495.38 311.32 1488.34 311.747 1482.97 312.6C1477.59 313.453 1474.9 315.331 1474.9 318.232C1474.9 321.475 1478.61 323.949 1486.04 325.656C1493.46 327.192 1503.57 329.581 1516.37 332.824C1530.45 336.237 1541.33 339.821 1549.01 343.576C1556.69 347.16 1561.94 351.427 1564.76 356.376C1567.83 361.155 1569.37 367.299 1569.37 374.808C1569.37 387.779 1561.3 398.189 1545.17 406.04C1529.05 413.72 1505.49 417.56 1474.52 417.56Z"/>
</mask>
<path d="M384.704 403.48L380.151 407.453L380.171 407.463L380.191 407.473L384.704 403.48ZM362.816 342.552L356.364 340.003L356.341 340.028L356.32 340.053L362.816 342.552ZM374.72 330.52L368.863 327.397L368.79 327.458L368.72 327.52L374.72 330.52ZM378.56 315.928L383.863 312.392L383.863 312.392L378.56 315.928ZM351.68 314.392L344.23 313.818L343.263 319.392H351.68V314.392ZM358.208 276.76V271.76H351.525L350.758 276.186L358.208 276.76ZM456.896 283.416L451.385 286.807L451.435 286.843L451.486 286.879L456.896 283.416ZM461.504 316.44L468.265 318.604L468.29 318.57L468.314 318.535L461.504 316.44ZM450.752 328.728L456.818 331.669L456.864 331.626L456.909 331.583L450.752 328.728ZM440 339.992L433.416 337.598L433.416 337.598L440 339.992ZM441.92 371.48L437.152 375.34L437.233 375.384L437.315 375.427L441.92 371.48ZM480.32 370.712L474.867 367.279L474.859 367.285L480.32 370.712ZM486.848 276.76V271.76H479.348V276.76H486.848ZM565.184 276.76H572.684V271.76H565.184V276.76ZM537.152 403.736L541.652 407.736L541.665 407.729L537.152 403.736ZM460.352 417.56V412.56C429.663 412.56 406.211 408.022 389.217 399.487L384.704 403.48L380.191 407.473C400.573 417.711 427.553 422.56 460.352 422.56V417.56ZM384.704 403.48L389.257 399.507C372.829 391.141 364.556 379.692 364.556 364.568H357.056H349.556C349.556 382.553 359.715 397.046 380.151 407.453L384.704 403.48ZM357.056 364.568H364.556V358.936H357.056H349.556V364.568H357.056ZM357.056 358.936H364.556C364.556 353.098 366.283 348.551 369.312 345.051L362.816 342.552L356.32 340.053C351.669 345.427 349.556 351.803 349.556 358.936H357.056ZM362.816 342.552L369.268 345.101C373.259 340.611 377.078 336.758 380.72 333.52L374.72 330.52L368.72 327.52C364.682 331.109 360.565 335.277 356.364 340.003L362.816 342.552ZM374.72 330.52L380.577 333.643C385.221 329.773 388.364 325.534 388.364 321.048H380.864H373.364C373.364 322.365 372.411 324.44 368.863 327.397L374.72 330.52ZM380.864 321.048H388.364C388.364 318.151 387.485 314.807 383.863 312.392L378.56 315.928L373.257 319.464C372.967 319.27 372.996 319.172 373.104 319.413C373.221 319.672 373.364 320.185 373.364 321.048H380.864ZM378.56 315.928L383.863 312.392C380.103 309.886 374.623 309.392 370.112 309.392V314.392V319.392C371.739 319.392 372.758 319.497 373.323 319.6C373.888 319.703 373.675 319.743 373.257 319.464L378.56 315.928ZM370.112 314.392V309.392H351.68V314.392V319.392H370.112V314.392ZM351.68 314.392L359.13 314.966L365.658 277.334L358.208 276.76L350.758 276.186L344.23 313.818L351.68 314.392ZM358.208 276.76V281.76H425.792V276.76V271.76H358.208V276.76ZM425.792 276.76V281.76C439.533 281.76 447.327 283.877 451.385 286.807L456.896 283.416L462.407 280.025C454.177 274.08 441.235 271.76 425.792 271.76V276.76ZM456.896 283.416L451.486 286.879C455.87 289.923 458.612 294.648 458.612 301.848H466.112H473.612C473.612 293.005 470.21 285.442 462.306 279.953L456.896 283.416ZM466.112 301.848H458.612C458.612 306.476 457.275 310.617 454.694 314.345L461.504 316.44L468.314 318.535C471.877 313.388 473.612 307.802 473.612 301.848H466.112ZM461.504 316.44L454.743 314.276C451.846 318.3 448.465 322.164 444.595 325.873L450.752 328.728L456.909 331.583C461.231 327.441 465.018 323.114 468.265 318.604L461.504 316.44ZM450.752 328.728L444.686 325.787C440.416 329.702 436.655 333.638 433.416 337.598L440 339.992L446.584 342.386C449.489 338.836 452.896 335.264 456.818 331.669L450.752 328.728ZM440 339.992L433.416 337.598C429.744 342.085 427.892 346.919 427.892 352.024H435.392H442.892C442.892 348.596 444.112 345.408 446.584 342.386L440 339.992ZM435.392 352.024H427.892V360.216H435.392H442.892V352.024H435.392ZM435.392 360.216H427.892C427.892 366.257 430.501 371.688 437.152 375.34L441.92 371.48L446.688 367.62C444.635 366.493 442.892 364.415 442.892 360.216H435.392ZM441.92 371.48L437.315 375.427C443.603 378.687 451.532 380.064 460.352 380.064V375.064V370.064C453.812 370.064 449.453 369.052 446.525 367.533L441.92 371.48ZM460.352 375.064V380.064C470.53 380.064 479.656 378.478 485.782 374.139L480.32 370.712L474.859 367.285C472.792 368.749 468.606 370.064 460.352 370.064V375.064ZM480.32 370.712L485.773 374.145C491.662 369.988 494.348 364.672 494.348 358.68H486.848H479.348C479.348 362.586 477.682 365.292 474.867 367.279L480.32 370.712ZM486.848 358.68H494.348V276.76H486.848H479.348V358.68H486.848ZM486.848 276.76V281.76H565.184V276.76V271.76H486.848V276.76ZM565.184 276.76H557.684V363.544H565.184H572.684V276.76H565.184ZM565.184 363.544H557.684C557.684 379.591 549.209 391.42 532.639 399.743L537.152 403.736L541.665 407.729C562.471 397.279 572.684 382.313 572.684 363.544H565.184ZM537.152 403.736L532.652 399.736C515.965 408.08 492.162 412.56 460.352 412.56V417.56V422.56C494.078 422.56 521.475 417.824 541.652 407.736L537.152 403.736ZM482.705 267.544H475.205V272.544H482.705V267.544ZM482.705 223.768V218.768H475.205V223.768H482.705ZM565.265 223.768H572.765V218.768H565.265V223.768ZM565.265 267.544V272.544H572.765V267.544H565.265ZM482.705 267.544H490.205V223.768H482.705H475.205V267.544H482.705ZM482.705 223.768V228.768H565.265V223.768V218.768H482.705V223.768ZM565.265 223.768H557.765V267.544H565.265H572.765V223.768H565.265ZM565.265 267.544V262.544H482.705V267.544V272.544H565.265V267.544ZM662.033 415H654.533V420H662.033V415ZM654.737 321.816L649.292 325.255L649.362 325.304L649.434 325.352L654.737 321.816ZM603.665 319L601.947 314.133L601.923 314.137L601.898 314.141L603.665 319ZM580.625 323.864H573.125V331.3L583.455 328.494L580.625 323.864ZM580.625 283.928L577.096 279.516L573.125 280.928V283.928H580.625ZM610.577 277.016L608.902 272.142L608.902 272.142L610.577 277.016ZM718.097 288.792L712.794 292.328L712.84 292.359L712.888 292.389L718.097 288.792ZM740.369 415V420H747.869V415H740.369ZM662.033 415H669.533V337.944H662.033H654.533V415H662.033ZM662.033 337.944H669.533C669.533 329.914 666.981 322.908 660.04 318.28L654.737 321.816L649.434 325.352C652.221 327.209 654.533 330.955 654.533 337.944H662.033ZM654.737 321.816L660.182 318.377C653.422 313.621 642.731 311.952 630.545 311.952V316.952V321.952C641.399 321.952 646.836 323.526 649.292 325.255L654.737 321.816ZM630.545 316.952V311.952C620.768 311.952 611.231 312.677 601.947 314.133L603.665 319L605.383 323.867C613.507 322.593 621.89 321.952 630.545 321.952V316.952ZM603.665 319L601.898 314.141C593.145 315.555 585.103 317.249 577.795 319.234L580.625 323.864L583.455 328.494C589.971 326.725 597.289 325.175 605.432 323.859L603.665 319ZM580.625 323.864H588.125V283.928H580.625H573.125V323.864H580.625ZM580.625 283.928L584.154 288.34C591.053 285.887 600.349 283.708 612.252 281.89L610.577 277.016L608.902 272.142C596.229 274.078 585.557 276.508 577.096 279.516L580.625 283.928ZM610.577 277.016L612.252 281.89C623.994 280.096 635.848 279.2 647.825 279.2V274.2V269.2C634.714 269.2 621.736 270.181 608.902 272.142L610.577 277.016ZM647.825 274.2V279.2C679.18 279.2 700.226 283.949 712.794 292.328L718.097 288.792L723.4 285.256C706.784 274.179 680.982 269.2 647.825 269.2V274.2ZM718.097 288.792L712.888 292.389C725.801 300.701 732.869 313.362 732.869 331.288H740.369H747.869C747.869 311.667 740.089 295.998 723.306 285.195L718.097 288.792ZM740.369 331.288H732.869V415H740.369H747.869V331.288H740.369ZM740.369 415V410H662.033V415V420H740.369V415ZM800.678 415.256L801.934 410.327L801.876 410.32L801.818 410.314L800.678 415.256ZM763.43 407.832H755.93V411.016L760.258 412.363L763.43 407.832ZM763.43 363.8L766.86 359.354L755.93 355.606V363.8H763.43ZM792.998 371.224L791.098 376.061L791.179 376.075L791.261 376.088L792.998 371.224ZM860.966 367.384L865.674 371.276L865.674 371.276L860.966 367.384ZM860.966 324.376L856.258 328.268L856.258 328.268L860.966 324.376ZM792.998 320.024L791.595 315.112L791.578 315.114L791.562 315.117L792.998 320.024ZM763.814 326.424H756.314V334.411L767.091 330.922L763.814 326.424ZM763.814 283.928L761.029 279.286L756.314 280.543V283.928H763.814ZM928.55 291.352L923.479 295.036L923.518 295.06L923.558 295.083L928.55 291.352ZM928.55 400.664L923.558 396.933L923.558 396.933L928.55 400.664ZM844.07 417.56V412.56C829.083 412.56 815.042 411.811 801.934 410.327L800.678 415.256L799.422 420.185C813.45 421.773 828.337 422.56 844.07 422.56V417.56ZM800.678 415.256L801.818 410.314C789.167 409.017 777.44 406.673 766.602 403.301L763.43 407.832L760.258 412.363C772.46 416.159 785.565 418.765 799.538 420.198L800.678 415.256ZM763.43 407.832H770.93V363.8H763.43H755.93V407.832H763.43ZM763.43 363.8L760 368.246C769.494 371.502 779.87 374.1 791.098 376.061L792.998 371.224L794.898 366.387C784.622 364.593 775.286 362.242 766.86 359.354L763.43 363.8ZM792.998 371.224L791.261 376.088C802.49 377.87 813.189 378.784 823.334 378.784V373.784V368.784C814.535 368.784 805.01 367.991 794.735 366.36L792.998 371.224ZM823.334 373.784V378.784C841.13 378.784 855.76 376.606 865.674 371.276L860.966 367.384L856.258 363.492C850.3 366.695 839.842 368.784 823.334 368.784V373.784ZM860.966 367.384L865.674 371.276C876.096 365.673 880.37 356.713 880.37 345.88H872.87H865.37C865.37 355.186 861.708 360.562 856.258 363.492L860.966 367.384ZM872.87 345.88H880.37C880.37 335.047 876.096 326.087 865.674 320.484L860.966 324.376L856.258 328.268C861.708 331.198 865.37 336.574 865.37 345.88H872.87ZM860.966 324.376L865.674 320.484C855.791 315.17 841.452 312.976 824.102 312.976V317.976V322.976C840.032 322.976 850.269 325.048 856.258 328.268L860.966 324.376ZM824.102 317.976V312.976C813.605 312.976 802.765 313.694 791.595 315.112L792.998 320.024L794.401 324.936C804.735 323.624 814.631 322.976 824.102 322.976V317.976ZM792.998 320.024L791.562 315.117C780.475 316.559 770.123 318.823 760.537 321.926L763.814 326.424L767.091 330.922C775.425 328.223 784.529 326.22 794.434 324.931L792.998 320.024ZM763.814 326.424H771.314V283.928H763.814H756.314V326.424H763.814ZM763.814 283.928L766.599 288.57C777.605 285.636 789.794 283.331 803.196 281.676L801.83 276.76L800.464 271.844C786.218 273.602 773.063 276.076 761.029 279.286L763.814 283.928ZM801.83 276.76L803.196 281.676C816.553 280.027 830.303 279.2 844.454 279.2V274.2V269.2C829.421 269.2 814.755 270.079 800.464 271.844L801.83 276.76ZM844.454 274.2V279.2C880.826 279.2 906.706 284.773 923.479 295.036L928.55 291.352L933.621 287.668C913.018 275.062 882.834 269.2 844.454 269.2V274.2ZM928.55 291.352L923.558 295.083C940.266 305.018 949.466 321.522 949.466 345.88H956.966H964.466C964.466 320.062 954.722 300.214 933.542 287.621L928.55 291.352ZM956.966 345.88H949.466C949.466 370.421 940.256 387.004 923.558 396.933L928.55 400.664L933.542 404.395C954.732 391.796 964.466 371.856 964.466 345.88H956.966ZM928.55 400.664L923.558 396.933C906.513 407.067 880.456 412.56 844.07 412.56V417.56V422.56C882.436 422.56 912.699 416.789 933.542 404.395L928.55 400.664ZM1008.02 413.208L1005.2 417.843L1005.23 417.85L1005.26 417.858L1008.02 413.208ZM981.905 399.384L975.639 402.132L975.703 402.196L975.769 402.259L981.905 399.384ZM993.425 338.968L988.603 335.138L988.578 335.152L988.553 335.167L993.425 338.968ZM1104.02 326.936V331.936H1111.52V326.936H1104.02ZM1028.37 314.648L1029.43 319.598L1029.5 319.591L1029.58 319.583L1028.37 314.648ZM992.657 320.024H985.157V326.862L994.931 324.789L992.657 320.024ZM992.657 283.672L989.954 279.008L985.157 280.244V283.672H992.657ZM1034.13 276.76L1032.99 271.818L1032.97 271.82L1034.13 276.76ZM1101.71 274.968L1100.82 279.932L1100.97 279.944L1101.11 279.952L1101.71 274.968ZM1119.76 276.76L1118.1 281.636L1118.92 281.76H1119.76V276.76ZM1204.24 276.76L1211.72 277.121L1212.3 271.76H1204.24V276.76ZM1200.02 315.672V320.672H1206.99L1207.5 316.033L1200.02 315.672ZM1179.28 315.672V310.672H1167.15L1172.57 317.908L1179.28 315.672ZM1183.12 325.144L1175.68 325.791L1175.7 325.896L1175.73 326.001L1183.12 325.144ZM1184.66 415V420H1192.16V415H1184.66ZM1104.02 415H1096.52V420H1104.02V415ZM1104.02 361.24H1111.52V356.24H1104.02V361.24ZM1060.62 363.544L1056.77 359.257L1056.67 359.296L1056.57 359.338L1060.62 363.544ZM1059.47 380.696L1054.72 384.566L1054.85 384.633L1054.97 384.696L1059.47 380.696ZM1080.98 382.744L1080.23 377.769L1080.23 377.769L1080.98 382.744ZM1089.04 381.72H1096.54V375.174L1087.07 376.896L1089.04 381.72ZM1089.04 413.464L1091.52 418.183L1096.54 417.011V413.464H1089.04ZM1070.23 416.28L1069.2 411.327L1069.08 411.338L1068.95 411.353L1070.23 416.28ZM1044.5 417.56V412.56C1032.01 412.56 1020.8 411.201 1010.77 408.558L1008.02 413.208L1005.26 417.858C1017.25 421.018 1030.36 422.56 1044.5 422.56V417.56ZM1008.02 413.208L1010.83 408.573C1001.41 406.032 993.865 402.035 988.041 396.509L981.905 399.384L975.769 402.259C983.257 409.363 993.115 414.581 1005.2 417.843L1008.02 413.208ZM981.905 399.384L988.171 396.636C982.831 391.225 979.805 383.666 979.805 373.528H972.305H964.805C964.805 384.894 968.179 394.573 975.639 402.132L981.905 399.384ZM972.305 373.528H979.805C979.805 359.626 986.243 349.637 998.297 342.769L993.425 338.968L988.553 335.167C972.447 344.342 964.805 357.393 964.805 373.528H972.305ZM993.425 338.968L998.247 342.798C1010.75 335.802 1029.38 331.936 1055.25 331.936V326.936V321.936C1027.36 321.936 1004.77 326.091 988.603 335.138L993.425 338.968ZM1055.25 326.936V331.936H1104.02V326.936V321.936H1055.25V326.936ZM1104.02 326.936H1111.52V323.608H1104.02H1096.52V326.936H1104.02ZM1104.02 323.608H1111.52C1111.52 320.691 1110.16 317.973 1107.41 315.672C1104.74 313.449 1101.08 311.87 1097.02 310.738C1089.03 308.516 1077.94 307.6 1064.47 307.6V312.6V317.6C1077.35 317.6 1086.04 318.519 1091.24 319.966C1093.77 320.669 1095.05 321.383 1095.68 321.912C1096.22 322.363 1096.52 322.856 1096.52 323.608H1104.02ZM1064.47 312.6V307.6C1052.5 307.6 1040.06 308.309 1027.16 309.713L1028.37 314.648L1029.58 319.583C1041.76 318.256 1053.39 317.6 1064.47 317.6V312.6ZM1028.37 314.648L1027.31 309.698C1014.38 310.929 1002.07 312.78 990.383 315.259L992.657 320.024L994.931 324.789C1005.77 322.489 1017.27 320.756 1029.43 319.598L1028.37 314.648ZM992.657 320.024H1000.16V283.672H992.657H985.157V320.024H992.657ZM992.657 283.672L995.36 288.336C1005.98 285.601 1019.25 283.371 1035.29 281.7L1034.13 276.76L1032.97 271.82C1016.24 273.563 1001.86 275.941 989.954 279.008L992.657 283.672ZM1034.13 276.76L1035.27 281.702C1051.57 280.03 1067.06 279.2 1081.75 279.2V274.2V269.2C1066.22 269.2 1049.96 270.077 1032.99 271.818L1034.13 276.76ZM1081.75 274.2V279.2C1088.38 279.2 1094.74 279.446 1100.82 279.932L1101.71 274.968L1102.61 270.004C1095.89 269.466 1088.93 269.2 1081.75 269.2V274.2ZM1101.71 274.968L1101.11 279.952C1107.2 280.276 1112.85 280.841 1118.1 281.636L1119.76 276.76L1121.42 271.884C1115.4 270.972 1109.03 270.342 1102.31 269.984L1101.71 274.968ZM1119.76 276.76V281.76H1204.24V276.76V271.76H1119.76V276.76ZM1204.24 276.76L1196.76 276.399L1192.54 315.311L1200.02 315.672L1207.5 316.033L1211.72 277.121L1204.24 276.76ZM1200.02 315.672V310.672H1179.28V315.672V320.672H1200.02V315.672ZM1179.28 315.672L1172.57 317.908C1173.86 319.62 1174.98 322.178 1175.68 325.791L1183.12 325.144L1190.56 324.497C1189.73 320.259 1188.29 316.503 1185.99 313.436L1179.28 315.672ZM1183.12 325.144L1175.73 326.001C1176.68 329.624 1177.16 333.432 1177.16 337.432H1184.66H1192.16C1192.16 332.898 1191.61 328.515 1190.51 324.287L1183.12 325.144ZM1184.66 337.432H1177.16V415H1184.66H1192.16V337.432H1184.66ZM1184.66 415V410H1104.02V415V420H1184.66V415ZM1104.02 415H1111.52V361.24H1104.02H1096.52V415H1104.02ZM1104.02 361.24V356.24H1076.75V361.24V366.24H1104.02V361.24ZM1076.75 361.24V356.24C1069.16 356.24 1062.24 357.066 1056.77 359.257L1060.62 363.544L1064.48 367.831C1066.69 366.95 1070.52 366.24 1076.75 366.24V361.24ZM1060.62 363.544L1056.57 359.338C1049.82 362.229 1047.75 367.368 1047.75 372.504H1055.25H1062.75C1062.75 368.766 1064.26 367.931 1064.68 367.75L1060.62 363.544ZM1055.25 372.504H1047.75C1047.75 377.012 1049.33 381.622 1054.72 384.566L1059.47 380.696L1064.22 376.826C1063.99 376.698 1062.75 375.847 1062.75 372.504H1055.25ZM1059.47 380.696L1054.97 384.696C1059.82 387.121 1066 388 1072.53 388V383V378C1067.79 378 1065.27 377.343 1063.97 376.696L1059.47 380.696ZM1072.53 383V388C1075.8 388 1078.87 387.909 1081.72 387.719L1080.98 382.744L1080.23 377.769C1077.96 377.92 1075.4 378 1072.53 378V383ZM1080.98 382.744L1081.72 387.719C1084.75 387.517 1087.85 387.119 1091.01 386.544L1089.04 381.72L1087.07 376.896C1084.6 377.345 1082.33 377.629 1080.23 377.769L1080.98 382.744ZM1089.04 381.72H1081.54V413.464H1089.04H1096.54V381.72H1089.04ZM1089.04 413.464L1086.56 408.745C1082.05 409.797 1076.3 410.674 1069.2 411.327L1070.23 416.28L1071.25 421.233C1079 420.521 1085.79 419.521 1091.52 418.183L1089.04 413.464ZM1070.23 416.28L1068.95 411.353C1062.05 412.146 1053.91 412.56 1044.5 412.56V417.56V422.56C1054.54 422.56 1063.55 422.121 1071.5 421.207L1070.23 416.28ZM1289.41 415H1281.91V420H1289.41V415ZM1282.11 321.816L1276.67 325.255L1276.74 325.304L1276.81 325.352L1282.11 321.816ZM1231.04 319L1229.32 314.133L1229.3 314.137L1229.27 314.141L1231.04 319ZM1208 323.864H1200.5V331.3L1210.83 328.494L1208 323.864ZM1208 283.928L1204.47 279.516L1200.5 280.928V283.928H1208ZM1237.95 277.016L1236.28 272.142L1236.28 272.142L1237.95 277.016ZM1345.47 288.792L1340.17 292.328L1340.22 292.359L1340.26 292.389L1345.47 288.792ZM1367.74 415V420H1375.24V415H1367.74ZM1289.41 415H1296.91V337.944H1289.41H1281.91V415H1289.41ZM1289.41 337.944H1296.91C1296.91 329.914 1294.36 322.908 1287.42 318.28L1282.11 321.816L1276.81 325.352C1279.6 327.209 1281.91 330.955 1281.91 337.944H1289.41ZM1282.11 321.816L1287.56 318.377C1280.8 313.621 1270.11 311.952 1257.92 311.952V316.952V321.952C1268.77 321.952 1274.21 323.526 1276.67 325.255L1282.11 321.816ZM1257.92 316.952V311.952C1248.14 311.952 1238.61 312.677 1229.32 314.133L1231.04 319L1232.76 323.867C1240.88 322.593 1249.26 321.952 1257.92 321.952V316.952ZM1231.04 319L1229.27 314.141C1220.52 315.555 1212.48 317.249 1205.17 319.234L1208 323.864L1210.83 328.494C1217.35 326.725 1224.66 325.175 1232.81 323.859L1231.04 319ZM1208 323.864H1215.5V283.928H1208H1200.5V323.864H1208ZM1208 283.928L1211.53 288.34C1218.43 285.887 1227.72 283.708 1239.63 281.89L1237.95 277.016L1236.28 272.142C1223.6 274.078 1212.93 276.508 1204.47 279.516L1208 283.928ZM1237.95 277.016L1239.63 281.89C1251.37 280.096 1263.22 279.2 1275.2 279.2V274.2V269.2C1262.09 269.2 1249.11 270.181 1236.28 272.142L1237.95 277.016ZM1275.2 274.2V279.2C1306.56 279.2 1327.6 283.949 1340.17 292.328L1345.47 288.792L1350.78 285.256C1334.16 274.179 1308.36 269.2 1275.2 269.2V274.2ZM1345.47 288.792L1340.26 292.389C1353.18 300.701 1360.24 313.362 1360.24 331.288H1367.74H1375.24C1375.24 311.667 1367.46 295.998 1350.68 285.195L1345.47 288.792ZM1367.74 331.288H1360.24V415H1367.74H1375.24V331.288H1367.74ZM1367.74 415V410H1289.41V415V420H1367.74V415ZM1427.29 415L1428.56 410.073L1428.5 410.066L1428.44 410.059L1427.29 415ZM1392.73 409.368H1385.23V412.734L1389.9 414L1392.73 409.368ZM1392.73 370.712L1395.86 366.169L1385.23 362.912V370.712H1392.73ZM1425.37 377.88L1423.69 382.754L1423.71 382.756L1423.72 382.759L1425.37 377.88ZM1478.74 379.416L1481.11 384.159L1481.24 384.13L1481.37 384.098L1478.74 379.416ZM1473.75 366.36L1476.41 361.685L1476.41 361.685L1473.75 366.36ZM1441.11 358.168L1438.4 362.829L1438.44 362.84L1438.48 362.85L1441.11 358.168ZM1403.09 342.552L1397.49 345.874L1397.52 345.9L1397.56 345.926L1403.09 342.552ZM1414.23 286.488L1409.59 282.559L1409.59 282.559L1414.23 286.488ZM1526.36 276.248L1525.24 281.192L1525.32 281.2L1525.39 281.206L1526.36 276.248ZM1558.61 280.344H1566.11V276.624L1560.77 275.555L1558.61 280.344ZM1558.61 318.488L1555.61 323.069L1566.11 326.133V318.488H1558.61ZM1530.58 313.112L1529.29 318.037L1529.3 318.039L1529.32 318.041L1530.58 313.112ZM1482.97 312.6L1484.7 317.464L1484.7 317.464L1482.97 312.6ZM1486.04 325.656L1483.59 330.383L1483.7 330.408L1483.81 330.431L1486.04 325.656ZM1516.37 332.824L1513.71 337.498L1513.76 337.511L1513.81 337.523L1516.37 332.824ZM1549.01 343.576L1544.58 347.608L1544.64 347.641L1544.71 347.672L1549.01 343.576ZM1564.76 356.376L1557.74 358.149L1557.8 358.248L1557.86 358.346L1564.76 356.376ZM1545.17 406.04L1549.53 410.109L1549.56 410.094L1549.6 410.078L1545.17 406.04ZM1474.52 417.56V412.56C1458.26 412.56 1442.95 411.726 1428.56 410.073L1427.29 415L1426.01 419.927C1441.32 421.687 1457.49 422.56 1474.52 422.56V417.56ZM1427.29 415L1428.44 410.059C1413.82 408.547 1402.96 406.742 1395.55 404.736L1392.73 409.368L1389.9 414C1398.88 416.431 1411.05 418.381 1426.13 419.941L1427.29 415ZM1392.73 409.368H1400.23V370.712H1392.73H1385.23V409.368H1392.73ZM1392.73 370.712L1389.59 375.255C1399.62 378.326 1411 380.815 1423.69 382.754L1425.37 377.88L1427.04 373.006C1415.15 371.19 1404.78 368.901 1395.86 366.169L1392.73 370.712ZM1425.37 377.88L1423.72 382.759C1436.63 384.69 1448.21 385.696 1458.39 385.696V380.696V375.696C1449.63 375.696 1439.19 374.825 1427.01 373.001L1425.37 377.88ZM1458.39 380.696V385.696C1468.11 385.696 1476 385.296 1481.11 384.159L1478.74 379.416L1476.37 374.673C1473.8 375.243 1468.13 375.696 1458.39 375.696V380.696ZM1478.74 379.416L1481.37 384.098C1484.28 383.372 1487.1 382.246 1489.21 380.491C1491.39 378.667 1492.39 376.513 1492.39 374.296H1484.89H1477.39C1477.39 374.413 1477.36 374.428 1477.39 374.379C1477.41 374.324 1477.46 374.273 1477.49 374.245C1477.55 374.197 1477.3 374.436 1476.11 374.734L1478.74 379.416ZM1484.89 374.296H1492.39C1492.39 367.739 1484.89 363.83 1476.41 361.685L1473.75 366.36L1471.09 371.035C1474.19 371.818 1475.83 372.6 1476.62 373.168C1477.27 373.626 1477.39 373.941 1477.39 374.296H1484.89ZM1473.75 366.36L1476.41 361.685C1468.97 359.804 1458.08 357.071 1443.74 353.486L1441.11 358.168L1438.48 362.85C1452.81 366.433 1463.68 369.161 1471.09 371.035L1473.75 366.36ZM1441.11 358.168L1443.82 353.507C1427.24 349.217 1415.74 344.366 1408.63 339.178L1403.09 342.552L1397.56 345.926C1406.83 352.685 1420.67 358.244 1438.4 362.829L1441.11 358.168ZM1403.09 342.552L1408.7 339.23C1402.03 334.225 1398.31 327.243 1398.31 317.72H1390.81H1383.31C1383.31 329.018 1387.78 338.591 1397.49 345.874L1403.09 342.552ZM1390.81 317.72H1398.31C1398.31 306.709 1404.96 297.715 1418.87 290.417L1414.23 286.488L1409.59 282.559C1392.27 291.645 1383.31 303.473 1383.31 317.72H1390.81ZM1414.23 286.488L1418.87 290.417C1432.56 283.234 1454.49 279.2 1486.04 279.2V274.2V269.2C1453.07 269.2 1427.13 273.358 1409.59 282.559L1414.23 286.488ZM1486.04 274.2V279.2C1498.96 279.2 1512.03 279.863 1525.24 281.192L1526.36 276.248L1527.48 271.304C1513.55 269.903 1499.74 269.2 1486.04 269.2V274.2ZM1526.36 276.248L1525.39 281.206C1539.06 282.388 1549.35 283.712 1556.46 285.133L1558.61 280.344L1560.77 275.555C1552.52 273.904 1541.3 272.498 1527.32 271.289L1526.36 276.248ZM1558.61 280.344H1551.11V318.488H1558.61H1566.11V280.344H1558.61ZM1558.61 318.488L1561.62 313.907C1552.78 311.328 1542.83 309.434 1531.84 308.183L1530.58 313.112L1529.32 318.041C1539.32 319.18 1548.07 320.87 1555.61 323.069L1558.61 318.488ZM1530.58 313.112L1531.87 308.187C1521.36 306.96 1512.08 306.32 1504.09 306.32V311.32V316.32C1510.94 316.32 1519.32 316.874 1529.29 318.037L1530.58 313.112ZM1504.09 311.32V306.32C1495.09 306.32 1487.4 306.756 1481.23 307.736L1482.97 312.6L1484.7 317.464C1489.28 316.737 1495.67 316.32 1504.09 316.32V311.32ZM1482.97 312.6L1481.23 307.736C1477.7 308.297 1474.17 309.324 1471.49 311.196C1468.65 313.177 1467.4 315.66 1467.4 318.232H1474.9H1482.4C1482.4 318.025 1482.45 317.968 1482.43 318.004C1482.42 318.019 1482.4 318.041 1482.38 318.065C1482.36 318.089 1482.34 318.101 1482.34 318.1C1482.35 318.095 1482.86 317.757 1484.7 317.464L1482.97 312.6ZM1474.9 318.232H1467.4C1467.4 324.803 1475.29 328.473 1483.59 330.383L1486.04 325.656L1488.48 320.929C1485.36 320.211 1483.74 319.486 1482.99 318.984C1482.42 318.603 1482.4 318.415 1482.4 318.232H1474.9ZM1486.04 325.656L1483.81 330.431C1491.02 331.922 1500.96 334.269 1513.71 337.498L1516.37 332.824L1519.04 328.15C1506.18 324.894 1495.9 322.462 1488.26 320.881L1486.04 325.656ZM1516.37 332.824L1513.81 337.523C1527.56 340.856 1537.7 344.246 1544.58 347.608L1549.01 343.576L1553.45 339.544C1544.96 335.396 1533.35 331.619 1518.94 328.125L1516.37 332.824ZM1549.01 343.576L1544.71 347.672C1551.39 350.787 1555.55 354.298 1557.74 358.149L1564.76 356.376L1571.77 354.603C1568.33 348.556 1562 343.533 1553.31 339.48L1549.01 343.576ZM1564.76 356.376L1557.86 358.346C1560.4 362.29 1561.87 367.699 1561.87 374.808H1569.37H1576.87C1576.87 366.898 1575.26 360.02 1571.65 354.406L1564.76 356.376ZM1569.37 374.808H1561.87C1561.87 386.133 1555 395.063 1540.75 402.002L1545.17 406.04L1549.6 410.078C1567.6 401.315 1576.87 389.424 1576.87 374.808H1569.37ZM1545.17 406.04L1540.81 401.971C1526.49 408.791 1504.75 412.56 1474.52 412.56V417.56V422.56C1506.24 422.56 1531.6 418.649 1549.53 410.109L1545.17 406.04Z" fill="white" mask="url(#path-2-outside-1_3374_31247)"/>
</g>
<path d="M1383.08 540.297C1365.02 540.297 1350.38 531.847 1350.38 521.424C1350.38 511.001 1365.02 502.551 1383.08 502.551C1401.13 502.551 1415.77 511.001 1415.77 521.424C1415.77 531.847 1401.13 540.297 1383.08 540.297Z" fill="#6BC1BA"/>
<path d="M1641.44 497.404L1624.5 507.18C1623.78 507.54 1623 507.727 1622.2 507.727C1621.41 507.727 1620.62 507.54 1619.91 507.18L1422.29 393.062C1422.02 392.968 1421.78 392.79 1421.61 392.552C1421.43 392.315 1421.34 392.03 1421.34 391.738C1421.34 391.446 1421.43 391.161 1421.61 390.924C1421.78 390.686 1422.02 390.508 1422.29 390.414L1439.24 380.649C1439.95 380.289 1440.73 380.102 1441.53 380.102C1442.33 380.102 1443.11 380.289 1443.82 380.649L1641.44 494.735C1641.72 494.824 1641.97 495.001 1642.15 495.242C1642.33 495.482 1642.42 495.772 1642.42 496.07C1642.42 496.368 1642.33 496.658 1642.15 496.898C1641.97 497.138 1641.72 497.315 1641.44 497.404Z" fill="#6BC1BA"/>
<path d="M1384.37 192.087L1362.86 179.675V259.107C1362.86 262.835 1358.56 266.521 1358.56 266.521L1380.07 278.933C1380.07 278.933 1384.37 275.216 1384.37 271.52V192.087Z" fill="#37474F"/>
<path d="M1410.52 191.875L1401.45 203.43V235.457L1411.25 260.97L1380.02 278.975C1382.74 276.529 1384.1 274.04 1384.32 271.561V206.957L1410.52 191.875Z" fill="#455A64"/>
<path d="M1411.29 260.971V265.938L1380.07 283.964V278.997L1411.29 260.971Z" fill="#1F9B90"/>
<path d="M1380.07 283.964L1358.56 271.551V266.584L1380.07 278.997V283.964Z" fill="#1F9B90"/>
<path opacity="0.1" d="M1380.07 283.964L1358.56 271.551V266.584L1380.07 278.997V283.964Z" fill="black"/>
<path d="M1385.35 139.842C1389 137.649 1394.1 137.925 1399.72 141.166L1399.92 141.293C1411.04 147.711 1420.05 163.322 1420.05 176.169V176.402C1420.05 183.053 1417.62 187.649 1413.75 189.651L1397.47 199.183L1370.3 148.653L1385.35 139.842Z" fill="#F0F0F0"/>
<path d="M1413.76 189.651L1397.48 199.183L1388.48 182.439L1418.18 165.281C1419.37 168.772 1420.01 172.428 1420.06 176.116V176.349C1420.06 183.053 1417.63 187.649 1413.76 189.651Z" fill="#E0E0E0"/>
<path d="M1350.2 152.201C1354.33 149.829 1359.89 149.924 1366.09 152.942C1366.73 153.25 1367.39 153.599 1368.06 154.002C1368.73 154.404 1369.6 154.934 1370.37 155.463C1371.65 156.337 1372.88 157.284 1374.05 158.301C1376.3 160.236 1378.37 162.362 1380.25 164.656C1385.45 171.031 1389.31 178.395 1391.58 186.304C1392.65 190.024 1393.21 193.871 1393.25 197.742C1393.25 205.59 1390.56 211.172 1386.19 213.883L1401.74 204.923C1404.62 203.055 1406.97 200.482 1408.58 197.447C1410.18 194.413 1410.99 191.018 1410.91 187.586C1410.88 183.894 1410.36 180.223 1409.37 176.666C1407.13 168.547 1403.21 160.986 1397.87 154.468C1396 152.171 1393.92 150.045 1391.68 148.113C1390.51 147.093 1389.28 146.145 1387.99 145.275C1387.23 144.745 1386.45 144.215 1385.68 143.813C1384.91 143.411 1384.36 143.093 1383.69 142.754C1380.93 141.449 1377.9 140.797 1374.85 140.849C1371.8 140.9 1368.79 141.653 1366.08 143.05L1365.64 143.294L1365.1 143.665L1350.2 152.201Z" fill="#1F9B90"/>
<path opacity="0.1" d="M1401.78 204.924C1404.66 203.056 1407.02 200.483 1408.62 197.448C1410.23 194.413 1411.03 191.019 1410.95 187.586C1410.92 183.895 1410.4 180.224 1409.42 176.667L1391.58 186.305C1392.65 190.025 1393.22 193.872 1393.25 197.743C1393.25 205.591 1390.56 211.172 1386.19 213.884L1401.78 204.924Z" fill="black"/>
<path d="M1342.79 168.575C1342.79 184.684 1354.09 204.267 1368.04 212.316C1375.05 216.372 1381.4 216.733 1385.98 214.032L1386.23 213.884C1390.61 211.172 1393.3 205.591 1393.3 197.743C1393.3 181.634 1382 162.051 1368.05 153.992C1361.09 149.978 1354.78 149.586 1350.21 152.212C1345.65 154.839 1342.79 160.505 1342.79 168.575Z" fill="#1F9B90"/>
<path opacity="0.2" d="M1342.79 168.575C1342.79 184.684 1354.09 204.267 1368.04 212.316C1375.05 216.372 1381.4 216.733 1385.98 214.032L1386.23 213.884C1390.61 211.172 1393.3 205.591 1393.3 197.743C1393.3 181.634 1382 162.051 1368.05 153.992C1361.09 149.978 1354.78 149.586 1350.21 152.212C1345.65 154.839 1342.79 160.505 1342.79 168.575Z" fill="black"/>
<path d="M1265.35 164.413C1265.35 164.413 1290.83 177.482 1312.59 215.176C1316.5 221.939 1319.95 228.96 1322.92 236.188C1333.84 262.994 1332.94 281.465 1332.94 281.465C1340.53 262.867 1349.97 243.613 1365.71 228.87C1371.88 223.135 1378.35 217.73 1385.09 212.676C1389.25 210.251 1391.68 204.998 1391.68 197.754C1391.6 192.683 1390.64 187.666 1388.83 182.926C1387.67 179.72 1386.22 176.623 1384.51 173.67C1380.09 166.002 1373.98 159.308 1367.24 155.421C1360.97 151.799 1355.2 151.28 1351.02 153.685C1343.28 156.987 1335.36 159.882 1327.31 162.359C1306.65 168.586 1285.25 167.125 1265.35 164.413Z" fill="#F0F0F0"/>
<path d="M1322.92 236.188C1333.84 262.994 1332.94 281.464 1332.94 281.464C1340.53 262.866 1349.97 243.612 1365.71 228.869C1371.88 223.135 1378.35 217.73 1385.09 212.676C1389.25 210.25 1391.68 204.997 1391.68 197.753C1391.6 192.683 1390.64 187.666 1388.83 182.926C1369.52 192.564 1338.27 210.388 1322.92 236.188Z" fill="#E0E0E0"/>
<path d="M1217.36 200.762C1217.36 217.559 1222.53 235.945 1231.13 252.922C1242.16 274.665 1258.81 294.079 1277.45 304.818C1310.65 324.009 1337.57 308.472 1337.57 270.154C1337.47 260.961 1336.14 251.823 1333.59 242.988C1326.88 219.663 1314.35 198.427 1297.18 181.274C1294.83 178.965 1292.42 176.794 1289.94 174.761C1288.88 173.913 1287.82 173.087 1286.81 172.293C1285.32 171.156 1283.81 170.079 1282.29 169.063C1280.7 168.004 1279.11 166.998 1277.48 166.066C1244.27 146.906 1217.36 162.433 1217.36 200.762Z" fill="#1F9B90"/>
<path opacity="0.1" d="M1231.14 252.932C1242.17 274.675 1258.82 294.089 1277.46 304.828C1310.65 324.008 1337.57 308.471 1337.57 270.153C1337.47 260.96 1336.14 251.822 1333.59 242.987C1331.35 247.944 1323.28 255.019 1319.67 250.062C1321.89 257.904 1323.06 266.006 1323.15 274.157C1323.15 285.171 1320.69 294.057 1316.06 299.871C1312.1 304.828 1306.65 307.349 1299.88 307.285C1293.31 307.285 1285.66 304.87 1277.77 300.327C1261.88 291.176 1247.34 274.728 1237.01 256.099C1236.95 256.152 1234.92 257.899 1231.14 252.932Z" fill="black"/>
<path d="M1221.47 202.9C1221.47 219.846 1227.41 238.909 1236.98 256.151C1247.32 274.781 1261.89 291.229 1277.75 300.379C1285.64 304.923 1293.28 307.348 1299.86 307.338C1306.63 307.338 1312.07 304.827 1316.03 299.924C1320.67 294.109 1323.13 285.224 1323.13 274.209C1323.04 266.059 1321.87 257.956 1319.64 250.115C1318.8 247.001 1317.8 243.876 1316.67 240.763C1314.66 235.251 1312.29 229.876 1309.58 224.675C1309.03 223.595 1308.45 222.536 1307.87 221.498C1306.9 219.729 1305.9 217.971 1304.85 216.202C1301.33 210.354 1297.36 204.781 1293 199.532C1293 199.532 1292.89 199.416 1292.85 199.352C1290.04 195.981 1287.04 192.767 1283.88 189.725C1281.64 187.607 1279.36 185.605 1277.03 183.72C1276.05 182.936 1275.07 182.184 1274.07 181.453C1272.88 180.585 1271.67 179.748 1270.45 178.943C1269.26 178.17 1268.07 177.439 1266.87 176.74C1258.96 172.165 1251.31 169.771 1244.73 169.761C1230.16 169.729 1221.47 182.142 1221.47 202.9Z" fill="#1F9B90"/>
<path opacity="0.3" d="M1221.47 202.9C1221.47 219.846 1227.41 238.909 1236.98 256.151C1247.32 274.781 1261.89 291.229 1277.75 300.379C1285.64 304.923 1293.28 307.348 1299.86 307.338C1306.63 307.338 1312.07 304.827 1316.03 299.924C1320.67 294.109 1323.13 285.224 1323.13 274.209C1323.04 266.059 1321.87 257.956 1319.64 250.115C1318.8 247.001 1317.8 243.876 1316.67 240.763C1314.66 235.251 1312.29 229.876 1309.58 224.675C1309.03 223.595 1308.45 222.536 1307.87 221.498C1306.9 219.729 1305.9 217.971 1304.85 216.202C1301.33 210.354 1297.36 204.781 1293 199.532C1293 199.532 1292.89 199.416 1292.85 199.352C1290.04 195.981 1287.04 192.767 1283.88 189.725C1281.64 187.607 1279.36 185.605 1277.03 183.72C1276.05 182.936 1275.07 182.184 1274.07 181.453C1272.88 180.585 1271.67 179.748 1270.45 178.943C1269.26 178.17 1268.07 177.439 1266.87 176.74C1258.96 172.165 1251.31 169.771 1244.73 169.761C1230.16 169.729 1221.47 182.142 1221.47 202.9Z" fill="black"/>
<path d="M1272.54 212.316L1293.62 251.693C1299.54 249.469 1309.57 245.91 1317.74 243.824C1317.4 242.765 1317.04 241.706 1316.68 240.721C1314.67 235.209 1312.31 229.834 1309.59 224.633C1309.04 223.553 1308.46 222.494 1307.88 221.456C1306.91 219.687 1305.91 217.929 1304.86 216.16C1301.34 210.312 1297.37 204.739 1293.01 199.49C1293.01 199.49 1292.9 199.373 1292.86 199.31C1292.22 198.558 1291.59 197.806 1290.94 197.075C1285.26 202.682 1279.1 207.781 1272.54 212.316Z" fill="#E0E0E0"/>
<path d="M1291.87 251.587C1296.63 251.587 1299.48 247.732 1299.48 241.282V241.102C1299.48 230.966 1292.33 218.596 1283.59 213.565L1283.41 213.47C1281.42 212.198 1279.13 211.468 1276.76 211.352C1272.01 211.352 1269.16 215.207 1269.16 221.646V221.847C1269.16 231.983 1276.3 244.353 1285.04 249.384L1285.21 249.479C1287.21 250.745 1289.5 251.474 1291.87 251.597V251.587Z" fill="#F5F5F5"/>
<path d="M1430.93 221.933C1431.7 221.587 1432.54 221.447 1433.38 221.527C1434.22 221.607 1435.02 221.904 1435.71 222.389L1617.87 327.536C1620.04 328.956 1621.79 330.926 1622.95 333.244L1631.55 328.277C1630.37 325.964 1628.6 324.005 1626.42 322.6L1444.32 217.421C1442.41 216.362 1440.69 216.278 1439.37 217.072L1430.93 221.933Z" fill="#455A64"/>
<path d="M1631.28 496.843C1632.89 495.942 1633.91 493.814 1633.91 490.785V336.866C1633.91 336.516 1633.91 336.167 1633.91 335.807C1633.91 335.447 1633.91 335.32 1633.84 335.076C1633.76 334.832 1633.78 334.61 1633.74 334.377C1633.72 334.21 1633.69 334.043 1633.65 333.879C1633.54 333.289 1633.39 332.705 1633.21 332.132C1633.15 331.878 1633.06 331.623 1632.98 331.369C1632.89 331.115 1632.72 330.681 1632.6 330.31C1632.6 330.31 1632.6 330.236 1632.54 330.204C1632.41 329.865 1632.27 329.537 1632.11 329.219C1631.95 328.902 1631.77 328.531 1631.59 328.16L1622.95 333.244C1623.14 333.593 1623.32 333.953 1623.5 334.303C1623.68 334.652 1623.76 334.896 1623.88 335.193C1623.88 335.238 1623.88 335.284 1623.88 335.33C1624.03 335.669 1624.16 336.019 1624.27 336.389C1624.39 336.76 1624.52 337.12 1624.61 337.448C1624.69 337.72 1624.76 337.996 1624.81 338.275C1625.1 339.44 1625.24 340.634 1625.25 341.833V495.741C1625.25 498.802 1624.19 500.952 1622.58 501.842L1631.28 496.843Z" fill="#263238"/>
<path d="M1435.71 222.389L1617.87 327.525C1622 329.919 1625.35 336.316 1625.35 341.823V495.742C1625.35 501.249 1622 503.78 1617.87 501.397L1435.71 396.261C1431.58 393.878 1428.23 387.47 1428.23 381.963V228.044C1428.23 222.537 1431.58 220.006 1435.71 222.389Z" fill="#37474F"/>
<path d="M1445.74 394.883L1607.78 488.444C1609.9 489.673 1611.67 488.359 1611.67 485.51V336.315C1611.67 333.456 1609.93 330.141 1607.78 328.902L1445.74 235.352C1443.62 234.113 1441.86 235.426 1441.86 238.275V387.47C1441.86 390.329 1443.6 393.613 1445.74 394.883Z" fill="#1F9B90"/>
<path opacity="0.1" d="M1445.74 394.883L1607.78 488.444C1609.9 489.673 1611.67 488.359 1611.67 485.51V336.315C1611.67 333.456 1609.93 330.141 1607.78 328.902L1445.74 235.352C1443.62 234.113 1441.86 235.426 1441.86 238.275V387.47C1441.86 390.329 1443.6 393.613 1445.74 394.883Z" fill="black"/>
<path d="M1615.98 419.211C1615.99 420.147 1616.23 421.067 1616.66 421.896C1617.1 422.726 1617.72 423.442 1618.48 423.988C1619.87 424.793 1620.99 423.988 1620.99 422.102C1620.98 421.163 1620.74 420.24 1620.31 419.409C1619.87 418.577 1619.24 417.86 1618.48 417.315C1617.1 416.51 1615.98 417.368 1615.98 419.211Z" fill="#E0E0E0"/>
<path d="M1618.48 394.534C1618.94 394.866 1619.32 395.302 1619.58 395.805C1619.85 396.309 1619.99 396.867 1620 397.436V410.717C1620 411.84 1619.32 412.348 1618.48 411.861C1618.02 411.531 1617.64 411.098 1617.38 410.596C1617.11 410.094 1616.97 409.537 1616.96 408.97V395.731C1616.96 394.566 1617.64 394.058 1618.48 394.534Z" fill="#E0E0E0"/>
<path d="M1457.52 254.797L1586.59 329.315V476.148L1457.52 401.683V254.797Z" fill="#FAFAFA"/>
<path d="M1457.52 254.797L1461.83 252.318L1590.89 326.826L1586.59 329.315L1457.52 254.797Z" fill="white"/>
<path d="M1590.89 326.826L1586.59 329.315V476.148L1590.89 478.627V326.826Z" fill="#E0E0E0"/>
<path d="M1506.3 316.748V297.856L1509.8 299.88L1516.76 315.193V303.899L1520.88 306.275V325.167L1517.35 323.129L1510.39 307.845V319.11L1506.3 316.748ZM1526 328.127V309.235L1538.07 316.202V319.84L1530.09 315.234V319.194L1537.13 323.257V326.954L1530.09 322.891V326.851L1538.07 331.457V335.094L1526 328.127ZM1545.87 339.594L1542.05 318.501L1546.07 320.819L1548.23 333.448L1550.46 326.026V323.356L1553.82 325.293L1556.64 338.332L1558.9 328.226L1562.91 330.544L1559.13 347.25L1555.34 345.065L1552.6 332.568L1549.65 341.779L1545.87 339.594ZM1572.24 355.116C1571.16 354.49 1570.14 353.806 1569.19 353.063C1568.26 352.349 1567.46 351.62 1566.78 350.877V346.858C1567.53 347.66 1568.35 348.438 1569.25 349.19C1570.16 349.953 1571.02 350.569 1571.84 351.039C1572.85 351.625 1573.61 351.953 1574.1 352.021C1574.61 352.1 1574.86 351.777 1574.86 351.053C1574.86 350.564 1574.73 350.1 1574.48 349.66C1574.24 349.23 1573.84 348.746 1573.28 348.208C1572.74 347.66 1572 346.956 1571.05 346.096C1569.93 345.059 1569.04 344.115 1568.38 343.265C1567.72 342.394 1567.25 341.534 1566.96 340.683C1566.67 339.832 1566.53 338.908 1566.53 337.911C1566.53 336.112 1567.09 335.056 1568.2 334.743C1569.32 334.43 1570.97 334.904 1573.16 336.165C1574.11 336.713 1575.03 337.334 1575.93 338.028C1576.82 338.703 1577.55 339.309 1578.11 339.847V343.895C1577.38 343.142 1576.65 342.473 1575.9 341.886C1575.17 341.309 1574.46 340.82 1573.77 340.419C1572.85 339.891 1572.11 339.559 1571.53 339.422C1570.97 339.295 1570.69 339.583 1570.69 340.287C1570.69 340.698 1570.8 341.089 1571 341.461C1571.2 341.813 1571.55 342.228 1572.04 342.707C1572.55 343.196 1573.23 343.827 1574.1 344.599C1575.44 345.783 1576.46 346.873 1577.17 347.87C1577.88 348.848 1578.37 349.797 1578.65 350.716C1578.92 351.616 1579.05 352.535 1579.05 353.473C1579.05 355.136 1578.49 356.163 1577.38 356.554C1576.26 356.925 1574.55 356.446 1572.24 355.116Z" fill="#455A64"/>
<path d="M1467.61 270.641L1502.03 290.52V313.894L1467.61 294.015V270.641Z" fill="#E0E0E0"/>
<path d="M1467.61 307.625L1578.39 371.583V365.536L1467.61 301.577V307.625Z" fill="#1F9B90"/>
<path d="M1543.26 414.18L1578.39 434.462V379.145L1543.26 358.863V414.18Z" fill="#455A64"/>
<path d="M1549.17 371.086L1572.47 384.547C1572.9 384.79 1573.25 384.547 1573.25 383.964C1573.25 383.675 1573.17 383.39 1573.04 383.135C1572.9 382.879 1572.71 382.659 1572.47 382.492L1549.17 369.042C1548.75 368.788 1548.4 369.042 1548.4 369.624C1548.4 369.911 1548.48 370.193 1548.61 370.447C1548.74 370.7 1548.94 370.919 1549.17 371.086Z" fill="white"/>
<path d="M1549.17 381.01L1572.47 394.46C1572.9 394.704 1573.25 394.46 1573.25 393.878C1573.25 393.586 1573.17 393.301 1573.04 393.043C1572.9 392.786 1572.71 392.564 1572.47 392.395L1549.17 378.944C1548.75 378.701 1548.4 378.944 1548.4 379.527C1548.4 379.817 1548.47 380.102 1548.61 380.36C1548.74 380.617 1548.93 380.84 1549.17 381.01Z" fill="white"/>
<path d="M1549.17 390.923L1572.47 404.373C1572.9 404.627 1573.25 404.373 1573.25 403.791C1573.25 403.5 1573.18 403.216 1573.04 402.96C1572.9 402.703 1572.71 402.484 1572.47 402.318L1549.17 388.857C1548.75 388.614 1548.4 388.857 1548.4 389.45C1548.4 389.739 1548.47 390.022 1548.61 390.278C1548.74 390.534 1548.94 390.754 1549.17 390.923Z" fill="white"/>
<path d="M1549.17 400.836L1572.47 414.297C1572.9 414.54 1573.25 414.297 1573.25 413.714C1573.25 413.423 1573.18 413.136 1573.04 412.879C1572.9 412.621 1572.71 412.399 1572.47 412.231L1549.17 398.781C1548.75 398.527 1548.4 398.781 1548.4 399.363C1548.4 399.652 1548.47 399.936 1548.61 400.192C1548.74 400.447 1548.93 400.668 1549.17 400.836Z" fill="white"/>
<path d="M1549.17 410.76L1572.47 424.21C1572.9 424.454 1573.25 424.21 1573.25 423.628C1573.25 423.336 1573.17 423.051 1573.04 422.793C1572.9 422.536 1572.71 422.314 1572.47 422.145L1549.17 408.694C1548.75 408.451 1548.4 408.694 1548.4 409.277C1548.4 409.567 1548.47 409.852 1548.61 410.11C1548.74 410.367 1548.93 410.59 1549.17 410.76Z" fill="white"/>
<path d="M1549.17 375.82L1572.47 389.27C1572.9 389.514 1573.25 389.27 1573.25 388.688C1573.25 388.396 1573.18 388.11 1573.04 387.852C1572.9 387.594 1572.71 387.373 1572.47 387.205L1549.17 373.755C1548.75 373.5 1548.4 373.755 1548.4 374.337C1548.4 374.627 1548.47 374.912 1548.61 375.169C1548.74 375.427 1548.94 375.649 1549.17 375.82Z" fill="white"/>
<path d="M1549.17 385.733L1572.47 399.184C1572.9 399.438 1573.25 399.184 1573.25 398.601C1573.25 398.31 1573.17 398.024 1573.04 397.767C1572.9 397.509 1572.71 397.287 1572.47 397.119L1549.17 383.668C1548.75 383.424 1548.4 383.668 1548.4 384.251C1548.4 384.541 1548.47 384.826 1548.61 385.083C1548.74 385.341 1548.93 385.563 1549.17 385.733Z" fill="white"/>
<path d="M1549.17 395.646L1572.47 409.107C1572.9 409.351 1573.25 409.107 1573.25 408.514C1573.25 408.224 1573.18 407.939 1573.04 407.683C1572.9 407.427 1572.71 407.207 1572.47 407.042L1549.17 393.581C1548.75 393.337 1548.4 393.581 1548.4 394.174C1548.4 394.463 1548.47 394.746 1548.61 395.002C1548.74 395.257 1548.94 395.478 1549.17 395.646Z" fill="white"/>
<path d="M1549.17 405.57L1572.47 419.02C1572.9 419.264 1573.25 419.02 1573.25 418.438C1573.25 418.146 1573.18 417.86 1573.04 417.602C1572.9 417.344 1572.71 417.123 1572.47 416.955L1549.17 403.505C1548.75 403.25 1548.4 403.505 1548.4 404.087C1548.4 404.377 1548.47 404.662 1548.61 404.919C1548.74 405.177 1548.94 405.399 1549.17 405.57Z" fill="white"/>
<path d="M1467.61 407.455L1535.49 446.652V354.373L1467.61 315.187V407.455Z" fill="#E0E0E0"/>
<path d="M1530.71 355.94L1471.71 321.88C1470.88 321.393 1470.2 321.784 1470.2 322.738V371.17C1470.23 371.69 1470.39 372.196 1470.65 372.647C1470.91 373.097 1471.27 373.48 1471.71 373.765L1530.7 407.836C1531.54 408.313 1532.2 407.921 1532.2 406.968V358.535C1532.18 358.016 1532.03 357.51 1531.77 357.06C1531.51 356.609 1531.14 356.225 1530.71 355.94Z" fill="#1F9B90"/>
<path opacity="0.8" d="M1530.71 355.94L1471.71 321.88C1470.88 321.393 1470.2 321.784 1470.2 322.738V371.17C1470.23 371.69 1470.39 372.196 1470.65 372.647C1470.91 373.097 1471.27 373.48 1471.71 373.765L1530.7 407.836C1531.54 408.313 1532.2 407.921 1532.2 406.968V358.535C1532.18 358.016 1532.03 357.51 1531.77 357.06C1531.51 356.609 1531.14 356.225 1530.71 355.94Z" fill="white"/>
<path d="M1486.66 349.819L1496.52 367.263L1489.6 376.244L1512.48 356.545L1532.2 399.258V406.989C1532.2 407.943 1531.54 408.334 1530.7 407.858L1471.71 373.787C1471.27 373.502 1470.91 373.119 1470.65 372.668C1470.39 372.218 1470.23 371.712 1470.2 371.192V364.89L1486.66 349.819Z" fill="#1F9B90"/>
<path d="M1479.85 333.827C1478.22 332.884 1476.9 333.647 1476.9 335.532C1476.95 336.558 1477.25 337.557 1477.76 338.448C1478.28 339.339 1478.99 340.096 1479.85 340.658C1481.48 341.601 1482.81 340.838 1482.81 338.953C1482.75 337.926 1482.46 336.928 1481.94 336.037C1481.43 335.146 1480.71 334.389 1479.85 333.827Z" fill="#1F9B90"/>
<path d="M1520.1 410.156L1470.43 381.476V401.344L1520.1 430.025V410.156Z" fill="#F0F0F0"/>
<path d="M1524.62 432.629L1578.39 463.672V443.813L1524.62 412.761V432.629Z" fill="#1F9B90"/>
<path d="M1386.95 330.69H1386.05C1382 330.693 1378.12 332.302 1375.26 335.164C1372.4 338.026 1370.8 341.906 1370.8 345.952V363.247H1388.9C1392.42 363.236 1395.8 361.828 1398.28 359.333C1400.77 356.837 1402.17 353.458 1402.17 349.934V345.952C1402.17 341.912 1400.57 338.036 1397.71 335.175C1394.86 332.315 1390.99 330.702 1386.95 330.69Z" fill="#263238"/>
<path d="M1400.19 334.715C1399.92 334.767 1399.67 334.871 1399.44 335.02C1399.22 335.17 1399.03 335.362 1398.88 335.587C1398.73 335.811 1398.62 336.063 1398.57 336.327C1398.51 336.592 1398.51 336.865 1398.57 337.13L1402.6 336.325C1402.49 335.792 1402.18 335.323 1401.73 335.021C1401.27 334.719 1400.72 334.609 1400.19 334.715Z" fill="#263238"/>
<path d="M1397.55 333.836C1397.4 334.356 1397.45 334.914 1397.69 335.397C1397.94 335.88 1398.36 336.25 1398.87 336.431L1400.14 332.523C1399.89 332.438 1399.62 332.405 1399.35 332.426C1399.08 332.446 1398.82 332.519 1398.57 332.641C1398.33 332.763 1398.12 332.932 1397.94 333.137C1397.77 333.342 1397.63 333.579 1397.55 333.836Z" fill="#263238"/>
<path d="M1370.33 515.958C1368.5 517.878 1366.5 519.622 1364.35 521.169C1364 521.382 1363.72 521.677 1363.51 522.027C1363.23 522.62 1362.79 524.071 1365.47 525.003C1366.82 525.475 1368.27 525.648 1369.69 525.511C1371.12 525.374 1372.5 524.93 1373.74 524.208C1375.93 522.832 1376.04 519.972 1378.12 518.33C1379.65 517.123 1381.58 516.816 1382.82 515.227C1383.69 514.168 1383.45 512.664 1383.01 510.843C1382.56 509.021 1382.29 507.369 1381.63 507.517L1381.74 508.428C1380.92 509.741 1376.68 510.122 1374.79 509.222C1373.42 511.545 1371.94 513.793 1370.33 515.958Z" fill="#263238"/>
<path d="M1368.48 517.811C1369.12 517.229 1369.74 516.625 1370.33 515.969C1371.59 514.344 1372.75 512.642 1373.8 510.874C1374.52 509.801 1374.87 508.513 1374.77 507.22L1374.24 502.338L1380.96 501.861L1381.74 508.449C1381.9 509.942 1380.68 511.266 1378.48 513.151C1376.28 515.037 1373.52 519.432 1371.54 520.565C1369.56 521.698 1368.14 521.624 1367.3 521.063C1366.47 520.501 1366.35 519.982 1368.48 517.811Z" fill="#FFA8A7"/>
<path d="M1395.89 516.551V515.545C1395.49 516.731 1393.64 521.825 1390.84 524.388C1388.61 526.411 1385.54 528.763 1384.8 531.029C1384.06 533.295 1389.04 534.206 1391.16 533.804C1393.93 533.339 1396.48 531.973 1398.4 529.917C1399.6 528.445 1400.36 526.74 1401.22 525.543C1402.07 524.346 1404.04 523.096 1404.51 521.751C1404.65 520.5 1404.51 519.234 1404.1 518.044C1403.77 516.805 1403.42 515.429 1403.04 515.545V516.318C1402.01 517.131 1400.73 517.559 1399.42 517.526C1398.39 517.526 1395.88 517.345 1395.89 516.551Z" fill="#263238"/>
<path d="M1388.82 526.168C1389.51 525.554 1390.21 524.95 1390.84 524.378C1392.72 522.393 1394.18 520.053 1395.15 517.494C1395.64 516.316 1395.89 515.052 1395.89 513.777V509.752H1402.95V516.308V516.467C1402.61 517.939 1399.37 521.836 1397.53 524.389C1396.04 526.571 1393.76 528.089 1391.18 528.625C1388.4 529.028 1387.1 528.18 1388.82 526.168Z" fill="#FFA8A7"/>
<path d="M1401.54 406.808C1407.02 418.765 1401.34 460.885 1401.34 460.885C1401.51 462.824 1403.73 466.647 1404.52 475.183C1405.51 485.276 1403 510.61 1403 510.61C1401.92 511.235 1400.71 511.588 1399.46 511.638C1398.22 511.688 1396.98 511.433 1395.86 510.896C1395.86 510.896 1389.13 472.768 1387.86 462.707C1386.8 453.948 1384.68 433.37 1384.68 433.37L1379.18 462.898C1380.18 465.66 1380.89 468.521 1381.29 471.434C1381.87 477.333 1381.43 504.637 1381.43 504.637C1381.43 504.637 1379.03 506.469 1374.4 505.791C1374.4 505.791 1366.39 468.416 1365.77 461.309C1365.4 457.073 1370.24 405.05 1370.24 405.05L1401.54 406.808Z" fill="#37474F"/>
<path d="M1384.67 433.37L1382.89 423.594C1382.89 423.594 1375.37 422.037 1371.96 418.828C1374.32 421.586 1377.39 423.633 1380.85 424.738L1382.85 433.285L1379.67 459.995L1384.67 433.37Z" fill="#263238"/>
<path d="M1415.29 399.087C1415.11 398.314 1412.36 390.275 1410.64 385.806L1401.39 390.307L1404.45 398.547L1413.67 403.842C1416.15 402.931 1415.46 399.849 1415.29 399.087Z" fill="#FFA8A7"/>
<path d="M1362.86 383.963L1358.21 392.489L1365.45 398.695L1372.08 388.189L1362.86 383.963Z" fill="#FFA8A7"/>
<path d="M1380.32 364.952C1375.71 364.952 1370.63 366.678 1368.88 370.248C1367.13 373.817 1361.57 385.075 1361.57 385.075C1361.57 385.075 1366.59 389.703 1373.07 389.311L1380.32 364.952Z" fill="#1F9B90"/>
<path opacity="0.3" d="M1380.32 364.952C1375.71 364.952 1370.63 366.678 1368.88 370.248C1367.13 373.817 1361.57 385.075 1361.57 385.075C1361.57 385.075 1366.59 389.703 1373.07 389.311L1380.32 364.952Z" fill="black"/>
<path d="M1389.87 365.111L1394.11 365.27C1398.28 366.276 1399.4 369.146 1401.19 372.853C1402.48 375.708 1402.61 378.954 1401.53 381.898L1396.64 396.047C1396.64 396.047 1398.93 401.576 1401.59 406.808C1389.31 413.66 1373.99 410.059 1370.3 405.06C1370.14 404.001 1370.35 399.225 1370.06 393.781C1369.74 387.988 1368.94 381.432 1369.85 377.894C1371.45 371.201 1374.63 364.952 1380.99 364.952L1389.87 365.111Z" fill="#1F9B90"/>
<path d="M1394.07 365.27C1399.95 364.952 1404.1 366.329 1407.51 375.956C1409.85 382.554 1412.8 390.222 1412.8 390.222C1412.8 390.222 1409.14 393.876 1402.21 393.844C1402.17 393.844 1392.95 371.773 1394.07 365.27Z" fill="#1F9B90"/>
<path opacity="0.3" d="M1394.07 365.27C1399.95 364.952 1404.1 366.329 1407.51 375.956C1409.85 382.554 1412.8 390.222 1412.8 390.222C1412.8 390.222 1409.14 393.876 1402.21 393.844C1402.17 393.844 1392.95 371.773 1394.07 365.27Z" fill="black"/>
<path d="M1375.96 337.034C1374.29 338.019 1372.25 342.192 1372.45 350.94C1372.62 358.354 1375.02 360.186 1376.23 360.716C1377.44 361.245 1379.76 360.917 1382.02 360.546V365.016C1382.02 365.016 1378.85 368.648 1379.09 370.682C1379.33 372.715 1383.61 373.213 1386.5 371.211C1388.4 369.848 1390.03 368.146 1391.3 366.191V355.41C1391.54 355.701 1391.84 355.943 1392.17 356.12C1392.5 356.298 1392.87 356.407 1393.24 356.443C1393.62 356.478 1393.99 356.439 1394.35 356.327C1394.71 356.215 1395.05 356.033 1395.34 355.791C1397.83 354.128 1397.92 350.029 1396.47 348.547C1395.02 347.064 1391.9 347.54 1391.3 349.606C1388.33 349.478 1385.45 348.616 1382.89 347.096C1381.03 346.083 1379.42 344.644 1378.22 342.896C1377.01 341.148 1376.24 339.139 1375.96 337.034Z" fill="#FFA8A7"/>
<path d="M1380.41 349.182C1380.41 349.365 1380.46 349.545 1380.56 349.698C1380.66 349.852 1380.8 349.973 1380.97 350.046C1381.14 350.119 1381.33 350.142 1381.51 350.11C1381.69 350.079 1381.85 349.995 1381.99 349.869C1382.12 349.744 1382.21 349.581 1382.25 349.403C1382.29 349.225 1382.28 349.039 1382.22 348.867C1382.16 348.696 1382.04 348.547 1381.89 348.439C1381.75 348.331 1381.57 348.269 1381.39 348.261C1381.14 348.255 1380.89 348.349 1380.71 348.521C1380.53 348.694 1380.42 348.931 1380.41 349.182Z" fill="#263238"/>
<path d="M1380.48 355.356L1378.36 356.055C1378.4 356.2 1378.47 356.334 1378.56 356.452C1378.65 356.569 1378.77 356.667 1378.9 356.739C1379.03 356.811 1379.18 356.856 1379.33 356.871C1379.48 356.887 1379.63 356.872 1379.77 356.829C1380.05 356.721 1380.29 356.508 1380.42 356.234C1380.55 355.96 1380.57 355.646 1380.48 355.356Z" fill="#F28F8F"/>
<path d="M1373.09 346.217L1374.97 344.893C1374.9 344.761 1374.8 344.647 1374.67 344.557C1374.55 344.468 1374.41 344.407 1374.26 344.377C1374.11 344.346 1373.96 344.349 1373.81 344.383C1373.66 344.417 1373.53 344.483 1373.41 344.575C1373.15 344.755 1372.98 345.026 1372.92 345.332C1372.86 345.638 1372.92 345.955 1373.09 346.217Z" fill="#263238"/>
<path d="M1373.35 349.023C1373.35 349.205 1373.4 349.383 1373.5 349.535C1373.61 349.687 1373.75 349.806 1373.91 349.878C1374.08 349.95 1374.27 349.971 1374.45 349.939C1374.63 349.907 1374.79 349.824 1374.92 349.699C1375.06 349.573 1375.15 349.412 1375.19 349.235C1375.23 349.058 1375.22 348.873 1375.16 348.702C1375.1 348.531 1374.98 348.382 1374.84 348.273C1374.69 348.165 1374.52 348.101 1374.34 348.091C1374.08 348.085 1373.84 348.18 1373.65 348.355C1373.47 348.529 1373.36 348.769 1373.35 349.023Z" fill="#263238"/>
<path d="M1377.91 347.869L1377.77 353.482L1374.81 352.572L1377.91 347.869Z" fill="#F28F8F"/>
<path d="M1382.05 360.546C1384.43 360.229 1389.33 358.82 1390.11 356.882C1389.79 357.863 1389.19 358.727 1388.38 359.36C1386.92 360.61 1382.02 362.029 1382.02 362.029L1382.05 360.546Z" fill="#F28F8F"/>
<path d="M1346.11 379.61L1377.99 390.572L1387.95 431.856L1357.41 420.555L1346.11 379.61Z" fill="#F5F5F5"/>
<path d="M1383.07 420.396L1356.77 411.225L1358.73 418.829L1384.98 428.414L1383.07 420.396Z" fill="#E0E0E0"/>
<path d="M1366.51 408.884L1367.24 413.554L1356.39 409.508L1355.01 404.689L1366.51 408.884Z" fill="#E6E6E6"/>
<path d="M1378.32 400.622L1366.45 396.534L1369.63 414.38L1382.89 418.828L1378.32 400.622Z" fill="#E0E0E0"/>
<path d="M1351.3 391.027L1354.5 402.624L1366.14 406.935L1364.14 395.899L1351.3 391.027Z" fill="#E6E6E6"/>
<path d="M1349.01 382.713L1376.48 392.086L1378.01 398.419L1350.61 388.549L1349.01 382.713Z" fill="#E0E0E0"/>
<path opacity="0.15" d="M1358.75 405.347C1358.49 406.035 1357.01 407.931 1353.86 407.783L1353.47 406.395L1358.75 405.347Z" fill="black"/>
<path opacity="0.15" d="M1368.78 406.712C1368.89 407.612 1370.74 409.264 1373.85 410.302C1377.39 411.488 1382.89 410.906 1382.89 410.906L1382.48 409.148L1368.78 406.712Z" fill="black"/>
<path d="M1413.67 403.842L1403.98 397.308C1403.98 397.308 1389.43 402.667 1387.28 402.836C1386.14 402.869 1385.02 402.556 1384.06 401.937C1383.1 401.319 1382.35 400.425 1381.91 399.373C1381.09 397.255 1379.64 397.519 1379.64 397.519C1379.64 397.519 1380.28 400.199 1380.49 401.057C1380.7 401.915 1375.53 402.614 1372.66 401.65C1369.79 400.686 1365.66 402.084 1368.23 405.982C1370.79 409.879 1375.79 410.324 1379.25 410.335C1380.7 410.324 1382.15 410.225 1383.59 410.038C1384.72 409.9 1385.83 409.784 1386.95 409.699C1394.06 409.201 1410.44 404.848 1413.67 403.842Z" fill="#FFA8A7"/>
<path d="M1349.8 392.944C1349.8 392.944 1350.75 396.397 1350.98 397.18C1351.21 397.964 1354.36 399.5 1356.34 400.051C1358.32 400.601 1360.51 401.247 1359.52 404.022C1358.65 406.596 1355.38 407.199 1353.7 407.104C1352.58 406.914 1351.54 406.418 1350.68 405.67C1349.83 404.922 1349.2 403.952 1348.86 402.868C1347.71 399.595 1348.33 396.1 1347.88 394.183C1347.42 392.266 1348.8 391.8 1349.8 392.944Z" fill="#FFA8A7"/>
<path d="M1249.53 365.906L1204.73 337.215L1185 343.559L1249.53 365.906Z" fill="#1F9B90"/>
<path d="M1249.53 365.906L1210.81 333.614L1219.41 323.68L1249.53 365.906Z" fill="#1F9B90"/>
<path d="M1210.81 333.614V341.113L1249.53 365.906L1210.81 333.614Z" fill="#1F9B90"/>
<path opacity="0.3" d="M1210.81 333.614V341.113L1249.53 365.906L1210.81 333.614Z" fill="black"/>
<path d="M1308.44 364.985L1275.39 343.824L1260.83 348.495L1308.44 364.985Z" fill="#1F9B90"/>
<path d="M1308.44 364.985L1279.87 341.166L1286.22 333.837L1308.44 364.985Z" fill="#1F9B90"/>
<path d="M1279.87 341.165V346.694L1308.44 364.984L1279.87 341.165Z" fill="#1F9B90"/>
<path opacity="0.3" d="M1279.87 341.165V346.694L1308.44 364.984L1279.87 341.165Z" fill="black"/>
<path d="M1205.18 331.538C1205.34 331.538 1205.49 331.49 1205.63 331.4C1205.76 331.31 1205.86 331.183 1205.92 331.034C1205.98 330.886 1205.99 330.723 1205.95 330.567C1205.92 330.411 1205.83 330.27 1205.72 330.162C1204.2 328.759 1202.81 327.213 1201.59 325.544C1201.46 325.376 1201.27 325.264 1201.07 325.233C1200.86 325.201 1200.65 325.252 1200.48 325.374C1200.39 325.435 1200.32 325.513 1200.26 325.602C1200.21 325.691 1200.17 325.791 1200.16 325.895C1200.14 325.998 1200.14 326.104 1200.17 326.206C1200.2 326.308 1200.24 326.403 1200.31 326.487C1201.59 328.232 1203.05 329.853 1204.64 331.327C1204.78 331.462 1204.98 331.537 1205.18 331.538ZM1198.17 322.314C1198.29 322.311 1198.41 322.282 1198.53 322.229C1198.71 322.132 1198.85 321.967 1198.91 321.769C1198.98 321.571 1198.96 321.356 1198.87 321.17C1197.93 319.325 1197.17 317.396 1196.6 315.408C1196.57 315.308 1196.53 315.213 1196.46 315.131C1196.4 315.049 1196.32 314.98 1196.23 314.928C1196.14 314.877 1196.04 314.844 1195.93 314.832C1195.83 314.82 1195.72 314.829 1195.62 314.858C1195.42 314.917 1195.25 315.053 1195.15 315.237C1195.04 315.422 1195.02 315.639 1195.07 315.843C1195.67 317.931 1196.47 319.957 1197.46 321.89C1197.52 322.02 1197.63 322.128 1197.75 322.203C1197.88 322.278 1198.02 322.316 1198.17 322.314ZM1194.8 311.225H1194.89C1195 311.213 1195.1 311.181 1195.19 311.13C1195.28 311.08 1195.36 311.011 1195.42 310.929C1195.49 310.848 1195.53 310.754 1195.56 310.654C1195.59 310.554 1195.6 310.449 1195.58 310.346C1195.43 309.017 1195.35 307.68 1195.35 306.343C1195.35 305.612 1195.35 304.87 1195.41 304.15C1195.42 304.046 1195.41 303.94 1195.38 303.84C1195.34 303.741 1195.29 303.649 1195.22 303.57C1195.15 303.49 1195.07 303.426 1194.97 303.38C1194.88 303.335 1194.78 303.308 1194.67 303.303C1194.57 303.296 1194.46 303.309 1194.36 303.343C1194.27 303.376 1194.18 303.429 1194.1 303.498C1194.02 303.567 1193.96 303.651 1193.91 303.745C1193.87 303.839 1193.84 303.94 1193.83 304.044C1193.78 304.807 1193.76 305.58 1193.76 306.343C1193.76 307.758 1193.84 309.173 1194 310.579C1194.04 310.762 1194.14 310.927 1194.29 311.045C1194.43 311.162 1194.61 311.226 1194.8 311.225ZM1195.35 299.638C1195.53 299.638 1195.71 299.575 1195.85 299.462C1195.99 299.348 1196.08 299.19 1196.12 299.014C1196.56 296.981 1197.16 294.987 1197.91 293.051C1197.99 292.854 1197.98 292.636 1197.9 292.443C1197.81 292.25 1197.65 292.099 1197.46 292.024C1197.26 291.948 1197.04 291.953 1196.85 292.038C1196.66 292.124 1196.51 292.282 1196.43 292.479C1195.64 294.494 1195.02 296.57 1194.57 298.685C1194.52 298.89 1194.57 299.103 1194.68 299.277C1194.8 299.452 1194.98 299.574 1195.18 299.617C1195.23 299.635 1195.29 299.642 1195.35 299.638ZM1199.41 288.761C1199.55 288.761 1199.69 288.722 1199.81 288.65C1199.93 288.577 1200.04 288.473 1200.1 288.348C1201.1 286.505 1202.22 284.735 1203.47 283.053C1203.6 282.884 1203.65 282.673 1203.62 282.464C1203.59 282.255 1203.48 282.067 1203.31 281.941C1203.15 281.815 1202.93 281.76 1202.72 281.79C1202.52 281.82 1202.33 281.931 1202.2 282.1C1200.91 283.828 1199.74 285.643 1198.71 287.533C1198.61 287.716 1198.59 287.929 1198.65 288.127C1198.71 288.325 1198.84 288.491 1199.02 288.592C1199.13 288.681 1199.27 288.739 1199.41 288.761ZM1206.24 279.367C1206.34 279.368 1206.45 279.346 1206.55 279.303C1206.65 279.259 1206.74 279.194 1206.81 279.113C1208.24 277.592 1209.75 276.156 1211.35 274.813C1211.43 274.744 1211.5 274.659 1211.54 274.564C1211.59 274.469 1211.62 274.366 1211.63 274.26C1211.64 274.155 1211.62 274.049 1211.59 273.948C1211.55 273.848 1211.5 273.755 1211.43 273.675C1211.36 273.595 1211.28 273.529 1211.18 273.482C1211.09 273.435 1210.98 273.407 1210.88 273.399C1210.77 273.392 1210.67 273.405 1210.57 273.439C1210.47 273.473 1210.37 273.526 1210.29 273.595C1208.65 274.979 1207.09 276.461 1205.62 278.033C1205.52 278.146 1205.45 278.288 1205.42 278.44C1205.4 278.592 1205.42 278.749 1205.48 278.891C1205.54 279.032 1205.64 279.153 1205.77 279.238C1205.9 279.322 1206.05 279.367 1206.2 279.367H1206.24ZM1215.05 271.816C1215.21 271.812 1215.36 271.761 1215.49 271.668C1217.06 270.609 1218.72 269.549 1220.44 268.565L1220.83 268.342C1220.92 268.29 1221 268.22 1221.06 268.138C1221.13 268.055 1221.17 267.96 1221.2 267.86C1221.23 267.759 1221.24 267.654 1221.22 267.55C1221.21 267.447 1221.17 267.347 1221.12 267.257C1221.07 267.166 1221 267.087 1220.92 267.023C1220.84 266.96 1220.74 266.913 1220.64 266.886C1220.54 266.859 1220.43 266.852 1220.33 266.866C1220.23 266.879 1220.13 266.913 1220.04 266.965L1219.64 267.188C1217.9 268.183 1216.19 269.306 1214.59 270.365C1214.45 270.461 1214.35 270.6 1214.29 270.761C1214.23 270.922 1214.23 271.097 1214.28 271.26C1214.33 271.422 1214.44 271.564 1214.57 271.664C1214.71 271.765 1214.88 271.818 1215.05 271.816ZM1225.01 265.79C1225.15 265.792 1225.29 265.755 1225.41 265.684L1230.91 262.506C1231.01 262.457 1231.1 262.389 1231.16 262.305C1231.23 262.222 1231.29 262.125 1231.32 262.021C1231.35 261.917 1231.35 261.808 1231.34 261.7C1231.33 261.593 1231.29 261.489 1231.24 261.396C1231.18 261.302 1231.11 261.221 1231.02 261.157C1230.93 261.093 1230.83 261.048 1230.73 261.024C1230.62 261 1230.51 260.998 1230.41 261.018C1230.3 261.038 1230.2 261.08 1230.11 261.14L1224.61 264.318C1224.46 264.405 1224.34 264.54 1224.27 264.703C1224.21 264.865 1224.2 265.045 1224.24 265.214C1224.29 265.383 1224.39 265.533 1224.53 265.639C1224.67 265.745 1224.84 265.802 1225.01 265.8V265.79ZM1235.1 259.954C1235.23 259.954 1235.37 259.917 1235.49 259.848L1240.99 256.671C1241.16 256.567 1241.29 256.398 1241.35 256.201C1241.4 256.004 1241.38 255.792 1241.28 255.612C1241.18 255.437 1241.01 255.309 1240.81 255.254C1240.61 255.199 1240.4 255.221 1240.22 255.315L1234.73 258.492C1234.57 258.58 1234.46 258.715 1234.39 258.878C1234.32 259.04 1234.31 259.22 1234.36 259.389C1234.4 259.558 1234.5 259.708 1234.64 259.814C1234.78 259.92 1234.95 259.977 1235.13 259.975L1235.1 259.954ZM1245.18 254.118C1245.32 254.114 1245.45 254.074 1245.57 254.002L1251.07 250.825C1251.24 250.719 1251.37 250.55 1251.43 250.354C1251.48 250.157 1251.46 249.947 1251.36 249.766C1251.26 249.591 1251.09 249.464 1250.89 249.41C1250.7 249.357 1250.49 249.382 1250.31 249.48L1244.81 252.657C1244.63 252.761 1244.5 252.929 1244.45 253.127C1244.39 253.324 1244.42 253.535 1244.51 253.716C1244.59 253.827 1244.68 253.92 1244.8 253.984C1244.92 254.049 1245.05 254.084 1245.18 254.087V254.118ZM1255.25 248.272C1255.39 248.273 1255.53 248.237 1255.65 248.166L1257.57 247.107C1257.66 247.055 1257.74 246.986 1257.8 246.903C1257.87 246.82 1257.91 246.726 1257.94 246.625C1257.97 246.524 1257.98 246.419 1257.96 246.315C1257.95 246.212 1257.91 246.112 1257.86 246.022C1257.81 245.931 1257.74 245.852 1257.66 245.788C1257.58 245.725 1257.48 245.678 1257.38 245.651C1257.28 245.624 1257.17 245.617 1257.07 245.631C1256.97 245.644 1256.87 245.678 1256.78 245.73L1254.86 246.789C1254.69 246.895 1254.56 247.064 1254.5 247.26C1254.45 247.457 1254.47 247.667 1254.56 247.849C1254.63 247.968 1254.73 248.068 1254.86 248.136C1254.98 248.205 1255.11 248.241 1255.25 248.24V248.272Z" fill="#E6E6E6"/>
<path d="M1273.15 341.261C1273.31 341.26 1273.47 341.209 1273.6 341.115C1273.73 341.022 1273.83 340.89 1273.89 340.738C1273.94 340.586 1273.95 340.421 1273.91 340.265C1273.87 340.108 1273.78 339.968 1273.66 339.863L1269.71 336.601C1269.63 336.532 1269.53 336.479 1269.43 336.445C1269.33 336.411 1269.23 336.398 1269.12 336.405C1269.01 336.413 1268.91 336.441 1268.82 336.488C1268.72 336.535 1268.64 336.601 1268.57 336.681C1268.5 336.761 1268.44 336.853 1268.41 336.954C1268.38 337.054 1268.36 337.161 1268.37 337.266C1268.38 337.372 1268.41 337.475 1268.45 337.57C1268.5 337.665 1268.57 337.75 1268.65 337.819L1272.6 341.081C1272.75 341.211 1272.95 341.276 1273.15 341.261ZM1265.11 334.631C1265.23 334.633 1265.34 334.608 1265.45 334.558C1265.55 334.509 1265.65 334.436 1265.72 334.345C1265.86 334.182 1265.92 333.972 1265.9 333.762C1265.88 333.552 1265.78 333.359 1265.62 333.223L1260.71 329.177C1260.55 329.051 1260.34 328.993 1260.14 329.017C1259.93 329.04 1259.74 329.143 1259.61 329.303C1259.48 329.462 1259.42 329.667 1259.44 329.873C1259.45 330.079 1259.55 330.27 1259.71 330.405L1264.6 334.451C1264.74 334.566 1264.92 334.63 1265.11 334.631ZM1256.28 327.048C1256.49 327.045 1256.7 326.957 1256.85 326.805C1257 326.656 1257.08 326.454 1257.08 326.243C1257.08 326.033 1257 325.831 1256.85 325.682C1255.36 324.226 1253.95 322.695 1252.61 321.096C1252.47 320.939 1252.28 320.841 1252.07 320.823C1251.86 320.806 1251.65 320.869 1251.49 321.001C1251.33 321.138 1251.23 321.333 1251.21 321.543C1251.19 321.752 1251.26 321.961 1251.39 322.123C1252.75 323.723 1254.22 325.301 1255.79 326.826C1255.92 326.956 1256.09 327.034 1256.28 327.048ZM1248.71 318.215C1248.87 318.212 1249.03 318.16 1249.16 318.067C1249.32 317.95 1249.43 317.775 1249.47 317.578C1249.51 317.381 1249.47 317.177 1249.36 317.008C1248.16 315.31 1247.07 313.542 1246.09 311.712C1246.04 311.611 1245.98 311.519 1245.9 311.444C1245.82 311.368 1245.73 311.31 1245.62 311.273C1245.52 311.236 1245.41 311.221 1245.3 311.229C1245.19 311.237 1245.08 311.268 1244.98 311.319C1244.89 311.371 1244.8 311.442 1244.73 311.529C1244.66 311.615 1244.61 311.715 1244.59 311.822C1244.56 311.929 1244.55 312.04 1244.57 312.149C1244.59 312.257 1244.63 312.361 1244.69 312.454C1245.7 314.352 1246.83 316.188 1248.06 317.951C1248.14 318.042 1248.24 318.114 1248.35 318.16C1248.47 318.206 1248.59 318.225 1248.71 318.215ZM1243.17 307.995C1243.27 308.01 1243.37 308.01 1243.46 307.995C1243.56 307.958 1243.65 307.9 1243.73 307.826C1243.81 307.752 1243.87 307.662 1243.92 307.563C1243.96 307.464 1243.98 307.357 1243.98 307.25C1243.98 307.142 1243.96 307.035 1243.92 306.936C1243.16 305 1242.54 303.01 1242.07 300.984C1242.06 300.876 1242.02 300.774 1241.96 300.682C1241.9 300.59 1241.82 300.512 1241.73 300.451C1241.64 300.39 1241.54 300.348 1241.44 300.328C1241.33 300.307 1241.22 300.309 1241.11 300.333C1241.01 300.357 1240.91 300.403 1240.82 300.467C1240.73 300.531 1240.66 300.612 1240.6 300.706C1240.55 300.8 1240.51 300.904 1240.5 301.012C1240.49 301.12 1240.5 301.229 1240.53 301.333C1241.01 303.436 1241.64 305.5 1242.43 307.508C1242.49 307.654 1242.6 307.778 1242.73 307.865C1242.86 307.951 1243.02 307.997 1243.17 307.995ZM1240.48 296.705H1240.56C1240.66 296.697 1240.76 296.668 1240.86 296.621C1240.95 296.573 1241.03 296.507 1241.1 296.427C1241.17 296.348 1241.22 296.255 1241.25 296.155C1241.28 296.056 1241.29 295.951 1241.28 295.847C1241.19 294.788 1241.15 293.814 1241.15 292.808C1241.15 291.801 1241.15 290.689 1241.29 289.63C1241.3 289.526 1241.29 289.422 1241.26 289.322C1241.23 289.222 1241.18 289.13 1241.11 289.05C1241.04 288.97 1240.96 288.904 1240.87 288.857C1240.77 288.809 1240.67 288.78 1240.57 288.772C1240.36 288.758 1240.15 288.824 1239.99 288.959C1239.83 289.093 1239.73 289.285 1239.71 289.493C1239.62 290.552 1239.56 291.695 1239.56 292.797C1239.56 293.898 1239.56 294.915 1239.7 295.974C1239.72 296.172 1239.81 296.356 1239.95 296.492C1240.1 296.627 1240.29 296.703 1240.48 296.705ZM1241.37 285.14C1241.55 285.138 1241.72 285.078 1241.86 284.969C1242 284.86 1242.1 284.708 1242.15 284.536C1242.64 282.523 1243.31 280.56 1244.16 278.669C1244.2 278.573 1244.23 278.469 1244.23 278.364C1244.24 278.258 1244.22 278.153 1244.19 278.053C1244.15 277.954 1244.09 277.864 1244.02 277.787C1243.95 277.709 1243.86 277.648 1243.76 277.605C1243.67 277.562 1243.56 277.538 1243.46 277.536C1243.35 277.534 1243.25 277.553 1243.15 277.592C1243.05 277.631 1242.96 277.689 1242.89 277.763C1242.81 277.837 1242.75 277.925 1242.71 278.023C1241.83 280.001 1241.12 282.053 1240.59 284.155C1240.54 284.36 1240.58 284.575 1240.69 284.755C1240.79 284.936 1240.97 285.066 1241.17 285.118L1241.37 285.14ZM1245.94 274.475C1246.07 274.476 1246.21 274.443 1246.32 274.381C1246.44 274.318 1246.54 274.226 1246.62 274.114C1247.73 272.357 1248.98 270.693 1250.36 269.137C1250.5 268.978 1250.57 268.77 1250.55 268.558C1250.54 268.347 1250.45 268.149 1250.29 268.009C1250.13 267.868 1249.92 267.797 1249.71 267.81C1249.5 267.823 1249.3 267.919 1249.16 268.078C1247.73 269.697 1246.43 271.425 1245.27 273.246C1245.19 273.365 1245.15 273.504 1245.14 273.647C1245.13 273.79 1245.17 273.931 1245.24 274.057C1245.31 274.182 1245.41 274.287 1245.53 274.358C1245.65 274.43 1245.8 274.467 1245.94 274.464V274.475ZM1253.5 265.663C1253.7 265.663 1253.88 265.592 1254.03 265.462C1255.59 264.08 1257.24 262.803 1258.97 261.638C1259.05 261.579 1259.13 261.504 1259.18 261.416C1259.24 261.328 1259.28 261.23 1259.3 261.128C1259.32 261.025 1259.32 260.919 1259.29 260.817C1259.27 260.715 1259.23 260.618 1259.17 260.532C1259.11 260.445 1259.04 260.372 1258.95 260.315C1258.86 260.257 1258.76 260.218 1258.66 260.199C1258.56 260.18 1258.45 260.181 1258.35 260.203C1258.25 260.224 1258.15 260.266 1258.07 260.325C1256.29 261.532 1254.58 262.851 1252.97 264.275C1252.89 264.345 1252.83 264.429 1252.78 264.523C1252.74 264.617 1252.71 264.719 1252.71 264.824C1252.7 264.928 1252.72 265.032 1252.75 265.131C1252.78 265.229 1252.84 265.32 1252.91 265.398C1252.98 265.483 1253.07 265.55 1253.18 265.596C1253.28 265.642 1253.39 265.664 1253.5 265.663ZM1263.03 258.969C1263.18 258.968 1263.32 258.928 1263.45 258.853L1268.89 255.58C1268.99 255.533 1269.08 255.467 1269.15 255.384C1269.22 255.302 1269.27 255.206 1269.31 255.101C1269.34 254.997 1269.35 254.887 1269.34 254.778C1269.33 254.67 1269.29 254.565 1269.24 254.47C1269.19 254.375 1269.11 254.292 1269.02 254.227C1268.94 254.161 1268.84 254.114 1268.73 254.089C1268.62 254.064 1268.51 254.062 1268.41 254.081C1268.3 254.101 1268.2 254.142 1268.11 254.203C1267.66 254.458 1264.12 256.586 1262.63 257.497C1262.48 257.587 1262.37 257.722 1262.31 257.882C1262.24 258.042 1262.23 258.219 1262.28 258.385C1262.32 258.551 1262.42 258.698 1262.56 258.803C1262.69 258.908 1262.86 258.967 1263.03 258.969Z" fill="#E6E6E6"/>
</g>
<defs>
<filter id="filter0_d_3374_31247" x="-10" y="-10" width="1940" height="670" filterUnits="userSpaceOnUse" color-interpolation-filters="sRGB">
<feFlood flood-opacity="0" result="BackgroundImageFix"/>
<feColorMatrix in="SourceAlpha" type="matrix" values="0 0 0 0 0 0 0 0 0 0 0 0 0 0 0 0 0 0 127 0" result="hardAlpha"/>
<feOffset/>
<feGaussianBlur stdDeviation="5"/>
<feComposite in2="hardAlpha" operator="out"/>
<feColorMatrix type="matrix" values="0 0 0 0 0 0 0 0 0 0 0 0 0 0 0 0 0 0 0.1 0"/>
<feBlend mode="normal" in2="BackgroundImageFix" result="effect1_dropShadow_3374_31247"/>
<feBlend mode="normal" in="SourceGraphic" in2="effect1_dropShadow_3374_31247" result="shape"/>
</filter>
<clipPath id="clip0_3374_31247">
<rect width="1920" height="650" fill="white"/>
</clipPath>
</defs>
</svg>
