<svg width="375" height="300" viewBox="0 0 375 300" fill="none" xmlns="http://www.w3.org/2000/svg">
<g clip-path="url(#clip0_3374_31699)">
<g filter="url(#filter0_d_3374_31699)">
<path d="M0 0H375V300C250 300 125 300 0 300V0Z" fill="#B7E8E3"/>
</g>
<g style="mix-blend-mode:soft-light" opacity="0.25">
<mask id="path-2-outside-1_3374_31699" maskUnits="userSpaceOnUse" x="32.5" y="147" width="309" height="51" fill="black">
<rect fill="white" x="32.5" y="147" width="309" height="51"/>
<path d="M61.963 196.64C54.027 196.64 47.723 195.467 43.051 193.12C38.443 190.773 36.139 187.531 36.139 183.392V181.984C36.139 180.363 36.619 178.997 37.579 177.888C38.603 176.736 39.595 175.733 40.555 174.88C41.579 174.027 42.091 173.237 42.091 172.512C42.091 171.915 41.899 171.488 41.515 171.232C41.131 170.976 40.427 170.848 39.403 170.848H34.795L36.427 161.44H53.323C56.971 161.44 59.563 161.995 61.099 163.104C62.635 164.171 63.403 165.707 63.403 167.712C63.403 169.035 63.019 170.251 62.251 171.36C61.483 172.427 60.587 173.451 59.563 174.432C58.539 175.371 57.643 176.309 56.875 177.248C56.107 178.187 55.723 179.189 55.723 180.256V182.304C55.723 183.584 56.267 184.523 57.355 185.12C58.507 185.717 60.043 186.016 61.963 186.016C64.267 186.016 65.931 185.653 66.955 184.928C68.043 184.16 68.587 183.157 68.587 181.92V161.44H88.171V183.136C88.171 187.488 85.835 190.837 81.163 193.184C76.555 195.488 70.155 196.64 61.963 196.64ZM67.5512 159.136V148.192H88.1912V159.136H67.5512ZM112.383 196V176.736C112.383 174.859 111.775 173.515 110.559 172.704C109.407 171.893 107.391 171.488 104.511 171.488C102.207 171.488 99.9673 171.659 97.7913 172C95.6793 172.341 93.7593 172.747 92.0312 173.216V163.232C93.9513 162.549 96.4473 161.973 99.5193 161.504C102.591 161.035 105.695 160.8 108.831 160.8C116.895 160.8 122.751 162.016 126.399 164.448C130.111 166.837 131.967 170.379 131.967 175.072V196H112.383ZM157.893 196.64C154.053 196.64 150.437 196.448 147.045 196.064C143.717 195.723 140.613 195.104 137.733 194.208V183.2C139.973 183.968 142.437 184.587 145.125 185.056C147.813 185.483 150.341 185.696 152.709 185.696C156.997 185.696 160.133 185.163 162.117 184.096C164.101 183.029 165.093 181.237 165.093 178.72C165.093 176.203 164.101 174.411 162.117 173.344C160.133 172.277 157.061 171.744 152.901 171.744C150.405 171.744 147.813 171.915 145.125 172.256C142.501 172.597 140.069 173.131 137.829 173.856V163.232C140.709 162.464 143.877 161.867 147.333 161.44C150.789 161.013 154.341 160.8 157.989 160.8C167.333 160.8 174.341 162.229 179.013 165.088C183.749 167.904 186.117 172.448 186.117 178.72C186.117 185.035 183.749 189.6 179.013 192.416C174.277 195.232 167.237 196.64 157.893 196.64ZM207.999 196.64C204.671 196.64 201.631 196.277 198.879 195.552C196.191 194.827 194.015 193.675 192.351 192.096C190.751 190.475 189.951 188.32 189.951 185.632C189.951 181.877 191.711 178.997 195.231 176.992C198.815 174.987 203.967 173.984 210.687 173.984H222.879V173.152C222.879 171.317 219.583 170.4 212.991 170.4C210.111 170.4 207.103 170.571 203.967 170.912C200.831 171.211 197.855 171.659 195.039 172.256V163.168C197.855 162.443 201.311 161.867 205.407 161.44C209.567 161.013 213.535 160.8 217.311 160.8C219.039 160.8 220.703 160.864 222.303 160.992C223.903 161.077 225.407 161.227 226.815 161.44H247.935L246.879 171.168H241.695C242.143 171.765 242.463 172.555 242.655 173.536C242.911 174.517 243.039 175.541 243.039 176.608V196H222.879V182.56H216.063C214.335 182.56 212.991 182.752 212.031 183.136C211.135 183.52 210.687 184.267 210.687 185.376C210.687 186.357 211.039 187.04 211.743 187.424C212.511 187.808 213.599 188 215.007 188C215.775 188 216.479 187.979 217.119 187.936C217.759 187.893 218.431 187.808 219.135 187.68V195.616C217.855 195.915 216.287 196.149 214.431 196.32C212.575 196.533 210.431 196.64 207.999 196.64ZM269.227 196V176.736C269.227 174.859 268.619 173.515 267.403 172.704C266.251 171.893 264.235 171.488 261.355 171.488C259.051 171.488 256.811 171.659 254.635 172C252.523 172.341 250.603 172.747 248.875 173.216V163.232C250.795 162.549 253.291 161.973 256.363 161.504C259.435 161.035 262.539 160.8 265.675 160.8C273.739 160.8 279.595 162.016 283.243 164.448C286.955 166.837 288.811 170.379 288.811 175.072V196H269.227ZM315.504 196.64C311.344 196.64 307.408 196.427 303.696 196C299.984 195.616 297.104 195.147 295.056 194.592V184.928C297.424 185.653 300.144 186.251 303.216 186.72C306.352 187.189 309.104 187.424 311.472 187.424C313.904 187.424 315.6 187.317 316.56 187.104C317.584 186.848 318.096 186.421 318.096 185.824C318.096 184.971 317.168 184.309 315.312 183.84C313.456 183.371 310.736 182.688 307.152 181.792C302.864 180.683 299.696 179.381 297.648 177.888C295.6 176.352 294.576 174.283 294.576 171.68C294.576 168.523 296.528 165.92 300.432 163.872C304.336 161.824 310.32 160.8 318.384 160.8C321.712 160.8 325.072 160.971 328.464 161.312C331.92 161.611 334.608 161.952 336.528 162.336V171.872C334.48 171.275 332.144 170.827 329.52 170.528C326.96 170.229 324.752 170.08 322.896 170.08C320.72 170.08 318.96 170.187 317.616 170.4C316.272 170.613 315.6 171.083 315.6 171.808C315.6 172.619 316.528 173.237 318.384 173.664C320.24 174.048 322.768 174.645 325.968 175.456C329.488 176.309 332.208 177.205 334.128 178.144C336.048 179.04 337.36 180.107 338.064 181.344C338.832 182.539 339.216 184.075 339.216 185.952C339.216 189.195 337.2 191.797 333.168 193.76C329.136 195.68 323.248 196.64 315.504 196.64Z"/>
</mask>
<path d="M43.051 193.12L42.1404 193.915L42.1484 193.919L43.051 193.12ZM37.579 177.888L36.2885 177.378L36.2797 177.388L37.579 177.888ZM40.555 174.88L39.3837 174.255L39.3691 174.268L39.355 174.28L40.555 174.88ZM41.515 171.232L42.5757 170.525L42.5757 170.525L41.515 171.232ZM34.795 170.848L33.3049 170.733L33.1115 171.848H34.795V170.848ZM36.427 161.44V160.44H35.0905L34.9369 161.325L36.427 161.44ZM61.099 163.104L59.9968 163.782L60.0068 163.789L60.0169 163.797L61.099 163.104ZM62.251 171.36L63.6033 171.793L63.6082 171.786L63.6129 171.779L62.251 171.36ZM59.563 174.432L60.7761 175.02L60.7854 175.012L60.7944 175.003L59.563 174.432ZM56.875 177.248L55.5582 176.769L55.5582 176.769L56.875 177.248ZM57.355 185.12L56.4014 185.892L56.4176 185.901L56.4341 185.909L57.355 185.12ZM66.955 184.928L65.8645 184.241L65.8627 184.243L66.955 184.928ZM68.587 161.44V160.44H67.087V161.44H68.587ZM88.171 161.44H89.671V160.44H88.171V161.44ZM81.163 193.184L82.063 193.984L82.0656 193.983L81.163 193.184ZM61.963 196.64V195.64C54.238 195.64 48.2868 194.498 43.9536 192.321L43.051 193.12L42.1484 193.919C47.1592 196.436 53.816 197.64 61.963 197.64V196.64ZM43.051 193.12L43.9616 192.325C39.7544 190.183 37.639 187.245 37.639 183.392H36.139H34.639C34.639 187.817 37.1316 191.364 42.1404 193.915L43.051 193.12ZM36.139 183.392H37.639V181.984H36.139H34.639V183.392H36.139ZM36.139 181.984H37.639C37.639 180.492 38.0804 179.31 38.8783 178.388L37.579 177.888L36.2797 177.388C35.1576 178.685 34.639 180.233 34.639 181.984H36.139ZM37.579 177.888L38.8694 178.398C39.8724 177.269 40.8345 176.298 41.755 175.48L40.555 174.88L39.355 174.28C38.3555 175.168 37.3336 176.203 36.2886 177.378L37.579 177.888ZM40.555 174.88L41.7263 175.505C42.86 174.56 43.591 173.554 43.591 172.512H42.091H40.591C40.591 172.92 40.298 173.493 39.3837 174.255L40.555 174.88ZM42.091 172.512H43.591C43.591 171.813 43.3768 171.059 42.5757 170.525L41.515 171.232L40.4543 171.939C40.4348 171.926 40.4694 171.94 40.5103 172.031C40.5528 172.126 40.591 172.28 40.591 172.512H42.091ZM41.515 171.232L42.5757 170.525C41.7468 169.972 40.5101 169.848 39.403 169.848V170.848V171.848C39.8308 171.848 40.121 171.875 40.3043 171.909C40.4879 171.942 40.4997 171.969 40.4543 171.939L41.515 171.232ZM39.403 170.848V169.848H34.795V170.848V171.848H39.403V170.848ZM34.795 170.848L36.2851 170.963L37.9171 161.555L36.427 161.44L34.9369 161.325L33.3049 170.733L34.795 170.848ZM36.427 161.44V162.44H53.323V161.44V160.44H36.427V161.44ZM53.323 161.44V162.44C56.8008 162.44 58.8781 162.974 59.9968 163.782L61.099 163.104L62.2012 162.426C60.2479 161.015 57.1412 160.44 53.323 160.44V161.44ZM61.099 163.104L60.0169 163.797C61.201 164.619 61.903 165.871 61.903 167.712H63.403H64.903C64.903 165.542 64.069 163.723 62.1811 162.411L61.099 163.104ZM63.403 167.712H61.903C61.903 168.902 61.5588 169.974 60.8891 170.941L62.251 171.36L63.6129 171.779C64.4792 170.528 64.903 169.167 64.903 167.712H63.403ZM62.251 171.36L60.8987 170.927C60.1658 171.945 59.3103 172.923 58.3316 173.861L59.563 174.432L60.7944 175.003C61.8637 173.978 62.8002 172.908 63.6033 171.793L62.251 171.36ZM59.563 174.432L58.3499 173.844C57.291 174.814 56.3597 175.79 55.5582 176.769L56.875 177.248L58.1918 177.727C58.9263 176.829 59.787 175.927 60.7761 175.02L59.563 174.432ZM56.875 177.248L55.5582 176.769C54.6703 177.854 54.223 179.022 54.223 180.256H55.723H57.223C57.223 179.357 57.5437 178.519 58.1918 177.727L56.875 177.248ZM55.723 180.256H54.223V182.304H55.723H57.223V180.256H55.723ZM55.723 182.304H54.223C54.223 183.768 54.8537 185.042 56.4014 185.892L57.355 185.12L58.3086 184.348C57.6803 184.003 57.223 183.4 57.223 182.304H55.723ZM57.355 185.12L56.4341 185.909C57.922 186.681 59.8149 187.016 61.963 187.016V186.016V185.016C60.2711 185.016 59.092 184.754 58.2759 184.331L57.355 185.12ZM61.963 186.016V187.016C64.4594 187.016 66.6174 186.626 68.0473 185.613L66.955 184.928L65.8627 184.243C65.2446 184.68 64.0746 185.016 61.963 185.016V186.016ZM66.955 184.928L68.0455 185.615C69.441 184.63 70.087 183.366 70.087 181.92H68.587H67.087C67.087 182.949 66.645 183.69 65.8645 184.241L66.955 184.928ZM68.587 181.92H70.087V161.44H68.587H67.087V181.92H68.587ZM68.587 161.44V162.44H88.171V161.44V160.44H68.587V161.44ZM88.171 161.44H86.671V183.136H88.171H89.671V161.44H88.171ZM88.171 183.136H86.671C86.671 187.216 84.5088 190.251 80.2604 192.385L81.163 193.184L82.0656 193.983C87.1612 191.423 89.671 187.76 89.671 183.136H88.171ZM81.163 193.184L80.263 192.384C76.004 194.514 69.9634 195.64 61.963 195.64V196.64V197.64C70.3466 197.64 77.106 196.462 82.063 193.984L81.163 193.184ZM67.5512 159.136H66.0512V160.136H67.5512V159.136ZM67.5512 148.192V147.192H66.0512V148.192H67.5512ZM88.1912 148.192H89.6912V147.192H88.1912V148.192ZM88.1912 159.136V160.136H89.6912V159.136H88.1912ZM67.5512 159.136H69.0512V148.192H67.5512H66.0512V159.136H67.5512ZM67.5512 148.192V149.192H88.1912V148.192V147.192H67.5512V148.192ZM88.1912 148.192H86.6912V159.136H88.1912H89.6912V148.192H88.1912ZM88.1912 159.136V158.136H67.5512V159.136V160.136H88.1912V159.136ZM112.383 196H110.883V197H112.383V196ZM110.559 172.704L109.47 173.392L109.484 173.402L109.499 173.411L110.559 172.704ZM97.7913 172L97.4477 171.027L97.4378 171.028L97.7913 172ZM92.0312 173.216H90.5312V174.703L92.5972 174.142L92.0312 173.216ZM92.0312 163.232L91.3254 162.35L90.5312 162.632V163.232H92.0312ZM99.5193 161.504L99.1842 160.529L99.1842 160.529L99.5193 161.504ZM126.399 164.448L125.339 165.155L125.348 165.161L125.357 165.167L126.399 164.448ZM131.967 196V197H133.467V196H131.967ZM112.383 196H113.883V176.736H112.383H110.883V196H112.383ZM112.383 176.736H113.883C113.883 174.755 113.251 173.085 111.62 171.997L110.559 172.704L109.499 173.411C110.299 173.945 110.883 174.963 110.883 176.736H112.383ZM110.559 172.704L111.648 172.016C110.066 170.903 107.525 170.488 104.511 170.488V171.488V172.488C107.258 172.488 108.749 172.884 109.47 173.392L110.559 172.704ZM104.511 171.488V170.488C102.095 170.488 99.7397 170.667 97.4477 171.027L97.7913 172L98.1348 172.973C100.195 172.65 102.319 172.488 104.511 172.488V171.488ZM97.7913 172L97.4378 171.028C95.2649 171.379 93.2725 171.799 91.4653 172.29L92.0312 173.216L92.5972 174.142C94.246 173.694 96.0936 173.303 98.1447 172.972L97.7913 172ZM92.0312 173.216H93.5312V163.232H92.0312H90.5312V173.216H92.0312ZM92.0312 163.232L92.7371 164.114C94.5008 163.487 96.8592 162.936 99.8543 162.479L99.5193 161.504L99.1842 160.529C96.0353 161.01 93.4017 161.611 91.3254 162.35L92.0312 163.232ZM99.5193 161.504L99.8543 162.479C102.817 162.026 105.809 161.8 108.831 161.8V160.8V159.8C105.582 159.8 102.366 160.043 99.1842 160.529L99.5193 161.504ZM108.831 160.8V161.8C116.715 161.8 122.095 162.993 125.339 165.155L126.399 164.448L127.46 163.741C123.407 161.039 117.075 159.8 108.831 159.8V160.8ZM126.399 164.448L125.357 165.167C128.682 167.308 130.467 170.548 130.467 175.072H131.967H133.467C133.467 170.209 131.54 166.367 127.441 163.729L126.399 164.448ZM131.967 175.072H130.467V196H131.967H133.467V175.072H131.967ZM131.967 196V195H112.383V196V197H131.967V196ZM147.045 196.064L147.296 195.078L147.284 195.077L147.273 195.076L147.045 196.064ZM137.733 194.208H136.233V194.845L137.098 195.114L137.733 194.208ZM137.733 183.2L138.419 182.311L136.233 181.561V183.2H137.733ZM145.125 185.056L144.744 186.023L144.761 186.026L144.777 186.029L145.125 185.056ZM162.117 184.096L163.058 184.874L163.058 184.874L162.117 184.096ZM162.117 173.344L161.175 174.122L161.175 174.122L162.117 173.344ZM145.125 172.256L144.844 171.274L144.837 171.275L145.125 172.256ZM137.829 173.856H136.329V175.453L138.484 174.756L137.829 173.856ZM137.829 163.232L137.271 162.304L136.329 162.555V163.232H137.829ZM179.013 165.088L177.998 165.825L178.006 165.83L178.014 165.834L179.013 165.088ZM179.013 192.416L178.014 191.67L178.014 191.67L179.013 192.416ZM157.893 196.64V195.64C154.127 195.64 150.596 195.452 147.296 195.078L147.045 196.064L146.793 197.05C150.277 197.444 153.978 197.64 157.893 197.64V196.64ZM147.045 196.064L147.273 195.076C144.077 194.748 141.11 194.155 138.367 193.302L137.733 194.208L137.098 195.114C140.115 196.053 143.356 196.697 146.816 197.052L147.045 196.064ZM137.733 194.208H139.233V183.2H137.733H136.233V194.208H137.733ZM137.733 183.2L137.046 184.089C139.393 184.894 141.961 185.537 144.744 186.023L145.125 185.056L145.505 184.089C142.912 183.636 140.552 183.042 138.419 182.311L137.733 183.2ZM145.125 185.056L144.777 186.029C147.561 186.471 150.206 186.696 152.709 186.696V185.696V184.696C150.475 184.696 148.065 184.495 145.472 184.083L145.125 185.056ZM152.709 185.696V186.696C157.125 186.696 160.679 186.154 163.058 184.874L162.117 184.096L161.175 183.318C159.586 184.172 156.868 184.696 152.709 184.696V185.696ZM162.117 184.096L163.058 184.874C165.539 183.54 166.593 181.39 166.593 178.72H165.093H163.593C163.593 181.085 162.662 182.518 161.175 183.318L162.117 184.096ZM165.093 178.72H166.593C166.593 176.05 165.539 173.9 163.058 172.566L162.117 173.344L161.175 174.122C162.662 174.922 163.593 176.355 163.593 178.72H165.093ZM162.117 173.344L163.058 172.566C160.685 171.29 157.202 170.744 152.901 170.744V171.744V172.744C156.919 172.744 159.58 173.265 161.175 174.122L162.117 173.344ZM152.901 171.744V170.744C150.302 170.744 147.616 170.922 144.844 171.274L145.125 172.256L145.405 173.238C148.009 172.908 150.507 172.744 152.901 172.744V171.744ZM145.125 172.256L144.837 171.275C142.095 171.631 139.538 172.191 137.173 172.956L137.829 173.856L138.484 174.756C140.599 174.071 142.906 173.563 145.412 173.237L145.125 172.256ZM137.829 173.856H139.329V163.232H137.829H136.329V173.856H137.829ZM137.829 163.232L138.386 164.16C141.163 163.42 144.234 162.84 147.606 162.423L147.333 161.44L147.059 160.457C143.519 160.894 140.254 161.508 137.271 162.304L137.829 163.232ZM147.333 161.44L147.606 162.423C150.968 162.008 154.429 161.8 157.989 161.8V160.8V159.8C154.252 159.8 150.609 160.019 147.059 160.457L147.333 161.44ZM157.989 160.8V161.8C167.132 161.8 173.709 163.2 177.998 165.825L179.013 165.088L180.027 164.351C174.972 161.258 167.533 159.8 157.989 159.8V160.8ZM179.013 165.088L178.014 165.834C182.303 168.384 184.617 172.594 184.617 178.72H186.117H187.617C187.617 172.302 185.194 167.424 180.011 164.342L179.013 165.088ZM186.117 178.72H184.617C184.617 184.891 182.301 189.121 178.014 191.67L179.013 192.416L180.011 193.162C185.196 190.079 187.617 185.178 187.617 178.72H186.117ZM179.013 192.416L178.014 191.67C173.658 194.26 167.039 195.64 157.893 195.64V196.64V197.64C167.434 197.64 174.895 196.204 180.011 193.162L179.013 192.416ZM198.879 195.552L198.316 196.479L198.328 196.482L198.879 195.552ZM192.351 192.096L191.098 192.646L191.111 192.658L191.124 192.671L192.351 192.096ZM195.231 176.992L194.267 176.226L194.257 176.232L195.231 176.992ZM222.879 173.984V174.984H224.379V173.984H222.879ZM203.967 170.912L204.179 171.902L204.194 171.901L204.209 171.899L203.967 170.912ZM195.039 172.256H193.539V173.624L195.494 173.209L195.039 172.256ZM195.039 163.168L194.499 162.235L193.539 162.482V163.168H195.039ZM205.407 161.44L205.179 160.452L205.176 160.452L205.407 161.44ZM222.303 160.992L222.125 161.985L222.154 161.987L222.184 161.989L222.303 160.992ZM226.815 161.44L226.483 162.415L226.647 162.44H226.815V161.44ZM247.935 161.44L249.431 161.512L249.548 160.44H247.935V161.44ZM246.879 171.168V172.168H248.275L248.375 171.24L246.879 171.168ZM241.695 171.168V170.168H239.268L240.354 171.615L241.695 171.168ZM242.655 173.536L241.168 173.665L241.172 173.686L241.177 173.707L242.655 173.536ZM243.039 196V197H244.539V196H243.039ZM222.879 196H221.379V197H222.879V196ZM222.879 182.56H224.379V181.56H222.879V182.56ZM212.031 183.136L211.26 182.279L211.24 182.286L211.22 182.295L212.031 183.136ZM211.743 187.424L210.793 188.198L210.818 188.211L210.843 188.224L211.743 187.424ZM217.119 187.936L216.97 186.941L216.97 186.941L217.119 187.936ZM219.135 187.68H220.635V186.371L218.741 186.715L219.135 187.68ZM219.135 195.616L219.631 196.56L220.635 196.325V195.616H219.135ZM214.431 196.32L214.226 195.329L214.201 195.332L214.176 195.335L214.431 196.32ZM207.999 196.64V195.64C204.837 195.64 201.987 195.296 199.431 194.622L198.879 195.552L198.328 196.482C201.276 197.259 204.506 197.64 207.999 197.64V196.64ZM198.879 195.552L199.442 194.625C197.021 193.972 195.076 192.942 193.579 191.521L192.351 192.096L191.124 192.671C192.954 194.407 195.361 195.682 198.316 196.479L198.879 195.552ZM192.351 192.096L193.604 191.546C192.216 190.14 191.451 188.197 191.451 185.632H189.951H188.451C188.451 188.443 189.286 190.809 191.098 192.646L192.351 192.096ZM189.951 185.632H191.451C191.451 182.101 193.091 179.527 196.206 177.752L195.231 176.992L194.257 176.232C190.332 178.468 188.451 181.654 188.451 185.632H189.951ZM195.231 176.992L196.196 177.758C199.413 175.958 204.169 174.984 210.687 174.984V173.984V172.984C203.765 172.984 198.218 174.016 194.267 176.226L195.231 176.992ZM210.687 173.984V174.984H222.879V173.984V172.984H210.687V173.984ZM222.879 173.984H224.379V173.152H222.879H221.379V173.984H222.879ZM222.879 173.152H224.379C224.379 172.477 224.067 171.853 223.433 171.324C222.818 170.811 221.963 170.437 220.985 170.165C219.059 169.629 216.346 169.4 212.991 169.4V170.4V171.4C216.228 171.4 218.46 171.63 219.829 172.011C220.499 172.197 220.88 172.397 221.089 172.572C221.279 172.731 221.379 172.91 221.379 173.152H222.879ZM212.991 170.4V169.4C210.022 169.4 206.933 169.576 203.726 169.925L203.967 170.912L204.209 171.899C207.273 171.565 210.2 171.4 212.991 171.4V170.4ZM203.967 170.912L203.755 169.922C200.543 170.228 197.485 170.688 194.584 171.303L195.039 172.256L195.494 173.209C198.225 172.63 201.12 172.193 204.179 171.902L203.967 170.912ZM195.039 172.256H196.539V163.168H195.039H193.539V172.256H195.039ZM195.039 163.168L195.58 164.101C198.267 163.409 201.612 162.847 205.639 162.428L205.407 161.44L205.176 160.452C201.01 160.886 197.444 161.477 194.499 162.235L195.039 163.168ZM205.407 161.44L205.635 162.428C209.728 162.009 213.62 161.8 217.311 161.8V160.8V159.8C213.451 159.8 209.406 160.018 205.179 160.452L205.407 161.44ZM217.311 160.8V161.8C218.984 161.8 220.588 161.862 222.125 161.985L222.303 160.992L222.482 159.999C220.819 159.866 219.095 159.8 217.311 159.8V160.8ZM222.303 160.992L222.184 161.989C223.72 162.071 225.152 162.214 226.483 162.415L226.815 161.44L227.148 160.465C225.662 160.24 224.087 160.084 222.423 159.995L222.303 160.992ZM226.815 161.44V162.44H247.935V161.44V160.44H226.815V161.44ZM247.935 161.44L246.439 161.368L245.383 171.096L246.879 171.168L248.375 171.24L249.431 161.512L247.935 161.44ZM246.879 171.168V170.168H241.695V171.168V172.168H246.879V171.168ZM241.695 171.168L240.354 171.615C240.7 172.077 240.988 172.747 241.168 173.665L242.655 173.536L244.143 173.407C243.938 172.363 243.587 171.454 243.037 170.721L241.695 171.168ZM242.655 173.536L241.177 173.707C241.418 174.628 241.539 175.595 241.539 176.608H243.039H244.539C244.539 175.488 244.405 174.406 244.133 173.365L242.655 173.536ZM243.039 176.608H241.539V196H243.039H244.539V176.608H243.039ZM243.039 196V195H222.879V196V197H243.039V196ZM222.879 196H224.379V182.56H222.879H221.379V196H222.879ZM222.879 182.56V181.56H216.063V182.56V183.56H222.879V182.56ZM216.063 182.56V181.56C214.199 181.56 212.547 181.764 211.26 182.279L212.031 183.136L212.803 183.993C213.436 183.74 214.471 183.56 216.063 183.56V182.56ZM212.031 183.136L211.22 182.295C209.692 182.95 209.187 184.127 209.187 185.376H210.687H212.187C212.187 184.406 212.579 184.09 212.842 183.977L212.031 183.136ZM210.687 185.376H209.187C209.187 186.474 209.573 187.532 210.793 188.198L211.743 187.424L212.693 186.65C212.505 186.548 212.187 186.241 212.187 185.376H210.687ZM211.743 187.424L210.843 188.224C211.967 188.786 213.42 189 215.007 189V188V187C213.779 187 213.055 186.83 212.643 186.624L211.743 187.424ZM215.007 188V189C215.816 189 216.571 188.978 217.269 188.931L217.119 187.936L216.97 186.941C216.388 186.98 215.735 187 215.007 187V188ZM217.119 187.936L217.269 188.931C218.002 188.882 218.756 188.785 219.53 188.645L219.135 187.68L218.741 186.715C218.106 186.831 217.517 186.905 216.97 186.941L217.119 187.936ZM219.135 187.68H217.635V195.616H219.135H220.635V187.68H219.135ZM219.135 195.616L218.64 194.672C217.482 194.942 216.018 195.165 214.226 195.329L214.431 196.32L214.636 197.311C216.557 197.134 218.229 196.887 219.631 196.56L219.135 195.616ZM214.431 196.32L214.176 195.335C212.425 195.536 210.369 195.64 207.999 195.64V196.64V197.64C210.493 197.64 212.726 197.531 214.686 197.305L214.431 196.32ZM269.227 196H267.727V197H269.227V196ZM267.403 172.704L266.314 173.392L266.328 173.402L266.342 173.411L267.403 172.704ZM254.635 172L254.291 171.027L254.282 171.028L254.635 172ZM248.875 173.216H247.375V174.703L249.441 174.142L248.875 173.216ZM248.875 163.232L248.169 162.35L247.375 162.632V163.232H248.875ZM256.363 161.504L256.028 160.529L256.028 160.529L256.363 161.504ZM283.243 164.448L282.182 165.155L282.192 165.161L282.201 165.167L283.243 164.448ZM288.811 196V197H290.311V196H288.811ZM269.227 196H270.727V176.736H269.227H267.727V196H269.227ZM269.227 176.736H270.727C270.727 174.755 270.095 173.085 268.464 171.997L267.403 172.704L266.342 173.411C267.143 173.945 267.727 174.963 267.727 176.736H269.227ZM267.403 172.704L268.492 172.016C266.91 170.903 264.368 170.488 261.355 170.488V171.488V172.488C264.102 172.488 265.592 172.884 266.314 173.392L267.403 172.704ZM261.355 171.488V170.488C258.939 170.488 256.583 170.667 254.291 171.027L254.635 172L254.979 172.973C257.039 172.65 259.163 172.488 261.355 172.488V171.488ZM254.635 172L254.282 171.028C252.109 171.379 250.116 171.799 248.309 172.29L248.875 173.216L249.441 174.142C251.09 173.694 252.937 173.303 254.988 172.972L254.635 172ZM248.875 173.216H250.375V163.232H248.875H247.375V173.216H248.875ZM248.875 163.232L249.581 164.114C251.345 163.487 253.703 162.936 256.698 162.479L256.363 161.504L256.028 160.529C252.879 161.01 250.245 161.611 248.169 162.35L248.875 163.232ZM256.363 161.504L256.698 162.479C259.661 162.026 262.652 161.8 265.675 161.8V160.8V159.8C262.426 159.8 259.209 160.043 256.028 160.529L256.363 161.504ZM265.675 160.8V161.8C273.559 161.8 278.939 162.993 282.182 165.155L283.243 164.448L284.304 163.741C280.251 161.039 273.919 159.8 265.675 159.8V160.8ZM283.243 164.448L282.201 165.167C285.526 167.308 287.311 170.548 287.311 175.072H288.811H290.311C290.311 170.209 288.384 166.367 284.285 163.729L283.243 164.448ZM288.811 175.072H287.311V196H288.811H290.311V175.072H288.811ZM288.811 196V195H269.227V196V197H288.811V196ZM303.696 196L303.951 195.015L303.939 195.013L303.926 195.012L303.696 196ZM295.056 194.592H293.556V195.265L294.492 195.518L295.056 194.592ZM295.056 184.928L295.683 184.019L293.556 183.368V184.928H295.056ZM303.216 186.72L302.881 187.695L302.888 187.696L303.216 186.72ZM316.56 187.104L317.035 188.053L317.061 188.047L317.087 188.04L316.56 187.104ZM315.312 183.84L315.844 182.905L315.844 182.905L315.312 183.84ZM307.152 181.792L306.61 182.724L306.626 182.728L307.152 181.792ZM297.648 177.888L296.527 178.552L296.541 178.563L297.648 177.888ZM300.432 163.872L299.505 163.086L299.505 163.086L300.432 163.872ZM328.464 161.312L328.24 162.301L328.256 162.302L328.271 162.304L328.464 161.312ZM336.528 162.336H338.028V161.592L336.959 161.378L336.528 162.336ZM336.528 171.872L335.927 172.788L338.028 173.401V171.872H336.528ZM329.52 170.528L329.262 171.513L329.268 171.514L329.52 170.528ZM317.616 170.4L317.964 171.373L317.964 171.373L317.616 170.4ZM318.384 173.664L317.895 174.609L317.917 174.614L317.94 174.619L318.384 173.664ZM325.968 175.456L325.435 176.391L325.446 176.393L325.456 176.396L325.968 175.456ZM334.128 178.144L333.241 178.95L333.255 178.957L333.268 178.963L334.128 178.144ZM338.064 181.344L336.662 181.699L336.673 181.718L336.686 181.738L338.064 181.344ZM333.168 193.76L334.04 194.574L334.053 194.568L333.168 193.76ZM315.504 196.64V195.64C311.421 195.64 307.571 195.431 303.951 195.015L303.696 196L303.441 196.985C307.246 197.423 311.268 197.64 315.504 197.64V196.64ZM303.696 196L303.926 195.012C300.261 194.633 297.512 194.178 295.621 193.666L295.056 194.592L294.492 195.518C296.696 196.116 299.707 196.599 303.466 196.988L303.696 196ZM295.056 194.592H296.556V184.928H295.056H293.556V194.592H295.056ZM295.056 184.928L294.43 185.837C296.908 186.596 299.729 187.213 302.881 187.695L303.216 186.72L303.551 185.745C300.559 185.288 297.94 184.711 295.683 184.019L295.056 184.928ZM303.216 186.72L302.888 187.696C306.096 188.176 308.962 188.424 311.472 188.424V187.424V186.424C309.246 186.424 306.608 186.203 303.545 185.744L303.216 186.72ZM311.472 187.424V188.424C313.902 188.424 315.82 188.323 317.035 188.053L316.56 187.104L316.086 186.155C315.381 186.312 313.906 186.424 311.472 186.424V187.424ZM316.56 187.104L317.087 188.04C317.77 187.87 318.411 187.61 318.884 187.217C319.373 186.809 319.596 186.327 319.596 185.824H318.096H316.596C316.596 185.918 316.564 185.948 316.541 185.967C316.501 186 316.375 186.082 316.034 186.168L316.56 187.104ZM318.096 185.824H319.596C319.596 184.342 317.912 183.428 315.844 182.905L315.312 183.84L314.78 184.775C316.424 185.191 316.596 185.599 316.596 185.824H318.096ZM315.312 183.84L315.844 182.905C313.986 182.435 311.263 181.752 307.679 180.856L307.152 181.792L306.626 182.728C310.209 183.624 312.927 184.306 314.78 184.775L315.312 183.84ZM307.152 181.792L307.695 180.86C303.521 179.78 300.588 178.549 298.755 177.213L297.648 177.888L296.541 178.563C298.805 180.213 302.207 181.585 306.61 182.724L307.152 181.792ZM297.648 177.888L298.769 177.224C297.025 175.915 296.076 174.105 296.076 171.68H294.576H293.076C293.076 174.46 294.175 176.789 296.527 178.552L297.648 177.888ZM294.576 171.68H296.076C296.076 168.846 297.797 166.527 301.36 164.658L300.432 163.872L299.505 163.086C295.26 165.313 293.076 168.199 293.076 171.68H294.576ZM300.432 163.872L301.36 164.658C304.879 162.812 310.463 161.8 318.384 161.8V160.8V159.8C310.178 159.8 303.793 160.836 299.505 163.086L300.432 163.872ZM318.384 160.8V161.8C321.635 161.8 324.92 161.967 328.24 162.301L328.464 161.312L328.688 160.323C325.224 159.975 321.789 159.8 318.384 159.8V160.8ZM328.464 161.312L328.271 162.304C331.696 162.6 334.292 162.933 336.097 163.294L336.528 162.336L336.959 161.378C334.925 160.971 332.144 160.622 328.657 160.32L328.464 161.312ZM336.528 162.336H335.028V171.872H336.528H338.028V162.336H336.528ZM336.528 171.872L337.129 170.956C334.951 170.32 332.495 169.852 329.773 169.542L329.52 170.528L329.268 171.514C331.794 171.801 334.009 172.229 335.927 172.788L336.528 171.872ZM329.52 170.528L329.779 169.543C327.164 169.238 324.866 169.08 322.896 169.08V170.08V171.08C324.639 171.08 326.756 171.221 329.262 171.513L329.52 170.528ZM322.896 170.08V169.08C320.662 169.08 318.772 169.189 317.269 169.427L317.616 170.4L317.964 171.373C319.148 171.185 320.779 171.08 322.896 171.08V170.08ZM317.616 170.4L317.269 169.427C316.428 169.561 315.622 169.8 315.019 170.222C314.385 170.665 314.1 171.221 314.1 171.808H315.6H317.1C317.1 171.67 317.152 171.629 317.189 171.602C317.258 171.554 317.46 171.453 317.964 171.373L317.616 170.4ZM315.6 171.808H314.1C314.1 173.284 315.863 174.142 317.895 174.609L318.384 173.664L318.873 172.719C317.194 172.333 317.1 171.953 317.1 171.808H315.6ZM318.384 173.664L317.94 174.619C319.752 174.994 322.246 175.583 325.435 176.391L325.968 175.456L326.501 174.521C323.29 173.708 320.729 173.102 318.829 172.709L318.384 173.664ZM325.968 175.456L325.456 176.396C328.909 177.233 331.482 178.09 333.241 178.95L334.128 178.144L335.015 177.338C332.935 176.32 330.067 175.386 326.481 174.516L325.968 175.456ZM334.128 178.144L333.268 178.963C334.987 179.765 336.083 180.681 336.662 181.699L338.064 181.344L339.467 180.989C338.638 179.532 337.109 178.315 334.988 177.325L334.128 178.144ZM338.064 181.344L336.686 181.738C337.346 182.766 337.716 184.155 337.716 185.952H339.216H340.716C340.716 183.995 340.318 182.312 339.443 180.95L338.064 181.344ZM339.216 185.952H337.716C337.716 188.866 335.941 191.172 332.284 192.952L333.168 193.76L334.053 194.568C338.46 192.423 340.716 189.524 340.716 185.952H339.216ZM333.168 193.76L332.296 192.946C328.626 194.694 323.099 195.64 315.504 195.64V196.64V197.64C323.397 197.64 329.647 196.666 334.04 194.574L333.168 193.76Z" fill="white" mask="url(#path-2-outside-1_3374_31699)"/>
</g>
<path d="M176.061 286C169.322 286 163.858 282.846 163.858 278.956C163.858 275.065 169.322 271.911 176.061 271.911C182.801 271.911 188.265 275.065 188.265 278.956C188.265 282.846 182.801 286 176.061 286Z" fill="#6BC1BA"/>
<path d="M272.498 269.99L266.173 273.639C265.908 273.773 265.615 273.843 265.317 273.843C265.02 273.843 264.727 273.773 264.461 273.639L190.701 231.044C190.598 231.009 190.508 230.943 190.444 230.854C190.381 230.766 190.347 230.659 190.347 230.55C190.347 230.441 190.381 230.335 190.444 230.246C190.508 230.158 190.598 230.091 190.701 230.056L197.026 226.411C197.291 226.277 197.584 226.207 197.882 226.207C198.179 226.207 198.472 226.277 198.737 226.411L272.498 268.994C272.604 269.027 272.697 269.093 272.763 269.183C272.829 269.273 272.864 269.381 272.864 269.492C272.864 269.603 272.829 269.712 272.763 269.801C272.697 269.891 272.604 269.957 272.498 269.99Z" fill="#6BC1BA"/>
<path d="M176.553 156.03L168.524 151.397V181.046C168.524 182.437 166.919 183.813 166.919 183.813L174.948 188.446C174.948 188.446 176.553 187.058 176.553 185.679V156.03Z" fill="#37474F"/>
<path d="M186.311 155.951L182.927 160.264V172.218L186.584 181.741L174.93 188.461C175.942 187.548 176.452 186.619 176.535 185.694V161.58L186.311 155.951Z" fill="#455A64"/>
<path d="M186.602 181.741V183.595L174.948 190.323V188.469L186.602 181.741Z" fill="#1F9B90"/>
<path d="M174.946 190.324L166.918 185.691V183.837L174.946 188.47V190.324Z" fill="#1F9B90"/>
<path opacity="0.1" d="M174.946 190.324L166.918 185.691V183.837L174.946 188.47V190.324Z" fill="black"/>
<path d="M176.917 136.53C178.281 135.712 180.182 135.814 182.281 137.024L182.356 137.072C186.507 139.467 189.867 145.294 189.867 150.089V150.176C189.867 152.659 188.962 154.374 187.515 155.121L181.439 158.679L171.3 139.819L176.917 136.53Z" fill="#F0F0F0"/>
<path d="M187.521 155.121L181.445 158.679L178.085 152.429L189.173 146.025C189.617 147.328 189.853 148.693 189.873 150.069V150.156C189.873 152.659 188.968 154.374 187.521 155.121Z" fill="#E0E0E0"/>
<path d="M163.8 141.143C165.342 140.257 167.417 140.293 169.73 141.419C169.971 141.534 170.216 141.665 170.465 141.815C170.714 141.965 171.042 142.163 171.327 142.36C171.805 142.686 172.265 143.04 172.702 143.42C173.541 144.142 174.314 144.935 175.015 145.792C176.957 148.171 178.396 150.92 179.245 153.872C179.645 155.26 179.855 156.696 179.869 158.141C179.869 161.07 178.865 163.153 177.233 164.165L183.036 160.821C184.111 160.124 184.99 159.164 185.589 158.031C186.188 156.898 186.488 155.631 186.459 154.35C186.447 152.972 186.254 151.602 185.886 150.274C185.047 147.244 183.585 144.422 181.593 141.989C180.893 141.132 180.119 140.338 179.28 139.617C178.844 139.236 178.384 138.882 177.905 138.557C177.62 138.36 177.331 138.162 177.043 138.012C176.754 137.862 176.549 137.743 176.3 137.617C175.269 137.129 174.14 136.886 173 136.905C171.86 136.925 170.74 137.206 169.726 137.727L169.564 137.818L169.362 137.957L163.8 141.143Z" fill="#1F9B90"/>
<path opacity="0.1" d="M183.05 160.822C184.126 160.125 185.005 159.165 185.604 158.032C186.203 156.899 186.502 155.632 186.474 154.351C186.461 152.973 186.269 151.603 185.9 150.275L179.243 153.873C179.643 155.261 179.853 156.697 179.868 158.142C179.868 161.071 178.864 163.155 177.231 164.167L183.05 160.822Z" fill="black"/>
<path d="M161.031 147.255C161.031 153.268 165.248 160.577 170.455 163.582C173.072 165.096 175.443 165.23 177.151 164.222L177.246 164.167C178.879 163.155 179.883 161.071 179.883 158.142C179.883 152.129 175.665 144.82 170.459 141.812C167.861 140.314 165.505 140.167 163.802 141.148C162.098 142.128 161.031 144.243 161.031 147.255Z" fill="#1F9B90"/>
<path opacity="0.2" d="M161.031 147.255C161.031 153.268 165.248 160.577 170.455 163.582C173.072 165.096 175.443 165.23 177.151 164.222L177.246 164.167C178.879 163.155 179.883 161.071 179.883 158.142C179.883 152.129 175.665 144.82 170.459 141.812C167.861 140.314 165.505 140.167 163.802 141.148C162.098 142.128 161.031 144.243 161.031 147.255Z" fill="black"/>
<path d="M132.13 145.701C132.13 145.701 141.637 150.579 149.761 164.648C151.22 167.173 152.508 169.793 153.615 172.491C157.69 182.496 157.354 189.39 157.354 189.39C160.189 182.449 163.711 175.262 169.589 169.759C171.891 167.619 174.305 165.601 176.819 163.715C178.373 162.81 179.282 160.849 179.282 158.145C179.251 156.253 178.891 154.38 178.219 152.611C177.783 151.414 177.244 150.258 176.606 149.156C174.954 146.294 172.673 143.795 170.159 142.345C167.818 140.993 165.664 140.799 164.106 141.696C161.214 142.929 158.26 144.01 155.255 144.934C147.543 147.258 139.558 146.713 132.13 145.701Z" fill="#F0F0F0"/>
<path d="M153.615 172.491C157.69 182.497 157.354 189.391 157.354 189.391C160.189 182.449 163.711 175.262 169.589 169.76C171.891 167.619 174.305 165.602 176.819 163.716C178.373 162.81 179.282 160.85 179.282 158.146C179.251 156.253 178.891 154.381 178.219 152.611C171.008 156.209 159.347 162.862 153.615 172.491Z" fill="#E0E0E0"/>
<path d="M114.216 159.268C114.216 165.538 116.145 172.401 119.355 178.737C123.474 186.853 129.688 194.099 136.645 198.108C149.038 205.271 159.083 199.471 159.083 185.169C159.048 181.738 158.549 178.327 157.601 175.029C155.096 166.323 150.419 158.397 144.01 151.995C143.132 151.133 142.231 150.323 141.306 149.564C140.911 149.247 140.515 148.939 140.14 148.643C139.581 148.218 139.018 147.816 138.452 147.437C137.859 147.042 137.266 146.666 136.657 146.318C124.26 139.167 114.216 144.962 114.216 159.268Z" fill="#1F9B90"/>
<path opacity="0.1" d="M119.358 178.741C123.478 186.857 129.692 194.103 136.649 198.111C149.038 205.27 159.083 199.471 159.083 185.169C159.048 181.738 158.549 178.327 157.601 175.029C156.763 176.879 153.75 179.52 152.402 177.67C153.232 180.597 153.67 183.621 153.703 186.663C153.703 190.774 152.786 194.091 151.054 196.261C149.576 198.111 147.544 199.052 145.018 199.028C142.563 199.028 139.709 198.127 136.764 196.431C130.834 193.016 125.407 186.877 121.548 179.923C121.529 179.943 120.77 180.595 119.358 178.741Z" fill="black"/>
<path d="M115.749 160.066C115.749 166.391 117.966 173.507 121.54 179.943C125.398 186.896 130.838 193.035 136.755 196.451C139.7 198.147 142.555 199.052 145.009 199.048C147.535 199.048 149.567 198.111 151.046 196.281C152.777 194.11 153.694 190.794 153.694 186.683C153.661 183.64 153.224 180.616 152.394 177.689C152.078 176.527 151.706 175.361 151.283 174.199C150.534 172.141 149.651 170.135 148.638 168.194C148.43 167.791 148.217 167.396 147.998 167.008C147.638 166.348 147.263 165.692 146.871 165.032C145.556 162.849 144.077 160.769 142.448 158.809C142.448 158.809 142.408 158.766 142.392 158.742C141.343 157.484 140.225 156.285 139.044 155.149C138.209 154.358 137.356 153.611 136.487 152.907C136.123 152.615 135.755 152.334 135.384 152.061C134.938 151.737 134.488 151.425 134.032 151.125C133.589 150.836 133.142 150.563 132.696 150.302C129.743 148.595 126.888 147.701 124.434 147.697C118.994 147.685 115.749 152.318 115.749 160.066Z" fill="#1F9B90"/>
<path opacity="0.3" d="M115.749 160.066C115.749 166.391 117.966 173.507 121.54 179.943C125.398 186.896 130.838 193.035 136.755 196.451C139.7 198.147 142.555 199.052 145.009 199.048C147.535 199.048 149.567 198.111 151.046 196.281C152.777 194.11 153.694 190.794 153.694 186.683C153.661 183.64 153.224 180.616 152.394 177.689C152.078 176.527 151.706 175.361 151.283 174.199C150.534 172.141 149.651 170.135 148.638 168.194C148.43 167.791 148.217 167.396 147.998 167.008C147.638 166.348 147.263 165.692 146.871 165.032C145.556 162.849 144.077 160.769 142.448 158.809C142.448 158.809 142.408 158.766 142.392 158.742C141.343 157.484 140.225 156.285 139.044 155.149C138.209 154.358 137.356 153.611 136.487 152.907C136.123 152.615 135.755 152.334 135.384 152.061C134.938 151.737 134.488 151.425 134.032 151.125C133.589 150.836 133.142 150.563 132.696 150.302C129.743 148.595 126.888 147.701 124.434 147.697C118.994 147.685 115.749 152.318 115.749 160.066Z" fill="black"/>
<path d="M134.81 163.581L142.68 178.279C144.89 177.448 148.634 176.12 151.682 175.341C151.555 174.946 151.421 174.551 151.286 174.183C150.537 172.126 149.654 170.12 148.642 168.178C148.434 167.775 148.22 167.38 148.001 166.993C147.642 166.332 147.266 165.676 146.875 165.016C145.56 162.833 144.081 160.753 142.451 158.794C142.451 158.794 142.412 158.75 142.396 158.727C142.159 158.446 141.921 158.165 141.68 157.893C139.56 159.985 137.261 161.889 134.81 163.581Z" fill="#E0E0E0"/>
<path d="M142.025 178.238C143.804 178.238 144.867 176.8 144.867 174.392V174.325C144.867 170.542 142.199 165.925 138.938 164.047L138.87 164.011C138.126 163.537 137.27 163.264 136.388 163.221C134.613 163.221 133.55 164.66 133.55 167.063V167.138C133.55 170.921 136.214 175.539 139.479 177.416L139.542 177.452C140.288 177.924 141.143 178.197 142.025 178.242V178.238Z" fill="#F5F5F5"/>
<path d="M193.927 167.17C194.214 167.041 194.529 166.989 194.841 167.019C195.154 167.049 195.453 167.16 195.71 167.34L263.703 206.587C264.512 207.117 265.165 207.852 265.597 208.717L268.807 206.863C268.368 206 267.708 205.269 266.893 204.744L198.924 165.486C198.212 165.091 197.568 165.059 197.078 165.356L193.927 167.17Z" fill="#455A64"/>
<path d="M268.707 269.78C269.308 269.444 269.688 268.65 269.688 267.519V210.069C269.688 209.938 269.688 209.808 269.688 209.673C269.688 209.539 269.688 209.492 269.66 209.401C269.632 209.31 269.64 209.227 269.624 209.14C269.616 209.077 269.604 209.015 269.589 208.954C269.548 208.734 269.494 208.516 269.427 208.302C269.403 208.207 269.371 208.112 269.34 208.017C269.308 207.922 269.245 207.76 269.197 207.622C269.197 207.622 269.197 207.594 269.178 207.582C269.126 207.456 269.075 207.333 269.015 207.215C268.956 207.096 268.889 206.958 268.822 206.819L265.596 208.717C265.667 208.847 265.734 208.982 265.802 209.112C265.869 209.243 265.9 209.333 265.944 209.444C265.946 209.461 265.946 209.478 265.944 209.496C265.999 209.622 266.047 209.753 266.09 209.891C266.134 210.029 266.181 210.164 266.217 210.286C266.247 210.388 266.272 210.49 266.292 210.595C266.398 211.029 266.452 211.475 266.454 211.923V269.369C266.454 270.511 266.059 271.314 265.458 271.646L268.707 269.78Z" fill="#263238"/>
<path d="M195.707 167.34L263.7 206.583C265.242 207.476 266.491 209.864 266.491 211.919V269.37C266.491 271.425 265.242 272.37 263.7 271.48L195.707 232.238C194.166 231.349 192.916 228.957 192.916 226.902V169.451C192.916 167.396 194.166 166.451 195.707 167.34Z" fill="#37474F"/>
<path d="M199.453 231.724L259.935 266.646C260.726 267.105 261.386 266.614 261.386 265.551V209.864C261.386 208.797 260.737 207.559 259.935 207.097L199.453 172.179C198.662 171.717 198.006 172.207 198.006 173.27V228.957C198.006 230.025 198.654 231.25 199.453 231.724Z" fill="#1F9B90"/>
<path opacity="0.1" d="M199.453 231.724L259.935 266.646C260.726 267.105 261.386 266.614 261.386 265.551V209.864C261.386 208.797 260.737 207.559 259.935 207.097L199.453 172.179C198.662 171.717 198.006 172.207 198.006 173.27V228.957C198.006 230.025 198.654 231.25 199.453 231.724Z" fill="black"/>
<path d="M262.994 240.805C263 241.154 263.087 241.498 263.249 241.807C263.411 242.117 263.643 242.384 263.927 242.588C264.445 242.888 264.864 242.588 264.864 241.884C264.86 241.534 264.772 241.189 264.609 240.879C264.447 240.568 264.213 240.301 263.927 240.097C263.413 239.797 262.994 240.117 262.994 240.805Z" fill="#E0E0E0"/>
<path d="M263.928 231.594C264.1 231.718 264.242 231.88 264.34 232.068C264.439 232.256 264.493 232.465 264.497 232.677V237.634C264.497 238.053 264.24 238.243 263.928 238.061C263.756 237.938 263.615 237.776 263.517 237.589C263.419 237.401 263.366 237.193 263.363 236.982V232.04C263.363 231.606 263.616 231.416 263.928 231.594Z" fill="#E0E0E0"/>
<path d="M203.849 179.437L252.025 207.25V262.056L203.849 234.262V179.437Z" fill="#FAFAFA"/>
<path d="M203.851 179.437L205.46 178.512L253.632 206.322L252.027 207.251L203.851 179.437Z" fill="white"/>
<path d="M253.632 206.322L252.027 207.251V262.057L253.632 262.982V206.322Z" fill="#E0E0E0"/>
<path d="M222.057 202.228V195.177L223.365 195.932L225.964 201.648V197.433L227.5 198.319V205.371L226.182 204.61L223.584 198.905V203.11L222.057 202.228ZM229.413 206.476V199.424L233.917 202.025V203.382L230.94 201.663V203.142L233.567 204.658V206.038L230.94 204.521V205.999L233.917 207.718V209.076L229.413 206.476ZM236.826 210.756L235.404 202.883L236.902 203.748L237.708 208.462L238.543 205.691V204.695L239.794 205.418L240.847 210.285L241.691 206.513L243.189 207.378L241.776 213.613L240.363 212.798L239.339 208.133L238.239 211.571L236.826 210.756ZM246.672 216.549C246.267 216.316 245.888 216.06 245.534 215.783C245.186 215.516 244.886 215.245 244.633 214.967V213.467C244.911 213.766 245.218 214.057 245.553 214.338C245.894 214.622 246.217 214.852 246.52 215.027C246.899 215.246 247.181 215.369 247.364 215.394C247.554 215.423 247.648 215.303 247.648 215.033C247.648 214.85 247.601 214.677 247.506 214.513C247.418 214.352 247.269 214.171 247.061 213.971C246.858 213.766 246.58 213.504 246.226 213.182C245.809 212.796 245.477 212.443 245.23 212.126C244.984 211.801 244.807 211.48 244.699 211.162C244.592 210.845 244.538 210.5 244.538 210.127C244.538 209.456 244.747 209.062 245.164 208.945C245.581 208.828 246.198 209.005 247.013 209.476C247.367 209.68 247.712 209.912 248.047 210.171C248.382 210.423 248.654 210.649 248.862 210.85V212.361C248.59 212.08 248.315 211.83 248.037 211.611C247.765 211.396 247.5 211.213 247.241 211.064C246.899 210.867 246.621 210.742 246.406 210.691C246.198 210.644 246.093 210.752 246.093 211.014C246.093 211.168 246.131 211.314 246.207 211.452C246.283 211.584 246.413 211.739 246.596 211.918C246.786 212.1 247.042 212.336 247.364 212.624C247.863 213.066 248.246 213.473 248.511 213.845C248.777 214.21 248.96 214.564 249.061 214.907C249.163 215.243 249.213 215.586 249.213 215.936C249.213 216.557 249.004 216.94 248.587 217.086C248.17 217.225 247.532 217.046 246.672 216.549Z" fill="#455A64"/>
<path d="M207.617 185.351L220.465 192.771V201.495L207.617 194.075V185.351Z" fill="#E0E0E0"/>
<path d="M207.617 199.155L248.966 223.027V220.77L207.617 196.897V199.155Z" fill="#1F9B90"/>
<path d="M235.853 238.926L248.966 246.496V225.849L235.853 218.279V238.926Z" fill="#455A64"/>
<path d="M238.059 222.842L246.755 227.866C246.917 227.957 247.048 227.866 247.048 227.649C247.046 227.54 247.018 227.434 246.967 227.339C246.916 227.243 246.844 227.161 246.755 227.099L238.059 222.079C237.9 221.984 237.77 222.079 237.77 222.296C237.772 222.403 237.8 222.508 237.85 222.603C237.9 222.698 237.971 222.779 238.059 222.842Z" fill="white"/>
<path d="M238.059 226.546L246.755 231.567C246.917 231.657 247.048 231.567 247.048 231.349C247.046 231.24 247.018 231.134 246.967 231.038C246.917 230.942 246.844 230.859 246.755 230.796L238.059 225.775C237.9 225.684 237.77 225.775 237.77 225.993C237.772 226.101 237.799 226.207 237.849 226.304C237.899 226.4 237.971 226.483 238.059 226.546Z" fill="white"/>
<path d="M238.059 230.246L246.755 235.267C246.917 235.362 247.048 235.267 247.048 235.049C247.046 234.941 247.019 234.835 246.968 234.739C246.917 234.643 246.844 234.561 246.755 234.5L238.059 229.475C237.9 229.384 237.77 229.475 237.77 229.697C237.772 229.804 237.799 229.91 237.849 230.006C237.899 230.101 237.971 230.183 238.059 230.246Z" fill="white"/>
<path d="M238.059 233.946L246.755 238.971C246.917 239.061 247.048 238.971 247.048 238.753C247.046 238.644 247.019 238.537 246.968 238.441C246.917 238.345 246.844 238.262 246.755 238.2L238.059 233.179C237.9 233.084 237.77 233.179 237.77 233.397C237.772 233.504 237.799 233.61 237.849 233.706C237.899 233.801 237.971 233.884 238.059 233.946Z" fill="white"/>
<path d="M238.059 237.65L246.755 242.67C246.917 242.761 247.048 242.67 247.048 242.453C247.046 242.344 247.018 242.237 246.967 242.141C246.917 242.045 246.844 241.962 246.755 241.899L238.059 236.879C237.9 236.788 237.77 236.879 237.77 237.096C237.772 237.205 237.799 237.311 237.849 237.407C237.899 237.503 237.971 237.586 238.059 237.65Z" fill="white"/>
<path d="M238.059 224.608L246.755 229.629C246.917 229.72 247.048 229.629 247.048 229.411C247.046 229.303 247.019 229.196 246.968 229.099C246.917 229.003 246.844 228.92 246.755 228.858L238.059 223.837C237.9 223.743 237.77 223.837 237.77 224.055C237.772 224.163 237.799 224.27 237.849 224.366C237.899 224.462 237.971 224.545 238.059 224.608Z" fill="white"/>
<path d="M238.059 228.309L246.755 233.329C246.917 233.424 247.048 233.329 247.048 233.112C247.046 233.003 247.018 232.896 246.967 232.8C246.917 232.704 246.844 232.621 246.755 232.558L238.059 227.538C237.9 227.447 237.77 227.538 237.77 227.755C237.772 227.864 237.799 227.97 237.849 228.066C237.899 228.162 237.971 228.245 238.059 228.309Z" fill="white"/>
<path d="M238.059 232.009L246.755 237.033C246.917 237.124 247.048 237.033 247.048 236.812C247.046 236.704 247.019 236.597 246.968 236.502C246.917 236.406 246.844 236.324 246.755 236.262L238.059 231.238C237.9 231.147 237.77 231.238 237.77 231.459C237.772 231.567 237.799 231.673 237.849 231.768C237.899 231.864 237.971 231.946 238.059 232.009Z" fill="white"/>
<path d="M238.059 235.713L246.755 240.733C246.917 240.824 247.048 240.733 247.048 240.516C247.046 240.407 247.019 240.3 246.968 240.204C246.917 240.108 246.844 240.025 246.755 239.962L238.059 234.942C237.9 234.847 237.77 234.942 237.77 235.159C237.772 235.268 237.799 235.374 237.849 235.47C237.899 235.566 237.971 235.649 238.059 235.713Z" fill="white"/>
<path d="M207.616 236.417L232.951 251.047V216.604L207.616 201.978V236.417Z" fill="#E0E0E0"/>
<path d="M231.169 217.189L209.147 204.476C208.838 204.294 208.585 204.44 208.585 204.796V222.873C208.596 223.068 208.653 223.256 208.751 223.425C208.848 223.593 208.984 223.736 209.147 223.842L231.165 236.559C231.478 236.737 231.727 236.591 231.727 236.235V218.157C231.716 217.964 231.66 217.775 231.563 217.607C231.467 217.438 231.332 217.295 231.169 217.189Z" fill="#1F9B90"/>
<path opacity="0.8" d="M231.169 217.189L209.147 204.476C208.838 204.294 208.585 204.44 208.585 204.796V222.873C208.596 223.068 208.653 223.256 208.751 223.425C208.848 223.593 208.984 223.736 209.147 223.842L231.165 236.559C231.478 236.737 231.727 236.591 231.727 236.235V218.157C231.716 217.964 231.66 217.775 231.563 217.607C231.467 217.438 231.332 217.295 231.169 217.189Z" fill="white"/>
<path d="M214.728 214.904L218.409 221.415L215.823 224.767L224.366 217.415L231.727 233.357V236.243C231.727 236.599 231.478 236.745 231.165 236.567L209.147 223.85C208.984 223.744 208.848 223.601 208.751 223.433C208.653 223.265 208.596 223.076 208.585 222.882V220.53L214.728 214.904Z" fill="#1F9B90"/>
<path d="M212.186 208.935C211.577 208.583 211.083 208.868 211.083 209.571C211.104 209.955 211.215 210.327 211.406 210.66C211.598 210.992 211.865 211.275 212.186 211.485C212.795 211.837 213.289 211.552 213.289 210.848C213.268 210.465 213.158 210.092 212.966 209.76C212.775 209.427 212.507 209.145 212.186 208.935Z" fill="#1F9B90"/>
<path d="M227.207 237.425L208.667 226.72V234.136L227.207 244.841V237.425Z" fill="#F0F0F0"/>
<path d="M228.896 245.812L248.966 257.399V249.987L228.896 238.396V245.812Z" fill="#1F9B90"/>
<path d="M177.51 207.764H177.174C175.664 207.765 174.216 208.365 173.148 209.434C172.081 210.502 171.481 211.95 171.481 213.46V219.915H178.237C179.552 219.911 180.812 219.386 181.741 218.454C182.669 217.523 183.19 216.262 183.19 214.946V213.46C183.19 211.952 182.592 210.506 181.528 209.438C180.463 208.37 179.018 207.768 177.51 207.764Z" fill="#263238"/>
<path d="M182.449 209.266C182.35 209.285 182.256 209.324 182.172 209.38C182.088 209.435 182.016 209.507 181.96 209.591C181.904 209.675 181.865 209.769 181.845 209.867C181.825 209.966 181.825 210.068 181.844 210.167L183.351 209.867C183.311 209.667 183.193 209.492 183.024 209.38C182.855 209.267 182.648 209.226 182.449 209.266Z" fill="#263238"/>
<path d="M181.464 208.938C181.407 209.132 181.426 209.34 181.518 209.52C181.61 209.701 181.768 209.839 181.958 209.906L182.433 208.448C182.337 208.416 182.236 208.404 182.135 208.411C182.035 208.419 181.937 208.446 181.847 208.492C181.757 208.537 181.677 208.6 181.611 208.677C181.545 208.753 181.495 208.842 181.464 208.938Z" fill="#263238"/>
<path d="M171.306 276.915C170.624 277.631 169.876 278.283 169.073 278.86C168.944 278.939 168.837 279.049 168.761 279.18C168.654 279.401 168.492 279.943 169.492 280.291C169.997 280.467 170.535 280.532 171.068 280.48C171.601 280.429 172.116 280.263 172.579 279.994C173.398 279.48 173.437 278.413 174.212 277.8C174.785 277.35 175.505 277.235 175.967 276.642C176.291 276.247 176.204 275.685 176.038 275.005C175.872 274.326 175.769 273.709 175.524 273.764L175.564 274.104C175.259 274.594 173.674 274.737 172.971 274.401C172.461 275.268 171.905 276.107 171.306 276.915Z" fill="#263238"/>
<path d="M170.613 277.607C170.85 277.389 171.083 277.164 171.305 276.919C171.775 276.312 172.206 275.677 172.597 275.017C172.869 274.617 172.997 274.136 172.961 273.654L172.763 271.831L175.27 271.653L175.562 274.112C175.622 274.67 175.167 275.164 174.345 275.867C173.522 276.571 172.495 278.211 171.755 278.634C171.016 279.057 170.486 279.03 170.174 278.82C169.862 278.611 169.818 278.417 170.613 277.607Z" fill="#FFA8A7"/>
<path d="M180.846 277.136V276.76C180.696 277.203 180.008 279.105 178.96 280.061C178.13 280.816 176.984 281.694 176.707 282.54C176.43 283.386 178.288 283.726 179.079 283.576C180.115 283.402 181.065 282.892 181.783 282.125C182.229 281.575 182.514 280.939 182.834 280.492C183.154 280.045 183.89 279.579 184.064 279.077C184.116 278.61 184.063 278.137 183.909 277.693C183.787 277.231 183.656 276.717 183.514 276.76V277.049C183.13 277.353 182.652 277.512 182.162 277.5C181.779 277.5 180.842 277.432 180.846 277.136Z" fill="#263238"/>
<path d="M178.208 280.726C178.465 280.497 178.726 280.271 178.959 280.058C179.661 279.317 180.208 278.443 180.568 277.488C180.751 277.049 180.845 276.577 180.845 276.101V274.599H183.481V277.046V277.105C183.355 277.654 182.145 279.109 181.457 280.062C180.901 280.876 180.051 281.443 179.086 281.643C178.05 281.793 177.564 281.477 178.208 280.726Z" fill="#FFA8A7"/>
<path d="M182.956 236.175C185 240.638 182.881 256.359 182.881 256.359C182.944 257.083 183.77 258.51 184.067 261.696C184.434 265.463 183.498 274.919 183.498 274.919C183.096 275.152 182.643 275.284 182.179 275.303C181.714 275.321 181.252 275.226 180.833 275.026C180.833 275.026 178.323 260.795 177.849 257.039C177.453 253.77 176.663 246.089 176.663 246.089L174.607 257.11C174.983 258.141 175.248 259.209 175.398 260.296C175.611 262.498 175.449 272.689 175.449 272.689C175.449 272.689 174.552 273.373 172.824 273.12C172.824 273.12 169.836 259.17 169.603 256.517C169.464 254.936 171.271 235.519 171.271 235.519L182.956 236.175Z" fill="#37474F"/>
<path d="M176.658 246.089L175.994 242.44C175.994 242.44 173.187 241.859 171.915 240.661C172.793 241.691 173.942 242.454 175.231 242.867L175.978 246.057L174.792 256.027L176.658 246.089Z" fill="#263238"/>
<path d="M188.087 233.293C188.02 233.005 186.992 230.004 186.352 228.336L182.897 230.016L184.039 233.091L187.482 235.068C188.407 234.728 188.15 233.578 188.087 233.293Z" fill="#FFA8A7"/>
<path d="M168.519 227.647L166.783 230.83L169.483 233.146L171.958 229.225L168.519 227.647Z" fill="#FFA8A7"/>
<path d="M175.034 220.552C173.315 220.552 171.417 221.196 170.765 222.528C170.113 223.86 168.037 228.063 168.037 228.063C168.037 228.063 169.911 229.79 172.326 229.644L175.034 220.552Z" fill="#1F9B90"/>
<path opacity="0.3" d="M175.034 220.552C173.315 220.552 171.417 221.196 170.765 222.528C170.113 223.86 168.037 228.063 168.037 228.063C168.037 228.063 169.911 229.79 172.326 229.644L175.034 220.552Z" fill="black"/>
<path d="M178.6 220.611L180.181 220.67C181.738 221.046 182.157 222.117 182.825 223.501C183.307 224.566 183.352 225.778 182.952 226.877L181.126 232.158C181.126 232.158 181.979 234.222 182.972 236.174C178.39 238.732 172.67 237.388 171.294 235.522C171.235 235.127 171.314 233.344 171.203 231.312C171.085 229.15 170.788 226.703 171.128 225.382C171.725 222.884 172.911 220.552 175.283 220.552L178.6 220.611Z" fill="#1F9B90"/>
<path d="M180.163 220.67C182.361 220.552 183.907 221.066 185.18 224.659C186.053 227.122 187.156 229.984 187.156 229.984C187.156 229.984 185.788 231.348 183.203 231.336C183.187 231.336 179.748 223.098 180.163 220.67Z" fill="#1F9B90"/>
<path opacity="0.3" d="M180.163 220.67C182.361 220.552 183.907 221.066 185.18 224.659C186.053 227.122 187.156 229.984 187.156 229.984C187.156 229.984 185.788 231.348 183.203 231.336C183.187 231.336 179.748 223.098 180.163 220.67Z" fill="black"/>
<path d="M173.406 210.132C172.786 210.499 172.023 212.057 172.098 215.322C172.161 218.089 173.058 218.773 173.509 218.971C173.96 219.169 174.826 219.046 175.671 218.908V220.576C175.671 220.576 174.486 221.932 174.576 222.691C174.667 223.45 176.264 223.636 177.344 222.888C178.051 222.38 178.658 221.744 179.134 221.015V216.99C179.223 217.099 179.333 217.19 179.457 217.256C179.582 217.322 179.718 217.363 179.858 217.376C179.998 217.389 180.139 217.375 180.273 217.333C180.408 217.291 180.533 217.223 180.64 217.133C181.569 216.512 181.605 214.982 181.063 214.429C180.522 213.875 179.356 214.053 179.134 214.824C178.027 214.776 176.948 214.455 175.996 213.887C175.299 213.509 174.701 212.972 174.251 212.32C173.801 211.667 173.512 210.917 173.406 210.132Z" fill="#FFA8A7"/>
<path d="M175.071 214.666C175.07 214.735 175.09 214.802 175.127 214.859C175.164 214.916 175.217 214.961 175.279 214.989C175.342 215.016 175.411 215.024 175.479 215.013C175.546 215.001 175.608 214.97 175.658 214.923C175.707 214.876 175.742 214.815 175.758 214.749C175.773 214.682 175.769 214.613 175.745 214.549C175.721 214.485 175.679 214.429 175.624 214.389C175.569 214.349 175.503 214.325 175.435 214.322C175.341 214.32 175.25 214.355 175.182 214.42C175.114 214.484 175.074 214.573 175.071 214.666Z" fill="#263238"/>
<path d="M175.092 216.971L174.301 217.232C174.316 217.285 174.342 217.336 174.377 217.38C174.411 217.423 174.455 217.46 174.504 217.487C174.553 217.514 174.606 217.53 174.662 217.536C174.718 217.542 174.774 217.536 174.827 217.52C174.933 217.48 175.02 217.401 175.069 217.298C175.119 217.196 175.127 217.079 175.092 216.971Z" fill="#F28F8F"/>
<path d="M172.333 213.559L173.037 213.065C173.009 213.016 172.971 212.973 172.925 212.94C172.879 212.906 172.827 212.883 172.772 212.872C172.716 212.861 172.659 212.862 172.604 212.874C172.549 212.887 172.497 212.912 172.452 212.946C172.357 213.013 172.292 213.115 172.27 213.229C172.247 213.343 172.27 213.461 172.333 213.559Z" fill="#263238"/>
<path d="M172.434 214.607C172.434 214.675 172.454 214.741 172.492 214.798C172.529 214.855 172.582 214.899 172.645 214.926C172.707 214.953 172.776 214.961 172.843 214.949C172.91 214.937 172.972 214.906 173.021 214.859C173.07 214.812 173.105 214.752 173.121 214.686C173.136 214.62 173.132 214.551 173.109 214.487C173.085 214.423 173.044 214.367 172.989 214.327C172.935 214.286 172.87 214.263 172.802 214.259C172.707 214.257 172.615 214.292 172.546 214.357C172.478 214.422 172.437 214.512 172.434 214.607Z" fill="#263238"/>
<path d="M174.136 214.176L174.08 216.271L172.977 215.931L174.136 214.176Z" fill="#F28F8F"/>
<path d="M175.677 218.908C176.567 218.789 178.397 218.263 178.686 217.54C178.569 217.906 178.344 218.229 178.041 218.465C177.496 218.932 175.669 219.461 175.669 219.461L175.677 218.908Z" fill="#F28F8F"/>
<path d="M162.265 226.023L174.164 230.115L177.88 245.524L166.483 241.306L162.265 226.023Z" fill="#F5F5F5"/>
<path d="M176.064 241.247L166.244 237.823L166.976 240.662L176.775 244.239L176.064 241.247Z" fill="#E0E0E0"/>
<path d="M169.877 236.949L170.149 238.693L166.101 237.182L165.584 235.384L169.877 236.949Z" fill="#E6E6E6"/>
<path d="M174.285 233.866L169.854 232.34L171.044 239.001L175.993 240.661L174.285 233.866Z" fill="#E0E0E0"/>
<path d="M164.203 230.284L165.397 234.613L169.741 236.222L168.994 232.103L164.203 230.284Z" fill="#E6E6E6"/>
<path d="M163.35 227.181L173.601 230.679L174.174 233.043L163.947 229.359L163.35 227.181Z" fill="#E0E0E0"/>
<path opacity="0.15" d="M166.983 235.629C166.889 235.886 166.335 236.593 165.161 236.538L165.015 236.02L166.983 235.629Z" fill="black"/>
<path opacity="0.15" d="M170.724 236.139C170.767 236.475 171.455 237.091 172.617 237.479C173.938 237.922 175.993 237.704 175.993 237.704L175.839 237.048L170.724 236.139Z" fill="black"/>
<path d="M187.482 235.068L183.865 232.629C183.865 232.629 178.434 234.629 177.631 234.692C177.206 234.705 176.787 234.588 176.429 234.357C176.071 234.126 175.791 233.792 175.627 233.4C175.323 232.609 174.781 232.708 174.781 232.708C174.781 232.708 175.018 233.708 175.097 234.028C175.176 234.349 173.247 234.609 172.176 234.25C171.105 233.89 169.563 234.412 170.52 235.866C171.476 237.321 173.342 237.487 174.635 237.491C175.177 237.487 175.718 237.45 176.256 237.381C176.675 237.329 177.09 237.286 177.509 237.254C180.161 237.068 186.277 235.444 187.482 235.068Z" fill="#FFA8A7"/>
<path d="M163.641 231C163.641 231 163.997 232.288 164.084 232.581C164.17 232.874 165.345 233.447 166.084 233.652C166.823 233.858 167.641 234.099 167.27 235.135C166.946 236.095 165.724 236.321 165.099 236.285C164.682 236.214 164.292 236.029 163.973 235.75C163.654 235.471 163.418 235.109 163.293 234.704C162.862 233.482 163.095 232.178 162.925 231.462C162.755 230.747 163.269 230.573 163.641 231Z" fill="#FFA8A7"/>
<path d="M126.223 220.908L109.501 210.199L102.137 212.567L126.223 220.908Z" fill="#1F9B90"/>
<path d="M126.223 220.908L111.77 208.855L114.98 205.147L126.223 220.908Z" fill="#1F9B90"/>
<path d="M111.77 208.855V211.654L126.223 220.908L111.77 208.855Z" fill="#1F9B90"/>
<path opacity="0.3" d="M111.77 208.855V211.654L126.223 220.908L111.77 208.855Z" fill="black"/>
<path d="M148.209 220.564L135.875 212.666L130.44 214.409L148.209 220.564Z" fill="#1F9B90"/>
<path d="M148.209 220.564L137.548 211.674L139.915 208.938L148.209 220.564Z" fill="#1F9B90"/>
<path d="M137.548 211.673V213.736L148.209 220.563L137.548 211.673Z" fill="#1F9B90"/>
<path opacity="0.3" d="M137.548 211.673V213.736L148.209 220.563L137.548 211.673Z" fill="black"/>
<path d="M109.667 208.08C109.726 208.08 109.785 208.062 109.834 208.029C109.883 207.995 109.921 207.948 109.943 207.892C109.965 207.837 109.969 207.776 109.956 207.718C109.943 207.66 109.912 207.607 109.868 207.566C109.3 207.043 108.784 206.466 108.327 205.843C108.279 205.78 108.21 205.738 108.132 205.727C108.054 205.715 107.975 205.734 107.912 205.78C107.88 205.802 107.853 205.831 107.832 205.865C107.812 205.898 107.798 205.935 107.792 205.974C107.786 206.012 107.788 206.052 107.798 206.09C107.808 206.128 107.825 206.163 107.848 206.195C108.33 206.846 108.871 207.451 109.465 208.001C109.52 208.052 109.592 208.08 109.667 208.08ZM107.05 204.637C107.096 204.636 107.142 204.625 107.184 204.606C107.253 204.569 107.305 204.508 107.328 204.434C107.352 204.36 107.346 204.28 107.311 204.21C106.962 203.522 106.679 202.802 106.465 202.06C106.455 202.022 106.437 201.987 106.414 201.956C106.39 201.925 106.36 201.9 106.326 201.881C106.292 201.861 106.255 201.849 106.216 201.845C106.178 201.84 106.138 201.843 106.101 201.854C106.025 201.876 105.962 201.927 105.923 201.996C105.885 202.065 105.875 202.146 105.896 202.222C106.118 203.001 106.416 203.757 106.785 204.479C106.81 204.527 106.848 204.568 106.895 204.596C106.942 204.624 106.995 204.638 107.05 204.637ZM105.793 200.498H105.828C105.867 200.494 105.904 200.482 105.938 200.463C105.972 200.444 106.002 200.419 106.025 200.388C106.049 200.357 106.067 200.322 106.077 200.285C106.088 200.248 106.09 200.209 106.085 200.17C106.027 199.674 105.998 199.175 105.998 198.676C105.998 198.403 105.998 198.126 106.022 197.858C106.025 197.819 106.021 197.779 106.008 197.742C105.996 197.705 105.976 197.67 105.951 197.641C105.925 197.611 105.893 197.587 105.858 197.57C105.823 197.553 105.784 197.543 105.745 197.541C105.707 197.539 105.668 197.544 105.631 197.556C105.594 197.569 105.56 197.588 105.531 197.614C105.502 197.64 105.478 197.671 105.462 197.706C105.445 197.741 105.435 197.779 105.433 197.818C105.413 198.103 105.405 198.391 105.405 198.676C105.405 199.204 105.436 199.732 105.496 200.257C105.51 200.325 105.547 200.387 105.601 200.431C105.655 200.475 105.723 200.499 105.793 200.498ZM105.998 196.174C106.066 196.173 106.131 196.15 106.184 196.108C106.236 196.065 106.273 196.006 106.287 195.94C106.449 195.182 106.672 194.437 106.955 193.715C106.983 193.641 106.981 193.56 106.949 193.488C106.918 193.416 106.858 193.36 106.785 193.331C106.712 193.303 106.63 193.305 106.558 193.337C106.486 193.369 106.43 193.428 106.402 193.501C106.107 194.253 105.875 195.028 105.706 195.818C105.691 195.894 105.706 195.974 105.749 196.039C105.792 196.104 105.859 196.15 105.935 196.166C105.955 196.172 105.977 196.175 105.998 196.174ZM107.512 192.114C107.566 192.113 107.618 192.099 107.664 192.072C107.71 192.045 107.747 192.006 107.773 191.96C108.144 191.271 108.564 190.611 109.03 189.983C109.078 189.92 109.098 189.841 109.087 189.763C109.076 189.685 109.034 189.615 108.971 189.568C108.908 189.521 108.829 189.501 108.751 189.512C108.673 189.523 108.603 189.564 108.556 189.627C108.075 190.272 107.639 190.95 107.251 191.655C107.216 191.724 107.209 191.803 107.231 191.877C107.253 191.951 107.303 192.013 107.37 192.051C107.411 192.084 107.46 192.105 107.512 192.114ZM110.062 188.607C110.102 188.608 110.142 188.6 110.179 188.583C110.216 188.567 110.249 188.543 110.276 188.513C110.809 187.945 111.375 187.409 111.971 186.908C112.001 186.882 112.026 186.85 112.043 186.815C112.061 186.779 112.072 186.741 112.074 186.701C112.077 186.662 112.072 186.622 112.059 186.585C112.047 186.547 112.027 186.512 112.001 186.483C111.975 186.453 111.944 186.428 111.908 186.411C111.873 186.393 111.834 186.383 111.795 186.38C111.755 186.377 111.716 186.382 111.678 186.395C111.641 186.407 111.606 186.427 111.576 186.453C110.962 186.969 110.38 187.522 109.833 188.109C109.794 188.152 109.768 188.204 109.758 188.261C109.748 188.318 109.755 188.377 109.778 188.43C109.802 188.482 109.84 188.527 109.888 188.559C109.936 188.591 109.993 188.607 110.05 188.607H110.062ZM113.351 185.789C113.411 185.788 113.469 185.768 113.517 185.733C114.102 185.338 114.723 184.943 115.363 184.575L115.509 184.492C115.543 184.473 115.573 184.447 115.596 184.416C115.62 184.385 115.638 184.35 115.648 184.312C115.658 184.275 115.66 184.235 115.655 184.197C115.65 184.158 115.638 184.121 115.618 184.087C115.599 184.053 115.573 184.024 115.542 184C115.511 183.976 115.476 183.959 115.438 183.949C115.4 183.939 115.361 183.936 115.323 183.941C115.284 183.946 115.247 183.959 115.213 183.978L115.067 184.061C114.414 184.433 113.778 184.852 113.181 185.247C113.128 185.283 113.089 185.335 113.068 185.395C113.047 185.455 113.046 185.52 113.065 185.581C113.084 185.642 113.122 185.695 113.174 185.732C113.225 185.77 113.287 185.79 113.351 185.789ZM117.071 183.54C117.122 183.54 117.173 183.527 117.217 183.5L119.273 182.314C119.309 182.296 119.341 182.27 119.366 182.239C119.392 182.208 119.411 182.172 119.423 182.133C119.434 182.094 119.437 182.053 119.432 182.013C119.427 181.973 119.414 181.934 119.394 181.899C119.373 181.865 119.346 181.834 119.313 181.81C119.28 181.787 119.243 181.77 119.204 181.761C119.164 181.752 119.123 181.751 119.083 181.759C119.044 181.766 119.006 181.782 118.972 181.804L116.921 182.99C116.864 183.023 116.82 183.073 116.795 183.134C116.77 183.194 116.765 183.261 116.782 183.325C116.8 183.388 116.837 183.444 116.889 183.483C116.942 183.523 117.005 183.544 117.071 183.543V183.54ZM120.834 181.361C120.886 181.361 120.936 181.348 120.981 181.322L123.032 180.136C123.098 180.097 123.146 180.034 123.167 179.961C123.188 179.887 123.179 179.808 123.143 179.741C123.103 179.675 123.04 179.628 122.967 179.607C122.894 179.587 122.815 179.595 122.748 179.63L120.696 180.816C120.639 180.849 120.595 180.899 120.57 180.96C120.545 181.02 120.541 181.087 120.558 181.15C120.575 181.214 120.612 181.269 120.665 181.309C120.717 181.349 120.781 181.37 120.846 181.369L120.834 181.361ZM124.598 179.183C124.649 179.182 124.7 179.167 124.744 179.14L126.795 177.954C126.861 177.914 126.908 177.851 126.929 177.778C126.949 177.705 126.941 177.626 126.906 177.559C126.867 177.493 126.804 177.446 126.73 177.426C126.656 177.406 126.578 177.415 126.511 177.452L124.459 178.638C124.393 178.677 124.345 178.739 124.324 178.813C124.304 178.887 124.312 178.966 124.349 179.033C124.376 179.075 124.412 179.109 124.456 179.133C124.499 179.157 124.548 179.17 124.598 179.171V179.183ZM128.357 177.001C128.41 177.002 128.462 176.988 128.507 176.962L129.223 176.566C129.256 176.547 129.286 176.521 129.31 176.49C129.333 176.459 129.351 176.424 129.361 176.386C129.371 176.349 129.374 176.309 129.369 176.271C129.363 176.232 129.351 176.195 129.331 176.161C129.312 176.127 129.286 176.098 129.255 176.074C129.224 176.05 129.189 176.033 129.151 176.023C129.114 176.013 129.074 176.01 129.036 176.015C128.997 176.02 128.96 176.033 128.926 176.052L128.211 176.448C128.146 176.487 128.098 176.55 128.077 176.623C128.057 176.697 128.065 176.775 128.1 176.843C128.126 176.888 128.164 176.925 128.209 176.95C128.254 176.976 128.305 176.99 128.357 176.989V177.001Z" fill="#E6E6E6"/>
<path d="M135.038 211.709C135.099 211.708 135.158 211.689 135.207 211.654C135.256 211.619 135.294 211.57 135.314 211.514C135.335 211.457 135.338 211.395 135.322 211.337C135.307 211.279 135.274 211.226 135.228 211.187L133.754 209.969C133.724 209.944 133.689 209.924 133.652 209.911C133.614 209.899 133.575 209.894 133.535 209.896C133.496 209.899 133.457 209.91 133.422 209.927C133.386 209.945 133.355 209.969 133.329 209.999C133.303 210.029 133.283 210.064 133.27 210.101C133.258 210.139 133.253 210.178 133.256 210.218C133.258 210.257 133.269 210.296 133.286 210.331C133.304 210.367 133.329 210.398 133.358 210.424L134.833 211.642C134.89 211.69 134.964 211.714 135.038 211.709ZM132.038 209.234C132.082 209.235 132.125 209.225 132.165 209.207C132.205 209.188 132.24 209.161 132.267 209.127C132.317 209.066 132.341 208.988 132.333 208.91C132.326 208.832 132.288 208.759 132.228 208.708L130.398 207.198C130.336 207.151 130.259 207.13 130.183 207.139C130.106 207.147 130.036 207.186 129.987 207.245C129.938 207.305 129.915 207.381 129.921 207.458C129.928 207.535 129.964 207.606 130.022 207.657L131.848 209.167C131.902 209.21 131.969 209.234 132.038 209.234ZM128.741 206.404C128.821 206.402 128.898 206.37 128.955 206.313C129.01 206.257 129.041 206.182 129.041 206.103C129.041 206.025 129.01 205.949 128.955 205.894C128.399 205.35 127.871 204.779 127.373 204.182C127.322 204.123 127.249 204.087 127.171 204.08C127.093 204.074 127.015 204.097 126.954 204.147C126.895 204.198 126.858 204.27 126.851 204.349C126.844 204.427 126.869 204.505 126.919 204.566C127.425 205.163 127.974 205.752 128.559 206.321C128.608 206.369 128.673 206.399 128.741 206.404ZM125.919 203.107C125.978 203.106 126.036 203.086 126.085 203.052C126.145 203.008 126.187 202.942 126.201 202.869C126.215 202.795 126.2 202.719 126.16 202.656C125.713 202.023 125.305 201.363 124.938 200.68C124.922 200.642 124.899 200.608 124.869 200.579C124.839 200.551 124.803 200.529 124.765 200.516C124.726 200.502 124.685 200.496 124.644 200.499C124.603 200.502 124.563 200.514 124.526 200.533C124.49 200.552 124.458 200.579 124.432 200.611C124.407 200.643 124.388 200.681 124.378 200.721C124.368 200.76 124.366 200.802 124.373 200.843C124.379 200.883 124.394 200.922 124.417 200.956C124.794 201.665 125.214 202.35 125.674 203.008C125.704 203.042 125.742 203.069 125.785 203.086C125.827 203.103 125.873 203.111 125.919 203.107ZM123.851 199.292C123.887 199.298 123.923 199.298 123.958 199.292C123.996 199.278 124.03 199.257 124.06 199.229C124.089 199.201 124.112 199.168 124.128 199.131C124.144 199.094 124.152 199.054 124.152 199.014C124.152 198.974 124.144 198.934 124.128 198.897C123.844 198.174 123.614 197.432 123.44 196.675C123.434 196.635 123.419 196.597 123.398 196.563C123.376 196.528 123.347 196.499 123.314 196.476C123.28 196.454 123.242 196.438 123.202 196.43C123.162 196.423 123.121 196.424 123.082 196.432C123.042 196.441 123.005 196.458 122.972 196.482C122.94 196.506 122.912 196.537 122.892 196.572C122.871 196.607 122.858 196.645 122.853 196.686C122.848 196.726 122.851 196.767 122.863 196.806C123.042 197.591 123.28 198.361 123.575 199.11C123.597 199.165 123.636 199.211 123.685 199.243C123.734 199.276 123.792 199.293 123.851 199.292ZM122.847 195.078H122.875C122.914 195.075 122.952 195.065 122.986 195.047C123.021 195.029 123.052 195.004 123.077 194.975C123.102 194.945 123.12 194.91 123.132 194.873C123.143 194.836 123.147 194.797 123.144 194.758C123.112 194.363 123.096 193.999 123.096 193.623C123.096 193.248 123.096 192.833 123.148 192.438C123.151 192.399 123.147 192.36 123.136 192.322C123.124 192.285 123.106 192.251 123.081 192.221C123.055 192.191 123.025 192.167 122.99 192.149C122.955 192.131 122.918 192.12 122.879 192.117C122.801 192.112 122.724 192.137 122.664 192.187C122.605 192.237 122.567 192.309 122.559 192.386C122.523 192.781 122.503 193.208 122.503 193.62C122.503 194.031 122.503 194.41 122.555 194.805C122.561 194.879 122.594 194.948 122.648 194.999C122.702 195.049 122.773 195.077 122.847 195.078ZM123.179 190.761C123.245 190.761 123.31 190.739 123.362 190.698C123.414 190.657 123.451 190.6 123.468 190.536C123.651 189.785 123.903 189.052 124.219 188.346C124.236 188.31 124.245 188.272 124.247 188.232C124.249 188.193 124.242 188.153 124.229 188.117C124.215 188.08 124.194 188.046 124.167 188.017C124.14 187.988 124.107 187.965 124.071 187.949C124.035 187.933 123.996 187.924 123.957 187.923C123.917 187.923 123.878 187.93 123.841 187.944C123.805 187.959 123.771 187.98 123.743 188.008C123.715 188.036 123.693 188.069 123.677 188.105C123.348 188.844 123.084 189.609 122.887 190.394C122.869 190.47 122.881 190.551 122.922 190.618C122.963 190.685 123.028 190.734 123.104 190.754L123.179 190.761ZM124.883 186.781C124.933 186.781 124.982 186.769 125.027 186.746C125.071 186.722 125.108 186.688 125.136 186.646C125.55 185.99 126.017 185.369 126.531 184.788C126.584 184.729 126.611 184.651 126.606 184.573C126.601 184.494 126.565 184.42 126.506 184.367C126.447 184.315 126.369 184.288 126.29 184.293C126.211 184.298 126.137 184.334 126.085 184.393C125.552 184.998 125.067 185.643 124.634 186.322C124.604 186.367 124.587 186.418 124.585 186.472C124.583 186.525 124.595 186.578 124.621 186.625C124.647 186.672 124.685 186.711 124.731 186.737C124.777 186.764 124.83 186.778 124.883 186.777V186.781ZM127.706 183.492C127.778 183.492 127.849 183.465 127.903 183.417C128.485 182.901 129.101 182.424 129.745 181.99C129.777 181.967 129.805 181.939 129.826 181.907C129.848 181.874 129.862 181.837 129.869 181.799C129.877 181.761 129.876 181.721 129.868 181.683C129.86 181.645 129.844 181.609 129.822 181.576C129.8 181.544 129.772 181.517 129.739 181.495C129.707 181.474 129.67 181.46 129.632 181.452C129.593 181.445 129.554 181.446 129.516 181.454C129.478 181.462 129.441 181.477 129.409 181.499C128.745 181.95 128.11 182.442 127.508 182.974C127.479 183 127.455 183.031 127.438 183.066C127.421 183.101 127.411 183.14 127.409 183.178C127.407 183.217 127.412 183.256 127.425 183.293C127.438 183.33 127.458 183.364 127.484 183.393C127.512 183.424 127.546 183.45 127.584 183.467C127.622 183.484 127.664 183.492 127.706 183.492ZM131.263 180.993C131.318 180.993 131.371 180.978 131.417 180.95L133.449 179.728C133.486 179.711 133.519 179.686 133.546 179.655C133.573 179.624 133.593 179.589 133.605 179.55C133.617 179.511 133.621 179.47 133.617 179.429C133.613 179.389 133.6 179.349 133.58 179.314C133.56 179.278 133.532 179.248 133.5 179.223C133.467 179.199 133.43 179.181 133.39 179.172C133.35 179.163 133.309 179.162 133.269 179.169C133.229 179.176 133.191 179.192 133.157 179.214C132.991 179.309 131.67 180.104 131.113 180.444C131.058 180.477 131.016 180.528 130.992 180.588C130.968 180.647 130.965 180.713 130.982 180.775C130.999 180.837 131.035 180.892 131.086 180.931C131.137 180.971 131.199 180.992 131.263 180.993Z" fill="#E6E6E6"/>
</g>
<defs>
<filter id="filter0_d_3374_31699" x="-10" y="-10" width="395" height="320" filterUnits="userSpaceOnUse" color-interpolation-filters="sRGB">
<feFlood flood-opacity="0" result="BackgroundImageFix"/>
<feColorMatrix in="SourceAlpha" type="matrix" values="0 0 0 0 0 0 0 0 0 0 0 0 0 0 0 0 0 0 127 0" result="hardAlpha"/>
<feOffset/>
<feGaussianBlur stdDeviation="5"/>
<feComposite in2="hardAlpha" operator="out"/>
<feColorMatrix type="matrix" values="0 0 0 0 0 0 0 0 0 0 0 0 0 0 0 0 0 0 0.1 0"/>
<feBlend mode="normal" in2="BackgroundImageFix" result="effect1_dropShadow_3374_31699"/>
<feBlend mode="normal" in="SourceGraphic" in2="effect1_dropShadow_3374_31699" result="shape"/>
</filter>
<clipPath id="clip0_3374_31699">
<rect width="375" height="300" fill="white"/>
</clipPath>
</defs>
</svg>
